<?xml version="1.0" encoding="utf-8" standalone="no"?>
<!DOCTYPE svg PUBLIC "-//W3C//DTD SVG 1.1//EN"
  "http://www.w3.org/Graphics/SVG/1.1/DTD/svg11.dtd">
<!-- Created with matplotlib (https://matplotlib.org/) -->
<svg height="288pt" version="1.1" viewBox="0 0 432 288" width="432pt" xmlns="http://www.w3.org/2000/svg" xmlns:xlink="http://www.w3.org/1999/xlink">
 <metadata>
  <rdf:RDF xmlns:cc="http://creativecommons.org/ns#" xmlns:dc="http://purl.org/dc/elements/1.1/" xmlns:rdf="http://www.w3.org/1999/02/22-rdf-syntax-ns#">
   <cc:Work>
    <dc:type rdf:resource="http://purl.org/dc/dcmitype/StillImage"/>
    <dc:date>2021-08-18T22:52:42.417500</dc:date>
    <dc:format>image/svg+xml</dc:format>
    <dc:creator>
     <cc:Agent>
      <dc:title>Matplotlib v3.3.3, https://matplotlib.org/</dc:title>
     </cc:Agent>
    </dc:creator>
   </cc:Work>
  </rdf:RDF>
 </metadata>
 <defs>
  <style type="text/css">*{stroke-linecap:butt;stroke-linejoin:round;}</style>
 </defs>
 <g id="figure_1">
  <g id="patch_1">
   <path d="M 0 288 
L 432 288 
L 432 0 
L 0 0 
z
" style="fill:#ffffff;"/>
  </g>
  <g id="axes_1">
   <g id="patch_2">
    <path d="M 54 252 
L 388.8 252 
L 388.8 34.56 
L 54 34.56 
z
" style="fill:#ffffff;"/>
   </g>
   <g id="matplotlib.axis_1">
    <g id="xtick_1">
     <g id="line2d_1">
      <path clip-path="url(#p11d9ea338f)" d="M 69.218182 252 
L 69.218182 34.56 
" style="fill:none;stroke:#cccccc;stroke-linecap:round;stroke-width:0.8;"/>
     </g>
     <g id="line2d_2"/>
     <g id="text_1">
      <!-- 0 -->
      <g style="fill:#262626;" transform="translate(66.437713 262.657812)scale(0.1 -0.1)">
       <defs>
        <path d="M 4.15625 35.296875 
Q 4.15625 48 6.765625 55.734375 
Q 9.375 63.484375 14.515625 67.671875 
Q 19.671875 71.875 27.484375 71.875 
Q 33.25 71.875 37.59375 69.546875 
Q 41.9375 67.234375 44.765625 62.859375 
Q 47.609375 58.5 49.21875 52.21875 
Q 50.828125 45.953125 50.828125 35.296875 
Q 50.828125 22.703125 48.234375 14.96875 
Q 45.65625 7.234375 40.5 3 
Q 35.359375 -1.21875 27.484375 -1.21875 
Q 17.140625 -1.21875 11.234375 6.203125 
Q 4.15625 15.140625 4.15625 35.296875 
z
M 13.1875 35.296875 
Q 13.1875 17.671875 17.3125 11.828125 
Q 21.4375 6 27.484375 6 
Q 33.546875 6 37.671875 11.859375 
Q 41.796875 17.71875 41.796875 35.296875 
Q 41.796875 52.984375 37.671875 58.78125 
Q 33.546875 64.59375 27.390625 64.59375 
Q 21.34375 64.59375 17.71875 59.46875 
Q 13.1875 52.9375 13.1875 35.296875 
z
" id="ArialMT-48"/>
       </defs>
       <use xlink:href="#ArialMT-48"/>
      </g>
     </g>
    </g>
    <g id="xtick_2">
     <g id="line2d_3">
      <path clip-path="url(#p11d9ea338f)" d="M 130.151843 252 
L 130.151843 34.56 
" style="fill:none;stroke:#cccccc;stroke-linecap:round;stroke-width:0.8;"/>
     </g>
     <g id="line2d_4"/>
     <g id="text_2">
      <!-- 200 -->
      <g style="fill:#262626;" transform="translate(121.810437 262.657812)scale(0.1 -0.1)">
       <defs>
        <path d="M 50.34375 8.453125 
L 50.34375 0 
L 3.03125 0 
Q 2.9375 3.171875 4.046875 6.109375 
Q 5.859375 10.9375 9.828125 15.625 
Q 13.8125 20.3125 21.34375 26.46875 
Q 33.015625 36.03125 37.109375 41.625 
Q 41.21875 47.21875 41.21875 52.203125 
Q 41.21875 57.421875 37.46875 61 
Q 33.734375 64.59375 27.734375 64.59375 
Q 21.390625 64.59375 17.578125 60.78125 
Q 13.765625 56.984375 13.71875 50.25 
L 4.6875 51.171875 
Q 5.609375 61.28125 11.65625 66.578125 
Q 17.71875 71.875 27.9375 71.875 
Q 38.234375 71.875 44.234375 66.15625 
Q 50.25 60.453125 50.25 52 
Q 50.25 47.703125 48.484375 43.546875 
Q 46.734375 39.40625 42.65625 34.8125 
Q 38.578125 30.21875 29.109375 22.21875 
Q 21.1875 15.578125 18.9375 13.203125 
Q 16.703125 10.84375 15.234375 8.453125 
z
" id="ArialMT-50"/>
       </defs>
       <use xlink:href="#ArialMT-50"/>
       <use x="55.615234" xlink:href="#ArialMT-48"/>
       <use x="111.230469" xlink:href="#ArialMT-48"/>
      </g>
     </g>
    </g>
    <g id="xtick_3">
     <g id="line2d_5">
      <path clip-path="url(#p11d9ea338f)" d="M 191.085504 252 
L 191.085504 34.56 
" style="fill:none;stroke:#cccccc;stroke-linecap:round;stroke-width:0.8;"/>
     </g>
     <g id="line2d_6"/>
     <g id="text_3">
      <!-- 400 -->
      <g style="fill:#262626;" transform="translate(182.744097 262.657812)scale(0.1 -0.1)">
       <defs>
        <path d="M 32.328125 0 
L 32.328125 17.140625 
L 1.265625 17.140625 
L 1.265625 25.203125 
L 33.9375 71.578125 
L 41.109375 71.578125 
L 41.109375 25.203125 
L 50.78125 25.203125 
L 50.78125 17.140625 
L 41.109375 17.140625 
L 41.109375 0 
z
M 32.328125 25.203125 
L 32.328125 57.46875 
L 9.90625 25.203125 
z
" id="ArialMT-52"/>
       </defs>
       <use xlink:href="#ArialMT-52"/>
       <use x="55.615234" xlink:href="#ArialMT-48"/>
       <use x="111.230469" xlink:href="#ArialMT-48"/>
      </g>
     </g>
    </g>
    <g id="xtick_4">
     <g id="line2d_7">
      <path clip-path="url(#p11d9ea338f)" d="M 252.019165 252 
L 252.019165 34.56 
" style="fill:none;stroke:#cccccc;stroke-linecap:round;stroke-width:0.8;"/>
     </g>
     <g id="line2d_8"/>
     <g id="text_4">
      <!-- 600 -->
      <g style="fill:#262626;" transform="translate(243.677758 262.657812)scale(0.1 -0.1)">
       <defs>
        <path d="M 49.75 54.046875 
L 41.015625 53.375 
Q 39.84375 58.546875 37.703125 60.890625 
Q 34.125 64.65625 28.90625 64.65625 
Q 24.703125 64.65625 21.53125 62.3125 
Q 17.390625 59.28125 14.984375 53.46875 
Q 12.59375 47.65625 12.5 36.921875 
Q 15.671875 41.75 20.265625 44.09375 
Q 24.859375 46.4375 29.890625 46.4375 
Q 38.671875 46.4375 44.84375 39.96875 
Q 51.03125 33.5 51.03125 23.25 
Q 51.03125 16.5 48.125 10.71875 
Q 45.21875 4.9375 40.140625 1.859375 
Q 35.0625 -1.21875 28.609375 -1.21875 
Q 17.625 -1.21875 10.6875 6.859375 
Q 3.765625 14.9375 3.765625 33.5 
Q 3.765625 54.25 11.421875 63.671875 
Q 18.109375 71.875 29.4375 71.875 
Q 37.890625 71.875 43.28125 67.140625 
Q 48.6875 62.40625 49.75 54.046875 
z
M 13.875 23.1875 
Q 13.875 18.65625 15.796875 14.5 
Q 17.71875 10.359375 21.1875 8.171875 
Q 24.65625 6 28.46875 6 
Q 34.03125 6 38.03125 10.484375 
Q 42.046875 14.984375 42.046875 22.703125 
Q 42.046875 30.125 38.078125 34.390625 
Q 34.125 38.671875 28.125 38.671875 
Q 22.171875 38.671875 18.015625 34.390625 
Q 13.875 30.125 13.875 23.1875 
z
" id="ArialMT-54"/>
       </defs>
       <use xlink:href="#ArialMT-54"/>
       <use x="55.615234" xlink:href="#ArialMT-48"/>
       <use x="111.230469" xlink:href="#ArialMT-48"/>
      </g>
     </g>
    </g>
    <g id="xtick_5">
     <g id="line2d_9">
      <path clip-path="url(#p11d9ea338f)" d="M 312.952826 252 
L 312.952826 34.56 
" style="fill:none;stroke:#cccccc;stroke-linecap:round;stroke-width:0.8;"/>
     </g>
     <g id="line2d_10"/>
     <g id="text_5">
      <!-- 800 -->
      <g style="fill:#262626;" transform="translate(304.611419 262.657812)scale(0.1 -0.1)">
       <defs>
        <path d="M 17.671875 38.8125 
Q 12.203125 40.828125 9.5625 44.53125 
Q 6.9375 48.25 6.9375 53.421875 
Q 6.9375 61.234375 12.546875 66.546875 
Q 18.171875 71.875 27.484375 71.875 
Q 36.859375 71.875 42.578125 66.421875 
Q 48.296875 60.984375 48.296875 53.171875 
Q 48.296875 48.1875 45.671875 44.5 
Q 43.0625 40.828125 37.75 38.8125 
Q 44.34375 36.671875 47.78125 31.875 
Q 51.21875 27.09375 51.21875 20.453125 
Q 51.21875 11.28125 44.71875 5.03125 
Q 38.234375 -1.21875 27.640625 -1.21875 
Q 17.046875 -1.21875 10.546875 5.046875 
Q 4.046875 11.328125 4.046875 20.703125 
Q 4.046875 27.6875 7.59375 32.390625 
Q 11.140625 37.109375 17.671875 38.8125 
z
M 15.921875 53.71875 
Q 15.921875 48.640625 19.1875 45.40625 
Q 22.46875 42.1875 27.6875 42.1875 
Q 32.765625 42.1875 36.015625 45.375 
Q 39.265625 48.578125 39.265625 53.21875 
Q 39.265625 58.0625 35.90625 61.359375 
Q 32.5625 64.65625 27.59375 64.65625 
Q 22.5625 64.65625 19.234375 61.421875 
Q 15.921875 58.203125 15.921875 53.71875 
z
M 13.09375 20.65625 
Q 13.09375 16.890625 14.875 13.375 
Q 16.65625 9.859375 20.171875 7.921875 
Q 23.6875 6 27.734375 6 
Q 34.03125 6 38.125 10.046875 
Q 42.234375 14.109375 42.234375 20.359375 
Q 42.234375 26.703125 38.015625 30.859375 
Q 33.796875 35.015625 27.4375 35.015625 
Q 21.234375 35.015625 17.15625 30.90625 
Q 13.09375 26.8125 13.09375 20.65625 
z
" id="ArialMT-56"/>
       </defs>
       <use xlink:href="#ArialMT-56"/>
       <use x="55.615234" xlink:href="#ArialMT-48"/>
       <use x="111.230469" xlink:href="#ArialMT-48"/>
      </g>
     </g>
    </g>
    <g id="xtick_6">
     <g id="line2d_11">
      <path clip-path="url(#p11d9ea338f)" d="M 373.886486 252 
L 373.886486 34.56 
" style="fill:none;stroke:#cccccc;stroke-linecap:round;stroke-width:0.8;"/>
     </g>
     <g id="line2d_12"/>
     <g id="text_6">
      <!-- 1000 -->
      <g style="fill:#262626;" transform="translate(362.764611 262.657812)scale(0.1 -0.1)">
       <defs>
        <path d="M 37.25 0 
L 28.46875 0 
L 28.46875 56 
Q 25.296875 52.984375 20.140625 49.953125 
Q 14.984375 46.921875 10.890625 45.40625 
L 10.890625 53.90625 
Q 18.265625 57.375 23.78125 62.296875 
Q 29.296875 67.234375 31.59375 71.875 
L 37.25 71.875 
z
" id="ArialMT-49"/>
       </defs>
       <use xlink:href="#ArialMT-49"/>
       <use x="55.615234" xlink:href="#ArialMT-48"/>
       <use x="111.230469" xlink:href="#ArialMT-48"/>
       <use x="166.845703" xlink:href="#ArialMT-48"/>
      </g>
     </g>
    </g>
    <g id="text_7">
     <!-- Epoch -->
     <g style="fill:#262626;" transform="translate(207.223438 275.803125)scale(0.1 -0.1)">
      <defs>
       <path d="M 7.90625 0 
L 7.90625 71.578125 
L 59.671875 71.578125 
L 59.671875 63.140625 
L 17.390625 63.140625 
L 17.390625 41.21875 
L 56.984375 41.21875 
L 56.984375 32.8125 
L 17.390625 32.8125 
L 17.390625 8.453125 
L 61.328125 8.453125 
L 61.328125 0 
z
" id="ArialMT-69"/>
       <path d="M 6.59375 -19.875 
L 6.59375 51.859375 
L 14.59375 51.859375 
L 14.59375 45.125 
Q 17.4375 49.078125 21 51.046875 
Q 24.5625 53.03125 29.640625 53.03125 
Q 36.28125 53.03125 41.359375 49.609375 
Q 46.4375 46.1875 49.015625 39.953125 
Q 51.609375 33.734375 51.609375 26.3125 
Q 51.609375 18.359375 48.75 11.984375 
Q 45.90625 5.609375 40.453125 2.21875 
Q 35.015625 -1.171875 29 -1.171875 
Q 24.609375 -1.171875 21.109375 0.6875 
Q 17.625 2.546875 15.375 5.375 
L 15.375 -19.875 
z
M 14.546875 25.640625 
Q 14.546875 15.625 18.59375 10.84375 
Q 22.65625 6.0625 28.421875 6.0625 
Q 34.28125 6.0625 38.453125 11.015625 
Q 42.625 15.96875 42.625 26.375 
Q 42.625 36.28125 38.546875 41.203125 
Q 34.46875 46.140625 28.8125 46.140625 
Q 23.1875 46.140625 18.859375 40.890625 
Q 14.546875 35.640625 14.546875 25.640625 
z
" id="ArialMT-112"/>
       <path d="M 3.328125 25.921875 
Q 3.328125 40.328125 11.328125 47.265625 
Q 18.015625 53.03125 27.640625 53.03125 
Q 38.328125 53.03125 45.109375 46.015625 
Q 51.90625 39.015625 51.90625 26.65625 
Q 51.90625 16.65625 48.90625 10.90625 
Q 45.90625 5.171875 40.15625 2 
Q 34.421875 -1.171875 27.640625 -1.171875 
Q 16.75 -1.171875 10.03125 5.8125 
Q 3.328125 12.796875 3.328125 25.921875 
z
M 12.359375 25.921875 
Q 12.359375 15.96875 16.703125 11.015625 
Q 21.046875 6.0625 27.640625 6.0625 
Q 34.1875 6.0625 38.53125 11.03125 
Q 42.875 16.015625 42.875 26.21875 
Q 42.875 35.84375 38.5 40.796875 
Q 34.125 45.75 27.640625 45.75 
Q 21.046875 45.75 16.703125 40.8125 
Q 12.359375 35.890625 12.359375 25.921875 
z
" id="ArialMT-111"/>
       <path d="M 40.4375 19 
L 49.078125 17.875 
Q 47.65625 8.9375 41.8125 3.875 
Q 35.984375 -1.171875 27.484375 -1.171875 
Q 16.84375 -1.171875 10.375 5.78125 
Q 3.90625 12.75 3.90625 25.734375 
Q 3.90625 34.125 6.6875 40.421875 
Q 9.46875 46.734375 15.15625 49.875 
Q 20.84375 53.03125 27.546875 53.03125 
Q 35.984375 53.03125 41.359375 48.75 
Q 46.734375 44.484375 48.25 36.625 
L 39.703125 35.296875 
Q 38.484375 40.53125 35.375 43.15625 
Q 32.28125 45.796875 27.875 45.796875 
Q 21.234375 45.796875 17.078125 41.03125 
Q 12.9375 36.28125 12.9375 25.984375 
Q 12.9375 15.53125 16.9375 10.796875 
Q 20.953125 6.0625 27.390625 6.0625 
Q 32.5625 6.0625 36.03125 9.234375 
Q 39.5 12.40625 40.4375 19 
z
" id="ArialMT-99"/>
       <path d="M 6.59375 0 
L 6.59375 71.578125 
L 15.375 71.578125 
L 15.375 45.90625 
Q 21.53125 53.03125 30.90625 53.03125 
Q 36.671875 53.03125 40.921875 50.75 
Q 45.171875 48.484375 47 44.484375 
Q 48.828125 40.484375 48.828125 32.859375 
L 48.828125 0 
L 40.046875 0 
L 40.046875 32.859375 
Q 40.046875 39.453125 37.1875 42.453125 
Q 34.328125 45.453125 29.109375 45.453125 
Q 25.203125 45.453125 21.75 43.421875 
Q 18.3125 41.40625 16.84375 37.9375 
Q 15.375 34.46875 15.375 28.375 
L 15.375 0 
z
" id="ArialMT-104"/>
      </defs>
      <use xlink:href="#ArialMT-69"/>
      <use x="66.699219" xlink:href="#ArialMT-112"/>
      <use x="122.314453" xlink:href="#ArialMT-111"/>
      <use x="177.929688" xlink:href="#ArialMT-99"/>
      <use x="227.929688" xlink:href="#ArialMT-104"/>
     </g>
    </g>
   </g>
   <g id="matplotlib.axis_2">
    <g id="ytick_1">
     <g id="line2d_13">
      <path clip-path="url(#p11d9ea338f)" d="M 54 246.505659 
L 388.8 246.505659 
" style="fill:none;stroke:#cccccc;stroke-linecap:round;stroke-width:0.8;"/>
     </g>
     <g id="line2d_14"/>
     <g id="text_8">
      <!-- $\mathdefault{10^{-3}}$ -->
      <g style="fill:#262626;" transform="translate(30.7 251.661909)scale(0.1 -0.1)">
       <defs>
        <path d="M 52.828125 31.203125 
L 5.5625 31.203125 
L 5.5625 39.40625 
L 52.828125 39.40625 
z
" id="ArialMT-8722"/>
        <path d="M 4.203125 18.890625 
L 12.984375 20.0625 
Q 14.5 12.59375 18.140625 9.296875 
Q 21.78125 6 27 6 
Q 33.203125 6 37.46875 10.296875 
Q 41.75 14.59375 41.75 20.953125 
Q 41.75 27 37.796875 30.921875 
Q 33.84375 34.859375 27.734375 34.859375 
Q 25.25 34.859375 21.53125 33.890625 
L 22.515625 41.609375 
Q 23.390625 41.5 23.921875 41.5 
Q 29.546875 41.5 34.03125 44.421875 
Q 38.53125 47.359375 38.53125 53.46875 
Q 38.53125 58.296875 35.25 61.46875 
Q 31.984375 64.65625 26.8125 64.65625 
Q 21.6875 64.65625 18.265625 61.421875 
Q 14.84375 58.203125 13.875 51.765625 
L 5.078125 53.328125 
Q 6.6875 62.15625 12.390625 67.015625 
Q 18.109375 71.875 26.609375 71.875 
Q 32.46875 71.875 37.390625 69.359375 
Q 42.328125 66.84375 44.9375 62.5 
Q 47.5625 58.15625 47.5625 53.265625 
Q 47.5625 48.640625 45.0625 44.828125 
Q 42.578125 41.015625 37.703125 38.765625 
Q 44.046875 37.3125 47.5625 32.6875 
Q 51.078125 28.078125 51.078125 21.140625 
Q 51.078125 11.765625 44.234375 5.25 
Q 37.40625 -1.265625 26.953125 -1.265625 
Q 17.53125 -1.265625 11.296875 4.34375 
Q 5.078125 9.96875 4.203125 18.890625 
z
" id="ArialMT-51"/>
       </defs>
       <use transform="translate(0 0.99375)" xlink:href="#ArialMT-49"/>
       <use transform="translate(55.615234 0.99375)" xlink:href="#ArialMT-48"/>
       <use transform="translate(112.972813 70.6875)scale(0.7)" xlink:href="#ArialMT-8722"/>
       <use transform="translate(153.851719 70.6875)scale(0.7)" xlink:href="#ArialMT-51"/>
      </g>
     </g>
    </g>
    <g id="ytick_2">
     <g id="line2d_15">
      <path clip-path="url(#p11d9ea338f)" d="M 54 182.866084 
L 388.8 182.866084 
" style="fill:none;stroke:#cccccc;stroke-linecap:round;stroke-width:0.8;"/>
     </g>
     <g id="line2d_16"/>
     <g id="text_9">
      <!-- $\mathdefault{10^{-2}}$ -->
      <g style="fill:#262626;" transform="translate(30.7 188.022334)scale(0.1 -0.1)">
       <use transform="translate(0 0.99375)" xlink:href="#ArialMT-49"/>
       <use transform="translate(55.615234 0.99375)" xlink:href="#ArialMT-48"/>
       <use transform="translate(112.972813 70.6875)scale(0.7)" xlink:href="#ArialMT-8722"/>
       <use transform="translate(153.851719 70.6875)scale(0.7)" xlink:href="#ArialMT-50"/>
      </g>
     </g>
    </g>
    <g id="ytick_3">
     <g id="line2d_17">
      <path clip-path="url(#p11d9ea338f)" d="M 54 119.226508 
L 388.8 119.226508 
" style="fill:none;stroke:#cccccc;stroke-linecap:round;stroke-width:0.8;"/>
     </g>
     <g id="line2d_18"/>
     <g id="text_10">
      <!-- $\mathdefault{10^{-1}}$ -->
      <g style="fill:#262626;" transform="translate(30.7 124.382758)scale(0.1 -0.1)">
       <use transform="translate(0 0.99375)" xlink:href="#ArialMT-49"/>
       <use transform="translate(55.615234 0.99375)" xlink:href="#ArialMT-48"/>
       <use transform="translate(112.972813 70.6875)scale(0.7)" xlink:href="#ArialMT-8722"/>
       <use transform="translate(153.851719 70.6875)scale(0.7)" xlink:href="#ArialMT-49"/>
      </g>
     </g>
    </g>
    <g id="ytick_4">
     <g id="line2d_19">
      <path clip-path="url(#p11d9ea338f)" d="M 54 55.586933 
L 388.8 55.586933 
" style="fill:none;stroke:#cccccc;stroke-linecap:round;stroke-width:0.8;"/>
     </g>
     <g id="line2d_20"/>
     <g id="text_11">
      <!-- $\mathdefault{10^{0}}$ -->
      <g style="fill:#262626;" transform="translate(34.8 60.743183)scale(0.1 -0.1)">
       <use transform="translate(0 0.99375)" xlink:href="#ArialMT-49"/>
       <use transform="translate(55.615234 0.99375)" xlink:href="#ArialMT-48"/>
       <use transform="translate(112.972813 70.6875)scale(0.7)" xlink:href="#ArialMT-48"/>
      </g>
     </g>
    </g>
    <g id="ytick_5">
     <g id="line2d_21"/>
    </g>
    <g id="ytick_6">
     <g id="line2d_22"/>
    </g>
    <g id="ytick_7">
     <g id="line2d_23"/>
    </g>
    <g id="ytick_8">
     <g id="line2d_24"/>
    </g>
    <g id="ytick_9">
     <g id="line2d_25"/>
    </g>
    <g id="ytick_10">
     <g id="line2d_26"/>
    </g>
    <g id="ytick_11">
     <g id="line2d_27"/>
    </g>
    <g id="ytick_12">
     <g id="line2d_28"/>
    </g>
    <g id="ytick_13">
     <g id="line2d_29"/>
    </g>
    <g id="ytick_14">
     <g id="line2d_30"/>
    </g>
    <g id="ytick_15">
     <g id="line2d_31"/>
    </g>
    <g id="ytick_16">
     <g id="line2d_32"/>
    </g>
    <g id="ytick_17">
     <g id="line2d_33"/>
    </g>
    <g id="ytick_18">
     <g id="line2d_34"/>
    </g>
    <g id="ytick_19">
     <g id="line2d_35"/>
    </g>
    <g id="ytick_20">
     <g id="line2d_36"/>
    </g>
    <g id="ytick_21">
     <g id="line2d_37"/>
    </g>
    <g id="ytick_22">
     <g id="line2d_38"/>
    </g>
    <g id="ytick_23">
     <g id="line2d_39"/>
    </g>
    <g id="ytick_24">
     <g id="line2d_40"/>
    </g>
    <g id="ytick_25">
     <g id="line2d_41"/>
    </g>
    <g id="ytick_26">
     <g id="line2d_42"/>
    </g>
    <g id="ytick_27">
     <g id="line2d_43"/>
    </g>
    <g id="ytick_28">
     <g id="line2d_44"/>
    </g>
    <g id="ytick_29">
     <g id="line2d_45"/>
    </g>
    <g id="ytick_30">
     <g id="line2d_46"/>
    </g>
    <g id="text_12">
     <!-- Loss -->
     <g style="fill:#262626;" transform="translate(24.7125 153.840937)rotate(-90)scale(0.1 -0.1)">
      <defs>
       <path d="M 7.328125 0 
L 7.328125 71.578125 
L 16.796875 71.578125 
L 16.796875 8.453125 
L 52.046875 8.453125 
L 52.046875 0 
z
" id="ArialMT-76"/>
       <path d="M 3.078125 15.484375 
L 11.765625 16.84375 
Q 12.5 11.625 15.84375 8.84375 
Q 19.1875 6.0625 25.203125 6.0625 
Q 31.25 6.0625 34.171875 8.515625 
Q 37.109375 10.984375 37.109375 14.3125 
Q 37.109375 17.28125 34.515625 19 
Q 32.71875 20.171875 25.53125 21.96875 
Q 15.875 24.421875 12.140625 26.203125 
Q 8.40625 27.984375 6.46875 31.125 
Q 4.546875 34.28125 4.546875 38.09375 
Q 4.546875 41.546875 6.125 44.5 
Q 7.71875 47.46875 10.453125 49.421875 
Q 12.5 50.921875 16.03125 51.96875 
Q 19.578125 53.03125 23.640625 53.03125 
Q 29.734375 53.03125 34.34375 51.265625 
Q 38.96875 49.515625 41.15625 46.5 
Q 43.359375 43.5 44.1875 38.484375 
L 35.59375 37.3125 
Q 35.015625 41.3125 32.203125 43.546875 
Q 29.390625 45.796875 24.265625 45.796875 
Q 18.21875 45.796875 15.625 43.796875 
Q 13.03125 41.796875 13.03125 39.109375 
Q 13.03125 37.40625 14.109375 36.03125 
Q 15.1875 34.625 17.484375 33.6875 
Q 18.796875 33.203125 25.25 31.453125 
Q 34.578125 28.953125 38.25 27.359375 
Q 41.9375 25.78125 44.03125 22.75 
Q 46.140625 19.734375 46.140625 15.234375 
Q 46.140625 10.84375 43.578125 6.953125 
Q 41.015625 3.078125 36.171875 0.953125 
Q 31.34375 -1.171875 25.25 -1.171875 
Q 15.140625 -1.171875 9.84375 3.03125 
Q 4.546875 7.234375 3.078125 15.484375 
z
" id="ArialMT-115"/>
      </defs>
      <use xlink:href="#ArialMT-76"/>
      <use x="55.615234" xlink:href="#ArialMT-111"/>
      <use x="111.230469" xlink:href="#ArialMT-115"/>
      <use x="161.230469" xlink:href="#ArialMT-115"/>
     </g>
    </g>
   </g>
   <g id="line2d_47">
    <path clip-path="url(#p11d9ea338f)" d="M 69.218182 137.509121 
L 69.52285 159.230227 
L 69.827518 141.19452 
L 70.132187 110.986233 
L 70.436855 154.728846 
L 70.741523 153.722823 
L 71.046192 180.955044 
L 71.35086 186.531142 
L 71.655528 201.860739 
L 71.960197 172.75133 
L 72.264865 167.299492 
L 72.569533 166.749463 
L 72.874201 207.108032 
L 73.17887 155.436435 
L 73.483538 170.981979 
L 73.788206 149.895666 
L 74.092875 168.358838 
L 74.397543 197.556038 
L 75.00688 133.645576 
L 75.616216 170.233833 
L 75.920885 164.639233 
L 76.225553 163.611812 
L 76.530221 170.451848 
L 76.834889 143.732646 
L 77.444226 196.607296 
L 77.748894 137.170067 
L 78.053563 170.785688 
L 78.358231 168.186337 
L 78.662899 170.579807 
L 78.967568 178.597513 
L 79.272236 85.974241 
L 79.576904 207.677089 
L 79.881572 173.876775 
L 80.186241 166.891324 
L 80.490909 179.024456 
L 80.795577 184.813761 
L 81.100246 178.739423 
L 81.404914 145.764946 
L 81.709582 181.875217 
L 82.014251 169.362703 
L 82.318919 182.491257 
L 82.928256 166.423236 
L 83.232924 168.336829 
L 83.537592 172.077195 
L 83.84226 166.672424 
L 84.146929 175.844659 
L 84.451597 122.761132 
L 84.756265 172.062498 
L 85.060934 173.372323 
L 85.365602 158.246822 
L 85.67027 175.853092 
L 85.974939 155.913542 
L 86.279607 176.188996 
L 86.584275 157.975418 
L 86.888943 185.234296 
L 87.193612 171.756751 
L 87.49828 194.381806 
L 87.802948 169.958674 
L 88.107617 175.152667 
L 88.412285 150.77105 
L 88.716953 151.447957 
L 89.021622 150.186096 
L 89.32629 149.625673 
L 89.630958 166.645604 
L 89.935627 157.668276 
L 90.240295 162.199482 
L 90.544963 177.627457 
L 90.849631 166.354459 
L 91.1543 182.337559 
L 91.458968 161.765979 
L 91.763636 171.645591 
L 92.068305 161.691387 
L 92.372973 161.353474 
L 92.677641 180.036801 
L 92.98231 157.518614 
L 93.286978 165.334093 
L 93.591646 167.571841 
L 93.896314 142.896535 
L 94.200983 178.674186 
L 94.505651 152.768356 
L 94.810319 152.384807 
L 95.114988 174.889826 
L 95.419656 177.394921 
L 96.028993 166.960834 
L 96.333661 170.551622 
L 96.638329 165.605249 
L 96.942998 172.025964 
L 97.247666 166.915469 
L 97.552334 171.235669 
L 97.857002 161.406321 
L 98.161671 173.822487 
L 98.466339 173.876572 
L 98.771007 171.271815 
L 99.075676 169.756522 
L 99.380344 162.590593 
L 99.685012 166.558324 
L 99.989681 168.281214 
L 100.294349 174.701952 
L 100.599017 157.885266 
L 100.903686 177.079816 
L 101.208354 158.387431 
L 101.513022 177.644707 
L 101.81769 155.856639 
L 102.122359 159.544129 
L 102.427027 170.524433 
L 102.731695 172.476829 
L 103.341032 153.915559 
L 103.950369 174.104734 
L 104.255037 162.658379 
L 104.559705 170.427085 
L 104.864373 185.665749 
L 105.169042 164.881665 
L 105.47371 175.037734 
L 105.778378 173.716473 
L 106.083047 190.333882 
L 106.387715 165.670702 
L 106.692383 166.424454 
L 106.997052 169.322242 
L 107.30172 165.836966 
L 107.606388 166.300987 
L 108.215725 170.828602 
L 108.520393 154.050094 
L 108.825061 173.970002 
L 109.12973 167.998739 
L 109.434398 166.212691 
L 109.739066 180.341219 
L 110.348403 163.407801 
L 110.653071 162.117669 
L 110.95774 163.536404 
L 111.262408 155.168505 
L 111.567076 167.852575 
L 111.871744 168.215411 
L 112.176413 166.792685 
L 112.785749 178.510298 
L 113.090418 167.660172 
L 113.395086 185.174838 
L 113.699754 169.988501 
L 114.004423 168.989137 
L 114.309091 177.217092 
L 114.613759 181.562477 
L 114.918428 174.727631 
L 115.223096 149.070966 
L 115.527764 178.620592 
L 115.832432 170.896696 
L 116.137101 174.483847 
L 116.441769 161.097392 
L 117.051106 170.207374 
L 117.355774 183.249331 
L 117.660442 173.157994 
L 117.965111 179.352915 
L 118.269779 171.19979 
L 118.574447 176.65377 
L 118.879115 157.421602 
L 119.183784 177.166613 
L 119.488452 170.441296 
L 119.79312 171.954744 
L 120.097789 166.810394 
L 120.402457 165.182658 
L 120.707125 179.343608 
L 121.011794 168.968021 
L 121.316462 180.606095 
L 121.62113 162.15195 
L 121.925799 175.243951 
L 122.230467 175.405984 
L 122.535135 185.767169 
L 122.839803 168.256805 
L 123.144472 161.372173 
L 123.44914 177.436674 
L 123.753808 182.010349 
L 124.058477 173.271916 
L 124.363145 172.7866 
L 124.667813 188.250321 
L 124.972482 174.027287 
L 125.27715 178.650068 
L 125.581818 166.297477 
L 125.886486 179.64161 
L 126.191155 166.878647 
L 126.495823 166.726039 
L 126.800491 181.026788 
L 127.10516 166.777837 
L 127.409828 169.935636 
L 127.714496 169.60676 
L 128.019165 176.642052 
L 128.628501 172.21163 
L 128.93317 176.506958 
L 129.237838 168.267811 
L 129.847174 183.105987 
L 130.151843 182.363308 
L 130.761179 169.865533 
L 131.065848 168.237956 
L 131.370516 178.485438 
L 131.675184 179.897171 
L 131.979853 186.864593 
L 132.284521 183.279722 
L 132.589189 166.168612 
L 132.893857 169.721143 
L 133.198526 182.270152 
L 133.503194 170.183971 
L 133.807862 188.708177 
L 134.112531 182.917946 
L 134.417199 173.460119 
L 134.721867 187.332167 
L 135.026536 189.584088 
L 135.635872 172.456361 
L 135.940541 190.911438 
L 136.245209 194.093517 
L 136.549877 153.643279 
L 136.854545 133.372324 
L 137.159214 173.056201 
L 137.463882 165.436892 
L 137.76855 182.562847 
L 138.073219 166.958617 
L 138.377887 185.524105 
L 138.682555 189.10462 
L 138.987224 176.721673 
L 139.291892 188.866226 
L 139.59656 186.824819 
L 139.901229 193.319894 
L 140.510565 177.354673 
L 140.815233 180.033434 
L 141.119902 184.635874 
L 141.42457 182.123544 
L 141.729238 181.641889 
L 142.033907 179.265632 
L 142.338575 185.837515 
L 142.643243 180.050532 
L 142.947912 187.317095 
L 143.25258 139.74541 
L 143.557248 171.935148 
L 143.861916 167.546362 
L 144.166585 190.829751 
L 144.471253 195.339948 
L 144.775921 186.863452 
L 145.08059 192.401662 
L 145.689926 179.681364 
L 145.994595 194.717662 
L 146.299263 180.621882 
L 146.603931 184.305773 
L 146.9086 191.07081 
L 147.213268 185.412622 
L 147.517936 159.633324 
L 147.822604 151.652999 
L 148.127273 176.31409 
L 148.431941 180.063917 
L 148.736609 187.65622 
L 149.041278 198.911924 
L 149.345946 184.162401 
L 149.650614 197.403848 
L 149.955283 180.427077 
L 150.259951 190.819266 
L 150.564619 188.876839 
L 150.869287 196.803244 
L 151.173956 179.7285 
L 151.478624 201.83458 
L 151.783292 197.443682 
L 152.087961 191.142438 
L 152.392629 190.796429 
L 152.697297 203.695583 
L 153.001966 208.820333 
L 153.306634 189.296664 
L 153.611302 188.351635 
L 153.915971 170.144415 
L 154.220639 181.851314 
L 154.525307 184.06347 
L 154.829975 202.656892 
L 155.134644 191.030559 
L 155.439312 164.792579 
L 155.74398 192.926163 
L 156.048649 186.892578 
L 156.353317 204.606252 
L 156.657985 173.310277 
L 156.962654 161.600727 
L 157.267322 197.765293 
L 157.57199 196.162815 
L 157.876658 159.337157 
L 158.181327 211.78486 
L 158.485995 145.836415 
L 159.095332 192.099308 
L 159.4 185.722701 
L 159.704668 171.317692 
L 160.009337 197.906858 
L 160.314005 191.528267 
L 160.618673 194.327552 
L 160.923342 182.668572 
L 161.22801 192.274815 
L 161.532678 195.200733 
L 161.837346 167.325706 
L 162.142015 189.094982 
L 162.446683 189.915124 
L 162.751351 179.763864 
L 163.360688 194.601025 
L 163.665356 196.641307 
L 163.970025 189.91696 
L 164.274693 188.831919 
L 164.579361 194.235771 
L 164.884029 193.143165 
L 165.188698 191.564579 
L 165.493366 203.486964 
L 165.798034 202.857093 
L 166.407371 195.562049 
L 166.712039 200.811535 
L 167.016708 185.618896 
L 167.321376 211.536912 
L 167.930713 168.648675 
L 168.235381 186.691634 
L 168.540049 197.728439 
L 168.844717 174.643405 
L 169.149386 202.273386 
L 169.454054 201.884013 
L 169.758722 164.291857 
L 170.063391 195.568303 
L 170.368059 184.465159 
L 170.977396 207.623924 
L 171.282064 197.752865 
L 171.586732 195.786367 
L 171.8914 200.116912 
L 172.196069 191.164006 
L 172.500737 193.667368 
L 172.805405 95.252033 
L 173.110074 104.058715 
L 173.414742 165.570494 
L 173.71941 166.485101 
L 174.024079 159.54524 
L 174.328747 192.997577 
L 174.633415 155.042684 
L 174.938084 187.103982 
L 175.242752 187.971257 
L 175.54742 178.772979 
L 175.852088 136.750762 
L 176.156757 188.348861 
L 176.461425 193.965383 
L 176.766093 191.797705 
L 177.070762 184.797151 
L 177.37543 183.604425 
L 177.680098 183.626784 
L 177.984767 183.208118 
L 178.289435 187.083088 
L 178.594103 193.113669 
L 178.898771 192.11782 
L 179.20344 183.702845 
L 179.508108 187.252066 
L 179.812776 193.021067 
L 180.117445 183.412878 
L 180.422113 191.202647 
L 180.726781 182.637557 
L 181.03145 198.032382 
L 181.336118 191.696382 
L 181.640786 189.876897 
L 181.945455 189.062149 
L 182.250123 192.88815 
L 182.554791 203.691838 
L 182.859459 196.845272 
L 183.164128 183.227612 
L 183.468796 183.467978 
L 183.773464 180.23645 
L 184.078133 183.33639 
L 184.382801 198.273119 
L 184.687469 202.740107 
L 184.992138 186.158185 
L 185.296806 200.874616 
L 185.601474 196.630817 
L 185.906143 195.56299 
L 186.210811 184.034168 
L 186.515479 148.895981 
L 186.820147 194.697508 
L 187.124816 197.722976 
L 187.429484 199.518355 
L 187.734152 195.005985 
L 188.343489 199.575361 
L 188.648157 191.847955 
L 188.952826 198.654483 
L 189.257494 183.146658 
L 189.562162 201.344511 
L 190.171499 193.553793 
L 190.476167 171.79348 
L 191.085504 197.631131 
L 191.390172 194.082378 
L 191.69484 185.950307 
L 191.999509 189.904453 
L 192.304177 189.813011 
L 192.608845 196.520603 
L 192.913514 192.960833 
L 193.218182 192.391199 
L 193.52285 205.813632 
L 193.827518 192.516903 
L 194.132187 198.190615 
L 194.436855 196.125553 
L 194.741523 145.190116 
L 195.046192 183.855164 
L 195.35086 171.980803 
L 195.655528 198.317695 
L 195.960197 194.080214 
L 196.264865 191.936696 
L 196.569533 193.118101 
L 196.874201 189.762505 
L 197.17887 202.110585 
L 197.483538 191.058551 
L 197.788206 196.057078 
L 198.092875 163.36506 
L 198.397543 197.072043 
L 198.702211 205.524958 
L 199.00688 198.434852 
L 199.311548 198.408831 
L 199.616216 190.393652 
L 199.920885 200.321707 
L 200.225553 189.804959 
L 200.530221 191.989609 
L 200.834889 191.511252 
L 201.139558 181.934828 
L 201.444226 192.459568 
L 201.748894 212.466114 
L 202.053563 189.367529 
L 202.358231 198.240433 
L 202.662899 162.286036 
L 202.967568 193.778931 
L 203.272236 179.114386 
L 203.576904 196.976006 
L 203.881572 195.359181 
L 204.186241 196.257338 
L 204.490909 178.168529 
L 204.795577 203.500968 
L 205.100246 185.548819 
L 205.404914 205.176337 
L 205.709582 187.185698 
L 206.014251 185.369204 
L 206.318919 195.875676 
L 206.623587 195.503185 
L 206.928256 202.551395 
L 207.232924 194.999164 
L 207.537592 192.093848 
L 207.84226 182.273119 
L 208.146929 176.642252 
L 208.451597 187.95261 
L 208.756265 208.797046 
L 209.060934 195.025907 
L 209.67027 192.403602 
L 209.974939 204.344181 
L 210.279607 192.286502 
L 210.584275 196.391244 
L 210.888943 198.056595 
L 211.193612 201.005816 
L 211.49828 155.552838 
L 211.802948 203.68747 
L 212.107617 204.256572 
L 212.412285 207.359914 
L 213.021622 199.679887 
L 213.32629 193.467705 
L 213.630958 214.637223 
L 213.935627 214.513466 
L 214.240295 195.548532 
L 214.544963 208.58971 
L 214.849631 205.124569 
L 215.1543 211.354022 
L 215.458968 190.90833 
L 215.763636 211.898424 
L 216.068305 207.541451 
L 216.372973 188.069347 
L 216.677641 220.06461 
L 216.98231 215.571584 
L 217.286978 200.732774 
L 217.591646 179.72341 
L 217.896314 86.49104 
L 218.200983 153.515407 
L 218.505651 141.480821 
L 219.114988 153.062796 
L 219.419656 161.962016 
L 219.724324 163.517505 
L 220.028993 166.235103 
L 220.333661 159.553018 
L 220.942998 175.532601 
L 221.247666 170.928164 
L 221.552334 183.94927 
L 221.857002 163.854211 
L 222.161671 173.6107 
L 222.771007 182.043956 
L 223.075676 179.875973 
L 223.380344 180.851625 
L 223.685012 181.425584 
L 223.989681 188.081066 
L 224.599017 196.212491 
L 224.903686 182.199151 
L 225.208354 197.450229 
L 225.513022 199.687611 
L 225.81769 196.801535 
L 226.122359 186.811461 
L 226.427027 190.212663 
L 226.731695 162.511355 
L 227.036364 194.987316 
L 227.341032 188.755188 
L 227.6457 199.933964 
L 227.950369 199.459933 
L 228.255037 205.169939 
L 228.559705 195.119536 
L 228.864373 206.88148 
L 229.47371 187.445643 
L 229.778378 203.410286 
L 230.083047 202.614522 
L 230.387715 159.518467 
L 230.692383 209.157583 
L 230.997052 200.435912 
L 231.30172 199.181763 
L 231.606388 214.724027 
L 231.911057 189.840288 
L 232.215725 203.201027 
L 232.520393 171.164495 
L 232.825061 201.701291 
L 233.434398 195.316097 
L 233.739066 190.053021 
L 234.043735 207.192477 
L 234.348403 190.260158 
L 234.653071 203.228564 
L 234.95774 209.506354 
L 235.262408 204.164435 
L 235.567076 183.546602 
L 235.871744 186.643173 
L 236.176413 210.228696 
L 236.481081 196.701692 
L 236.785749 203.326816 
L 237.090418 144.908766 
L 237.395086 200.279531 
L 237.699754 192.813816 
L 238.004423 205.273521 
L 238.309091 208.901185 
L 238.613759 203.525222 
L 238.918428 203.384805 
L 239.223096 203.887704 
L 239.527764 193.779509 
L 239.832432 214.329006 
L 240.137101 216.314907 
L 240.441769 212.035976 
L 240.746437 175.37073 
L 241.051106 174.956509 
L 241.355774 142.599547 
L 241.660442 196.135008 
L 241.965111 186.674207 
L 242.269779 190.925993 
L 242.574447 205.650528 
L 242.879115 201.780466 
L 243.183784 191.878068 
L 243.488452 206.080888 
L 243.79312 205.868125 
L 244.097789 201.527806 
L 244.402457 206.784703 
L 244.707125 207.347841 
L 245.011794 190.938073 
L 245.316462 221.911292 
L 245.62113 207.088797 
L 245.925799 207.722498 
L 246.230467 206.398324 
L 246.535135 195.521355 
L 246.839803 217.198596 
L 247.144472 205.688617 
L 247.44914 202.326806 
L 247.753808 179.450182 
L 248.058477 210.295119 
L 248.363145 181.122383 
L 248.667813 213.646354 
L 248.972482 193.415873 
L 249.27715 211.518036 
L 249.581818 212.218145 
L 250.191155 169.350834 
L 250.495823 224.061229 
L 250.800491 204.425346 
L 251.10516 207.676555 
L 251.409828 215.304138 
L 251.714496 215.635623 
L 252.019165 208.547348 
L 252.323833 208.930322 
L 252.628501 219.733317 
L 253.237838 208.567012 
L 253.542506 195.60158 
L 253.847174 228.094858 
L 254.151843 230.974973 
L 254.456511 202.859644 
L 254.761179 220.333454 
L 255.065848 190.613796 
L 255.370516 177.320648 
L 255.675184 44.443636 
L 255.979853 107.396432 
L 256.589189 161.920321 
L 256.893857 139.03027 
L 257.198526 142.310938 
L 257.503194 149.346006 
L 257.807862 151.502924 
L 258.417199 163.831664 
L 258.721867 165.177074 
L 259.026536 161.047982 
L 259.635872 180.792763 
L 259.940541 170.909768 
L 260.245209 181.670651 
L 260.549877 167.085514 
L 260.854545 169.711639 
L 261.159214 175.522298 
L 261.463882 166.79734 
L 261.76855 175.145696 
L 262.377887 175.050724 
L 262.682555 176.724281 
L 262.987224 170.795478 
L 263.59656 188.813709 
L 263.901229 178.30486 
L 264.205897 181.106853 
L 264.510565 181.786184 
L 264.815233 174.566301 
L 265.119902 193.823798 
L 265.42457 182.734699 
L 265.729238 208.324915 
L 266.033907 192.967044 
L 266.338575 183.638228 
L 266.643243 178.061619 
L 266.947912 184.008609 
L 267.25258 180.129515 
L 267.557248 202.158066 
L 267.861916 187.999596 
L 268.166585 188.040085 
L 268.471253 186.474015 
L 268.775921 185.748263 
L 269.08059 175.285005 
L 269.385258 197.157319 
L 269.994595 187.156238 
L 270.299263 174.777881 
L 270.603931 204.510417 
L 270.9086 179.951777 
L 271.213268 202.390709 
L 271.517936 192.115392 
L 271.822604 197.954808 
L 272.127273 200.103918 
L 272.431941 199.655954 
L 273.041278 189.117947 
L 273.345946 192.628998 
L 273.650614 181.980772 
L 273.955283 193.449267 
L 274.259951 183.62092 
L 274.564619 223.120962 
L 274.869287 176.534979 
L 275.173956 217.748345 
L 275.478624 206.913824 
L 275.783292 204.519588 
L 276.392629 198.439837 
L 276.697297 204.261995 
L 277.001966 183.39934 
L 277.306634 192.533766 
L 277.611302 219.740919 
L 277.915971 176.822655 
L 278.220639 217.043306 
L 278.525307 198.361009 
L 278.829975 209.52703 
L 279.134644 209.628908 
L 279.439312 187.875067 
L 279.74398 211.037535 
L 280.048649 188.041203 
L 280.353317 184.356497 
L 280.657985 201.243633 
L 280.962654 199.349957 
L 281.267322 204.156264 
L 281.57199 203.911254 
L 281.876658 187.205864 
L 282.181327 156.429593 
L 282.485995 211.077393 
L 282.790663 158.799142 
L 283.095332 215.367081 
L 283.4 192.792792 
L 283.704668 201.970874 
L 284.009337 184.327876 
L 284.314005 186.111806 
L 284.618673 209.873313 
L 284.923342 190.788742 
L 285.22801 206.89016 
L 285.532678 205.337489 
L 285.837346 202.381285 
L 286.142015 210.119221 
L 286.446683 188.078652 
L 286.751351 199.254168 
L 287.05602 191.891656 
L 287.360688 194.884351 
L 287.665356 191.904945 
L 287.970025 211.886436 
L 288.274693 209.068405 
L 288.579361 203.01671 
L 289.493366 194.899938 
L 289.798034 188.406849 
L 290.102703 167.135662 
L 290.407371 221.057442 
L 290.712039 190.863873 
L 291.016708 211.673715 
L 291.321376 213.80267 
L 291.930713 194.976462 
L 292.235381 224.247977 
L 292.540049 182.194796 
L 293.149386 230.873737 
L 293.454054 200.862924 
L 293.758722 183.445791 
L 294.063391 196.583434 
L 294.368059 182.107858 
L 294.672727 191.522003 
L 294.977396 212.617295 
L 295.282064 184.105888 
L 295.586732 191.26215 
L 296.196069 194.214337 
L 296.500737 189.062831 
L 296.805405 188.076459 
L 297.414742 228.560144 
L 297.71941 204.626771 
L 298.024079 199.32172 
L 298.328747 205.514114 
L 298.633415 207.470427 
L 298.938084 182.810313 
L 299.242752 228.240082 
L 299.54742 205.145787 
L 299.852088 231.795814 
L 300.156757 210.466684 
L 300.461425 216.625614 
L 300.766093 238.691253 
L 301.070762 199.619507 
L 301.37543 223.800312 
L 302.289435 203.935555 
L 302.594103 157.376372 
L 302.898771 206.737033 
L 303.20344 198.593696 
L 303.508108 197.603688 
L 303.812776 186.176827 
L 304.117445 224.827307 
L 304.422113 204.759051 
L 304.726781 176.81319 
L 305.03145 212.307208 
L 305.336118 198.079295 
L 305.640786 196.356704 
L 305.945455 205.299535 
L 306.250123 173.473128 
L 306.554791 206.802857 
L 306.859459 191.949479 
L 307.164128 219.701789 
L 307.468796 196.643363 
L 307.773464 193.119221 
L 308.078133 203.018234 
L 308.382801 200.566525 
L 308.687469 207.518463 
L 308.992138 203.524769 
L 309.296806 205.406295 
L 309.601474 205.105633 
L 309.906143 199.3585 
L 310.210811 209.053601 
L 310.515479 196.059768 
L 310.820147 191.458555 
L 311.429484 213.431496 
L 311.734152 182.101318 
L 312.038821 216.385668 
L 312.343489 180.011517 
L 312.648157 189.312757 
L 312.952826 225.423631 
L 313.562162 164.045249 
L 313.86683 209.938733 
L 314.171499 172.099343 
L 314.476167 208.539946 
L 314.780835 198.748264 
L 315.085504 206.031089 
L 315.390172 204.989628 
L 315.69484 189.094187 
L 315.999509 214.713989 
L 316.304177 220.821605 
L 316.608845 205.69732 
L 316.913514 226.236237 
L 317.218182 158.303897 
L 317.52285 205.29313 
L 317.827518 205.998874 
L 318.132187 209.19457 
L 318.436855 214.921572 
L 319.046192 186.32268 
L 319.35086 227.560884 
L 319.655528 173.891515 
L 319.960197 188.303336 
L 320.264865 226.810597 
L 320.569533 207.680337 
L 320.874201 203.501525 
L 321.483538 218.758555 
L 321.788206 191.265678 
L 322.092875 205.249294 
L 322.397543 209.583394 
L 322.702211 202.935658 
L 323.311548 181.862445 
L 323.616216 215.99827 
L 323.920885 203.959264 
L 324.225553 181.574193 
L 324.530221 242.116364 
L 324.834889 209.406977 
L 325.444226 181.954653 
L 325.748894 201.880356 
L 326.053563 170.407964 
L 326.358231 169.598027 
L 326.662899 200.219525 
L 326.967568 205.438448 
L 327.272236 191.347424 
L 327.576904 216.947839 
L 327.881572 205.758905 
L 328.186241 210.51262 
L 328.490909 202.325312 
L 328.795577 199.195893 
L 329.100246 211.689508 
L 329.404914 188.127416 
L 329.709582 222.573036 
L 330.014251 187.851856 
L 330.318919 219.636933 
L 330.623587 220.059875 
L 330.928256 187.493987 
L 331.232924 238.123595 
L 331.537592 204.18868 
L 332.146929 221.051984 
L 332.451597 194.225722 
L 332.756265 224.84465 
L 333.060934 208.941889 
L 333.365602 222.293108 
L 333.67027 229.776965 
L 333.974939 151.420215 
L 334.279607 156.435064 
L 334.584275 157.502198 
L 334.888943 188.843949 
L 335.193612 192.036154 
L 335.49828 214.571088 
L 335.802948 185.878137 
L 336.107617 212.40389 
L 336.412285 204.528282 
L 336.716953 212.898264 
L 337.021622 173.672534 
L 337.32629 205.563332 
L 337.630958 212.164308 
L 337.935627 213.406378 
L 338.240295 171.172666 
L 338.849631 225.475458 
L 339.1543 206.109443 
L 339.458968 206.475064 
L 339.763636 233.785268 
L 340.068305 221.457269 
L 340.372973 216.429991 
L 340.677641 208.321118 
L 340.98231 206.02779 
L 341.286978 197.159444 
L 341.591646 224.812178 
L 341.896314 209.829227 
L 342.200983 213.635332 
L 342.505651 211.740014 
L 342.810319 207.982021 
L 343.114988 210.151806 
L 343.419656 180.879542 
L 343.724324 198.602563 
L 344.028993 173.7611 
L 344.333661 219.909505 
L 344.638329 125.06036 
L 344.942998 120.103523 
L 345.247666 155.983051 
L 345.552334 169.994281 
L 345.857002 191.129567 
L 346.161671 168.384225 
L 346.466339 166.72132 
L 346.771007 178.187271 
L 347.075676 152.34793 
L 347.380344 202.6895 
L 347.989681 165.520915 
L 348.294349 204.882386 
L 348.599017 186.541493 
L 348.903686 197.623854 
L 349.208354 194.428105 
L 349.513022 185.899787 
L 349.81769 185.611746 
L 350.122359 202.739896 
L 350.427027 173.489222 
L 350.731695 201.299931 
L 351.036364 187.450326 
L 351.341032 213.44006 
L 351.6457 186.339628 
L 351.950369 209.927996 
L 352.559705 191.42953 
L 352.864373 200.795322 
L 353.169042 197.242074 
L 353.47371 232.647108 
L 353.778378 160.099476 
L 354.083047 212.160947 
L 354.387715 188.288142 
L 354.692383 203.670707 
L 354.997052 200.475241 
L 355.30172 199.359255 
L 355.606388 230.465609 
L 356.215725 209.444287 
L 356.520393 178.422252 
L 356.825061 200.110542 
L 357.12973 212.78273 
L 357.434398 171.340823 
L 357.739066 210.38859 
L 358.043735 177.213471 
L 358.348403 188.413253 
L 358.653071 217.215899 
L 359.262408 188.007449 
L 359.567076 207.501061 
L 359.871744 185.802201 
L 360.481081 203.242592 
L 360.785749 195.635756 
L 361.090418 181.563017 
L 361.395086 188.292603 
L 361.699754 232.180103 
L 362.004423 138.865815 
L 362.309091 216.833983 
L 362.613759 143.100463 
L 362.918428 209.322745 
L 363.223096 138.235037 
L 363.527764 170.073626 
L 363.832432 150.779822 
L 364.137101 205.373434 
L 364.441769 196.347288 
L 364.746437 200.566294 
L 365.051106 180.380586 
L 365.355774 209.768624 
L 365.660442 187.345281 
L 365.965111 180.768057 
L 366.269779 196.898438 
L 366.574447 196.699417 
L 366.879115 179.647516 
L 367.183784 195.353219 
L 367.488452 197.057604 
L 367.79312 197.698478 
L 368.097789 210.940349 
L 368.402457 193.327759 
L 368.707125 200.70185 
L 369.011794 194.200899 
L 369.316462 200.627487 
L 369.62113 200.026452 
L 369.925799 185.79526 
L 370.230467 210.799624 
L 371.144472 184.721564 
L 371.44914 151.386091 
L 371.753808 197.018083 
L 372.058477 191.820756 
L 372.363145 190.304755 
L 372.667813 214.409114 
L 372.972482 183.226236 
L 373.27715 203.640161 
L 373.581818 202.07081 
L 373.581818 202.07081 
" style="fill:none;stroke:#1f77b4;stroke-linecap:round;stroke-width:1.5;"/>
   </g>
   <g id="line2d_48">
    <path clip-path="url(#p11d9ea338f)" d="M 69.218182 154.155129 
L 69.52285 153.452367 
L 69.827518 153.619449 
L 70.132187 154.222002 
L 70.436855 156.475532 
L 70.741523 156.791974 
L 71.35086 156.795645 
L 71.655528 156.456558 
L 72.264865 156.357292 
L 72.569533 156.590674 
L 72.874201 156.632665 
L 73.788206 156.002019 
L 74.092875 156.009227 
L 74.702211 155.419508 
L 75.00688 155.335991 
L 75.311548 156.127649 
L 75.616216 156.444691 
L 75.920885 156.394161 
L 76.225553 156.58882 
L 76.834889 156.573364 
L 77.139558 156.996927 
L 77.748894 156.768059 
L 78.053563 157.359686 
L 78.662899 157.277258 
L 78.967568 156.694967 
L 79.272236 156.69566 
L 79.576904 164.112296 
L 79.881572 163.391139 
L 80.186241 163.404756 
L 80.490909 163.559239 
L 80.795577 163.462621 
L 81.404914 163.123295 
L 81.709582 163.659025 
L 82.928256 163.153919 
L 83.537592 163.353213 
L 84.146929 163.393082 
L 84.451597 163.177153 
L 84.756265 165.141965 
L 85.365602 165.098184 
L 86.279607 165.171201 
L 86.888943 165.133124 
L 87.193612 164.726583 
L 87.49828 164.707047 
L 88.412285 163.892403 
L 88.716953 164.217855 
L 89.630958 165.570505 
L 90.544963 166.244196 
L 90.849631 166.188593 
L 91.1543 166.509157 
L 91.458968 166.252323 
L 91.763636 166.353359 
L 92.068305 166.31336 
L 92.677641 166.513499 
L 92.98231 166.337492 
L 93.286978 166.6297 
L 93.591646 166.339141 
L 93.896314 166.448606 
L 94.200983 167.233083 
L 94.505651 167.025702 
L 95.114988 168.113755 
L 96.638329 167.094082 
L 96.942998 167.146703 
L 97.247666 167.050289 
L 98.771007 167.484992 
L 99.075676 167.443525 
L 99.380344 167.564058 
L 99.685012 167.894672 
L 99.989681 168.043532 
L 100.294349 167.498806 
L 100.599017 167.555169 
L 100.903686 167.851245 
L 101.81769 167.68136 
L 102.427027 168.463024 
L 103.036364 168.615364 
L 103.341032 168.824003 
L 103.6457 169.360778 
L 103.950369 169.198553 
L 104.255037 169.247135 
L 104.559705 169.419856 
L 104.864373 169.448532 
L 105.169042 169.149433 
L 106.083047 169.133034 
L 106.692383 168.940354 
L 107.911057 169.580126 
L 108.215725 169.412661 
L 108.520393 169.524567 
L 108.825061 170.147297 
L 109.434398 170.230138 
L 109.739066 170.583645 
L 110.043735 170.484156 
L 110.653071 170.661522 
L 110.95774 171.017381 
L 111.262408 171.100037 
L 111.871744 171.677943 
L 113.090418 171.623764 
L 113.395086 171.761851 
L 113.699754 171.558987 
L 114.004423 171.682188 
L 114.918428 171.67999 
L 115.223096 171.799752 
L 115.527764 172.597137 
L 116.137101 172.373021 
L 116.441769 172.442137 
L 117.051106 173.235557 
L 117.355774 173.468975 
L 117.660442 173.139102 
L 117.965111 173.066055 
L 118.879115 173.260306 
L 119.183784 173.857404 
L 119.488452 173.787115 
L 120.707125 174.83003 
L 121.011794 174.991058 
L 121.316462 175.404563 
L 121.62113 174.657927 
L 121.925799 173.109239 
L 122.230467 173.067122 
L 122.535135 172.847395 
L 123.144472 172.773531 
L 123.44914 173.264398 
L 123.753808 173.42857 
L 124.058477 173.343247 
L 124.667813 173.81077 
L 124.972482 173.865764 
L 125.27715 174.051382 
L 125.581818 174.028932 
L 125.886486 174.31679 
L 126.191155 174.39226 
L 126.800491 175.010932 
L 127.10516 174.981692 
L 127.714496 175.561659 
L 128.019165 175.887983 
L 128.323833 174.421536 
L 128.93317 174.260655 
L 129.237838 174.467527 
L 129.542506 174.902953 
L 130.151843 175.179403 
L 130.761179 175.279384 
L 131.370516 175.943641 
L 132.284521 176.179625 
L 132.893857 175.07513 
L 133.198526 175.217885 
L 133.503194 175.182319 
L 133.807862 175.494426 
L 134.417199 175.619103 
L 134.721867 175.967648 
L 135.026536 175.863851 
L 135.635872 175.993406 
L 135.940541 176.363766 
L 136.245209 176.201385 
L 136.549877 176.272153 
L 136.854545 177.287092 
L 137.159214 179.768024 
L 137.463882 180.10387 
L 137.76855 180.817333 
L 138.073219 181.137429 
L 138.377887 181.654059 
L 138.682555 181.700829 
L 138.987224 181.287089 
L 139.291892 181.397763 
L 139.59656 181.317813 
L 139.901229 181.516022 
L 140.205897 181.484896 
L 140.510565 180.958996 
L 141.119902 181.358755 
L 141.42457 181.612512 
L 141.729238 181.409453 
L 142.033907 180.831775 
L 142.643243 181.264367 
L 142.947912 180.627285 
L 143.25258 180.88336 
L 143.557248 181.372008 
L 143.861916 181.3104 
L 144.166585 181.851077 
L 144.471253 181.770126 
L 144.775921 181.305524 
L 145.08059 181.454835 
L 145.385258 181.442895 
L 145.994595 181.646648 
L 146.299263 181.614833 
L 146.603931 181.850712 
L 146.9086 181.42486 
L 147.517936 181.467932 
L 147.822604 182.105282 
L 148.127273 183.339915 
L 148.736609 183.972799 
L 149.041278 184.010823 
L 149.345946 183.869299 
L 149.650614 184.03686 
L 149.955283 183.980115 
L 150.869287 184.536666 
L 151.173956 184.563242 
L 151.478624 184.85189 
L 151.783292 184.840617 
L 152.087961 184.65418 
L 152.392629 184.883247 
L 152.697297 184.800691 
L 153.001966 184.097121 
L 153.306634 183.821237 
L 153.611302 183.940714 
L 153.915971 183.639775 
L 154.220639 184.265886 
L 154.525307 184.578666 
L 154.829975 183.996367 
L 155.439312 183.799884 
L 155.74398 184.563175 
L 156.353317 184.89876 
L 156.657985 184.797098 
L 156.962654 185.322107 
L 157.267322 186.192241 
L 157.57199 186.13418 
L 157.876658 174.525142 
L 158.181327 168.997792 
L 158.485995 168.49421 
L 158.790663 169.162582 
L 159.095332 168.920481 
L 159.4 168.928123 
L 159.704668 168.322317 
L 160.009337 168.538989 
L 160.618673 168.316152 
L 160.923342 166.839981 
L 161.532678 166.911058 
L 161.837346 166.885046 
L 162.142015 167.14113 
L 163.05602 167.065409 
L 164.579361 166.941736 
L 165.493366 166.839294 
L 165.798034 166.674469 
L 167.930713 166.581776 
L 168.235381 166.792841 
L 168.540049 166.759574 
L 168.844717 166.600849 
L 169.149386 166.712584 
L 169.758722 166.693537 
L 170.063391 167.025139 
L 170.977396 167.156668 
L 171.282064 166.984892 
L 171.586732 166.116646 
L 172.805405 166.162381 
L 173.414742 182.03993 
L 174.328747 184.115119 
L 174.633415 184.219801 
L 174.938084 185.500141 
L 175.242752 185.608918 
L 175.54742 185.208087 
L 175.852088 185.366433 
L 176.156757 188.379935 
L 176.461425 188.483804 
L 177.070762 188.297163 
L 177.37543 188.401486 
L 178.594103 189.324447 
L 179.20344 189.412625 
L 179.508108 189.659772 
L 179.812776 187.580483 
L 180.117445 187.402525 
L 180.422113 187.077289 
L 181.336118 187.31465 
L 181.945455 187.336221 
L 182.250123 187.532338 
L 182.859459 187.403464 
L 183.164128 186.49238 
L 183.773464 187.082807 
L 184.382801 187.697249 
L 184.992138 187.543973 
L 185.296806 187.615908 
L 186.210811 187.144768 
L 186.515479 187.307796 
L 186.820147 189.379965 
L 187.429484 189.290697 
L 187.734152 188.224794 
L 188.038821 188.205167 
L 188.343489 187.832437 
L 189.86683 187.716409 
L 190.171499 187.502358 
L 190.476167 187.655228 
L 190.780835 188.077462 
L 191.69484 188.063271 
L 191.999509 188.334023 
L 192.608845 188.463745 
L 193.52285 187.733341 
L 194.436855 187.738718 
L 194.741523 187.679952 
L 195.046192 190.047673 
L 195.35086 190.230106 
L 195.655528 190.864826 
L 195.960197 190.860819 
L 196.264865 190.970084 
L 196.569533 189.549974 
L 198.092875 190.244156 
L 198.397543 191.231532 
L 199.00688 191.53516 
L 199.311548 191.487795 
L 200.530221 192.018192 
L 201.139558 192.555242 
L 201.444226 192.717296 
L 201.748894 193.072004 
L 202.053563 193.101142 
L 202.358231 193.315293 
L 202.662899 192.877427 
L 202.967568 175.450039 
L 203.272236 174.527991 
L 203.881572 172.057318 
L 204.490909 170.665624 
L 204.795577 170.372616 
L 205.709582 168.966383 
L 206.623587 168.498218 
L 207.232924 167.764029 
L 207.84226 167.493751 
L 211.49828 167.052662 
L 211.802948 167.239813 
L 213.32629 167.042898 
L 213.935627 167.023233 
L 214.849631 166.851082 
L 215.1543 166.837928 
L 215.458968 166.234608 
L 215.763636 166.344232 
L 216.372973 166.245774 
L 216.677641 166.401509 
L 217.591646 165.890526 
L 217.896314 166.074947 
L 218.200983 177.981309 
L 218.505651 179.045965 
L 219.114988 182.574916 
L 219.724324 184.751289 
L 220.638329 187.449438 
L 221.857002 189.661271 
L 222.161671 188.310088 
L 222.466339 188.898686 
L 223.075676 189.642384 
L 223.989681 191.021092 
L 224.294349 191.29018 
L 224.599017 191.324838 
L 224.903686 191.548436 
L 225.208354 192.103624 
L 225.513022 192.291058 
L 226.122359 191.152787 
L 226.427027 188.708465 
L 226.731695 188.809619 
L 227.036364 189.656762 
L 227.341032 189.584706 
L 227.6457 189.846455 
L 227.950369 189.871266 
L 228.255037 189.748212 
L 228.559705 189.758471 
L 228.864373 189.90556 
L 229.169042 189.841709 
L 229.47371 189.952178 
L 229.778378 190.264603 
L 230.083047 190.069375 
L 230.387715 190.246366 
L 230.692383 191.661757 
L 231.911057 191.685131 
L 232.215725 191.944223 
L 232.520393 191.932405 
L 232.825061 192.237628 
L 233.12973 192.342718 
L 233.434398 191.951578 
L 233.739066 192.189873 
L 234.348403 192.305066 
L 234.653071 192.633293 
L 234.95774 192.366746 
L 235.262408 191.409662 
L 235.567076 191.589058 
L 236.176413 192.343555 
L 236.481081 192.392148 
L 236.785749 192.627709 
L 237.090418 192.692388 
L 237.395086 195.652749 
L 238.309091 196.277359 
L 238.613759 196.061841 
L 239.223096 196.583035 
L 239.527764 196.566956 
L 239.832432 196.947051 
L 240.137101 196.549525 
L 240.441769 195.723954 
L 240.746437 147.354443 
L 241.051106 145.287759 
L 241.355774 144.577372 
L 241.660442 144.877633 
L 242.269779 143.817034 
L 243.183784 142.861592 
L 245.011794 141.915532 
L 245.316462 141.878188 
L 246.230467 141.428076 
L 247.144472 141.049462 
L 248.363145 140.711851 
L 248.667813 140.742987 
L 249.886486 140.39317 
L 251.409828 140.369279 
L 252.323833 140.104023 
L 253.237838 139.964238 
L 255.675184 139.620364 
L 255.979853 166.462778 
L 256.284521 171.415143 
L 256.589189 173.574231 
L 256.893857 174.195046 
L 257.503194 177.696191 
L 258.112531 180.092053 
L 258.417199 180.97515 
L 259.026536 182.120393 
L 259.635872 183.568186 
L 259.940541 183.466582 
L 260.245209 184.186648 
L 260.549877 184.551599 
L 261.159214 185.998998 
L 261.463882 186.457919 
L 261.76855 187.306401 
L 262.073219 187.528873 
L 262.377887 187.938373 
L 262.682555 188.653798 
L 262.987224 188.656822 
L 263.291892 189.527354 
L 265.119902 191.865361 
L 265.42457 191.655786 
L 265.729238 192.030934 
L 266.033907 191.913573 
L 266.338575 192.091287 
L 266.947912 192.747818 
L 267.25258 191.478776 
L 267.557248 192.045998 
L 267.861916 190.625883 
L 268.166585 191.010592 
L 268.471253 191.108003 
L 268.775921 191.389986 
L 269.08059 191.354257 
L 269.689926 191.844252 
L 269.994595 191.82715 
L 270.299263 192.163212 
L 270.603931 192.865755 
L 270.9086 192.836724 
L 271.213268 193.428294 
L 271.517936 193.158479 
L 271.822604 193.289455 
L 272.736609 192.945159 
L 273.650614 193.712118 
L 273.955283 194.120711 
L 274.259951 194.182471 
L 274.564619 194.45524 
L 275.173956 193.54996 
L 275.478624 193.57596 
L 275.783292 193.308657 
L 276.697297 193.618846 
L 277.001966 193.46908 
L 277.306634 194.090241 
L 277.915971 193.651094 
L 278.220639 194.537589 
L 278.525307 194.343429 
L 279.439312 193.288585 
L 280.048649 193.388037 
L 280.353317 193.285588 
L 280.657985 193.454923 
L 281.57199 192.952045 
L 281.876658 192.665944 
L 282.181327 193.007418 
L 282.485995 195.001306 
L 282.790663 194.9202 
L 283.095332 196.537574 
L 283.4 196.41804 
L 283.704668 196.678939 
L 284.009337 196.226122 
L 284.314005 196.911133 
L 284.618673 197.32084 
L 284.923342 197.513715 
L 285.22801 197.875166 
L 285.532678 197.993856 
L 285.837346 198.292473 
L 286.142015 198.242417 
L 286.446683 198.383205 
L 286.751351 198.917444 
L 287.360688 199.389267 
L 287.665356 197.573265 
L 287.970025 197.85653 
L 288.579361 197.464421 
L 288.884029 197.087576 
L 289.493366 197.528077 
L 289.798034 196.971998 
L 290.102703 197.411684 
L 290.407371 198.548201 
L 290.712039 198.19688 
L 291.016708 198.491672 
L 291.321376 197.486569 
L 291.626044 197.398424 
L 291.930713 197.181495 
L 292.235381 197.537735 
L 292.540049 197.179417 
L 292.844717 197.491545 
L 293.149386 197.486682 
L 293.454054 197.159315 
L 293.758722 197.26297 
L 294.063391 197.73761 
L 294.368059 197.895568 
L 294.672727 198.453968 
L 294.977396 198.629899 
L 295.282064 198.584077 
L 295.586732 198.913755 
L 295.8914 198.918918 
L 296.500737 199.455105 
L 296.805405 199.225453 
L 297.110074 199.760943 
L 297.71941 198.481731 
L 298.024079 198.716757 
L 298.328747 198.623685 
L 298.633415 197.162325 
L 298.938084 197.194868 
L 299.242752 196.758029 
L 300.156757 196.233168 
L 300.461425 196.160876 
L 300.766093 195.714305 
L 301.070762 195.55355 
L 301.37543 195.810324 
L 301.680098 195.625197 
L 301.984767 195.690114 
L 302.289435 193.904686 
L 302.594103 193.923124 
L 302.898771 195.695719 
L 303.20344 195.727277 
L 303.508108 195.950472 
L 304.422113 195.980596 
L 304.726781 195.165828 
L 305.03145 195.533511 
L 306.250123 196.003594 
L 306.554791 197.028756 
L 306.859459 196.737482 
L 307.164128 196.989703 
L 307.468796 196.882469 
L 307.773464 196.996229 
L 308.078133 196.980512 
L 308.382801 196.474258 
L 308.687469 196.678964 
L 308.992138 196.627688 
L 309.296806 196.11027 
L 309.601474 196.402065 
L 310.210811 196.412644 
L 310.515479 195.835906 
L 310.820147 195.940227 
L 311.429484 194.24853 
L 311.734152 194.079809 
L 312.038821 194.570289 
L 312.343489 194.202654 
L 312.648157 194.892153 
L 312.952826 195.197178 
L 313.257494 195.065067 
L 313.562162 195.195864 
L 313.86683 196.451877 
L 314.171499 196.472713 
L 314.476167 197.066595 
L 314.780835 197.212289 
L 315.085504 196.960742 
L 315.69484 197.291248 
L 315.999509 197.246959 
L 316.304177 197.415328 
L 316.608845 197.220394 
L 316.913514 197.302058 
L 317.218182 197.262053 
L 317.52285 198.959296 
L 317.827518 199.183089 
L 318.436855 199.372608 
L 318.741523 199.503864 
L 319.046192 197.050912 
L 319.655528 193.563642 
L 319.960197 194.03831 
L 320.264865 194.124382 
L 320.569533 194.030162 
L 320.874201 193.628027 
L 321.17887 193.734725 
L 321.788206 193.603615 
L 322.092875 193.073377 
L 322.702211 193.104532 
L 323.00688 193.226942 
L 323.311548 192.575621 
L 323.616216 192.912647 
L 324.225553 193.010163 
L 324.530221 193.511148 
L 324.834889 193.477666 
L 325.139558 193.587654 
L 325.444226 193.838469 
L 325.748894 194.365876 
L 326.053563 194.424627 
L 326.358231 195.254303 
L 326.662899 196.490424 
L 327.272236 196.735988 
L 327.576904 197.088791 
L 327.881572 196.985729 
L 328.186241 197.04493 
L 328.490909 196.399973 
L 328.795577 196.335725 
L 329.100246 195.593183 
L 329.404914 195.672728 
L 330.014251 183.891734 
L 330.623587 182.147306 
L 330.928256 181.88934 
L 331.232924 181.443207 
L 331.537592 180.586123 
L 331.84226 180.220981 
L 332.146929 178.912855 
L 332.756265 178.686852 
L 333.060934 177.911801 
L 333.365602 177.883358 
L 333.974939 177.408144 
L 334.584275 179.366863 
L 334.888943 180.156363 
L 335.193612 180.316337 
L 335.49828 179.97256 
L 335.802948 179.875299 
L 336.412285 179.906184 
L 336.716953 179.695811 
L 337.021622 179.676953 
L 337.32629 180.091309 
L 338.240295 179.727155 
L 338.544963 180.407278 
L 338.849631 179.576118 
L 339.1543 179.511194 
L 339.458968 179.320633 
L 339.763636 179.298542 
L 340.372973 178.973283 
L 341.286978 179.116369 
L 341.896314 178.68783 
L 342.200983 178.705992 
L 342.505651 178.146334 
L 342.810319 178.13812 
L 343.419656 177.552979 
L 343.724324 177.913794 
L 344.028993 177.958035 
L 344.333661 178.218406 
L 344.638329 178.149188 
L 344.942998 181.725392 
L 345.247666 187.008938 
L 345.552334 188.436459 
L 345.857002 189.095539 
L 346.161671 188.883953 
L 346.466339 189.486298 
L 346.771007 190.652284 
L 347.075676 188.046935 
L 347.380344 189.925692 
L 347.685012 187.385998 
L 347.989681 187.723806 
L 348.294349 185.719854 
L 348.599017 185.031197 
L 348.903686 183.679416 
L 349.81769 183.998034 
L 350.122359 183.8896 
L 350.427027 183.952427 
L 350.731695 184.272516 
L 351.036364 183.94549 
L 351.341032 184.08684 
L 352.255037 183.64106 
L 352.864373 183.70371 
L 353.169042 183.795367 
L 353.47371 183.743713 
L 353.778378 183.539405 
L 354.083047 184.469862 
L 354.387715 184.364956 
L 354.692383 184.531423 
L 354.997052 184.281067 
L 355.606388 184.402019 
L 356.215725 183.715735 
L 356.520393 182.195667 
L 356.825061 182.507733 
L 357.12973 182.405656 
L 357.434398 182.17543 
L 357.739066 182.828966 
L 358.043735 182.490105 
L 358.348403 182.905093 
L 358.653071 183.082245 
L 358.653071 183.082245 
" style="fill:none;stroke:#ff7f0e;stroke-linecap:round;stroke-width:1.5;"/>
   </g>
   <g id="patch_3">
    <path d="M 54 252 
L 54 34.56 
" style="fill:none;stroke:#cccccc;stroke-linecap:square;stroke-linejoin:miter;"/>
   </g>
   <g id="patch_4">
    <path d="M 388.8 252 
L 388.8 34.56 
" style="fill:none;stroke:#cccccc;stroke-linecap:square;stroke-linejoin:miter;"/>
   </g>
   <g id="patch_5">
    <path d="M 54 252 
L 388.8 252 
" style="fill:none;stroke:#cccccc;stroke-linecap:square;stroke-linejoin:miter;"/>
   </g>
   <g id="patch_6">
    <path d="M 54 34.56 
L 388.8 34.56 
" style="fill:none;stroke:#cccccc;stroke-linecap:square;stroke-linejoin:miter;"/>
   </g>
   <g id="legend_1">
    <g id="line2d_49">
     <path d="M 63 47.217813 
L 83 47.217813 
" style="fill:none;stroke:#1f77b4;stroke-linecap:round;stroke-width:1.5;"/>
    </g>
    <g id="line2d_50"/>
    <g id="text_13">
     <!-- loss -->
     <g style="fill:#262626;" transform="translate(91 50.717813)scale(0.1 -0.1)">
      <defs>
       <path d="M 6.390625 0 
L 6.390625 71.578125 
L 15.1875 71.578125 
L 15.1875 0 
z
" id="ArialMT-108"/>
      </defs>
      <use xlink:href="#ArialMT-108"/>
      <use x="22.216797" xlink:href="#ArialMT-111"/>
      <use x="77.832031" xlink:href="#ArialMT-115"/>
      <use x="127.832031" xlink:href="#ArialMT-115"/>
     </g>
    </g>
    <g id="line2d_51">
     <path d="M 63 61.392813 
L 83 61.392813 
" style="fill:none;stroke:#ff7f0e;stroke-linecap:round;stroke-width:1.5;"/>
    </g>
    <g id="line2d_52"/>
    <g id="text_14">
     <!-- 50 epoch moving average loss -->
     <g style="fill:#262626;" transform="translate(91 64.892813)scale(0.1 -0.1)">
      <defs>
       <path d="M 4.15625 18.75 
L 13.375 19.53125 
Q 14.40625 12.796875 18.140625 9.390625 
Q 21.875 6 27.15625 6 
Q 33.5 6 37.890625 10.78125 
Q 42.28125 15.578125 42.28125 23.484375 
Q 42.28125 31 38.0625 35.34375 
Q 33.84375 39.703125 27 39.703125 
Q 22.75 39.703125 19.328125 37.765625 
Q 15.921875 35.84375 13.96875 32.765625 
L 5.71875 33.84375 
L 12.640625 70.609375 
L 48.25 70.609375 
L 48.25 62.203125 
L 19.671875 62.203125 
L 15.828125 42.96875 
Q 22.265625 47.46875 29.34375 47.46875 
Q 38.71875 47.46875 45.15625 40.96875 
Q 51.609375 34.46875 51.609375 24.265625 
Q 51.609375 14.546875 45.953125 7.46875 
Q 39.0625 -1.21875 27.15625 -1.21875 
Q 17.390625 -1.21875 11.203125 4.25 
Q 5.03125 9.71875 4.15625 18.75 
z
" id="ArialMT-53"/>
       <path id="ArialMT-32"/>
       <path d="M 42.09375 16.703125 
L 51.171875 15.578125 
Q 49.03125 7.625 43.21875 3.21875 
Q 37.40625 -1.171875 28.375 -1.171875 
Q 17 -1.171875 10.328125 5.828125 
Q 3.65625 12.84375 3.65625 25.484375 
Q 3.65625 38.578125 10.390625 45.796875 
Q 17.140625 53.03125 27.875 53.03125 
Q 38.28125 53.03125 44.875 45.953125 
Q 51.46875 38.875 51.46875 26.03125 
Q 51.46875 25.25 51.421875 23.6875 
L 12.75 23.6875 
Q 13.234375 15.140625 17.578125 10.59375 
Q 21.921875 6.0625 28.421875 6.0625 
Q 33.25 6.0625 36.671875 8.59375 
Q 40.09375 11.140625 42.09375 16.703125 
z
M 13.234375 30.90625 
L 42.1875 30.90625 
Q 41.609375 37.453125 38.875 40.71875 
Q 34.671875 45.796875 27.984375 45.796875 
Q 21.921875 45.796875 17.796875 41.75 
Q 13.671875 37.703125 13.234375 30.90625 
z
" id="ArialMT-101"/>
       <path d="M 6.59375 0 
L 6.59375 51.859375 
L 14.453125 51.859375 
L 14.453125 44.578125 
Q 16.890625 48.390625 20.9375 50.703125 
Q 25 53.03125 30.171875 53.03125 
Q 35.9375 53.03125 39.625 50.640625 
Q 43.3125 48.25 44.828125 43.953125 
Q 50.984375 53.03125 60.84375 53.03125 
Q 68.5625 53.03125 72.703125 48.75 
Q 76.859375 44.484375 76.859375 35.59375 
L 76.859375 0 
L 68.109375 0 
L 68.109375 32.671875 
Q 68.109375 37.9375 67.25 40.25 
Q 66.40625 42.578125 64.15625 43.984375 
Q 61.921875 45.40625 58.890625 45.40625 
Q 53.421875 45.40625 49.796875 41.765625 
Q 46.1875 38.140625 46.1875 30.125 
L 46.1875 0 
L 37.40625 0 
L 37.40625 33.6875 
Q 37.40625 39.546875 35.25 42.46875 
Q 33.109375 45.40625 28.21875 45.40625 
Q 24.515625 45.40625 21.359375 43.453125 
Q 18.21875 41.5 16.796875 37.734375 
Q 15.375 33.984375 15.375 26.90625 
L 15.375 0 
z
" id="ArialMT-109"/>
       <path d="M 21 0 
L 1.265625 51.859375 
L 10.546875 51.859375 
L 21.6875 20.796875 
Q 23.484375 15.765625 25 10.359375 
Q 26.171875 14.453125 28.265625 20.21875 
L 39.796875 51.859375 
L 48.828125 51.859375 
L 29.203125 0 
z
" id="ArialMT-118"/>
       <path d="M 6.640625 61.46875 
L 6.640625 71.578125 
L 15.4375 71.578125 
L 15.4375 61.46875 
z
M 6.640625 0 
L 6.640625 51.859375 
L 15.4375 51.859375 
L 15.4375 0 
z
" id="ArialMT-105"/>
       <path d="M 6.59375 0 
L 6.59375 51.859375 
L 14.5 51.859375 
L 14.5 44.484375 
Q 20.21875 53.03125 31 53.03125 
Q 35.6875 53.03125 39.625 51.34375 
Q 43.5625 49.65625 45.515625 46.921875 
Q 47.46875 44.1875 48.25 40.4375 
Q 48.734375 37.984375 48.734375 31.890625 
L 48.734375 0 
L 39.9375 0 
L 39.9375 31.546875 
Q 39.9375 36.921875 38.90625 39.578125 
Q 37.890625 42.234375 35.28125 43.8125 
Q 32.671875 45.40625 29.15625 45.40625 
Q 23.53125 45.40625 19.453125 41.84375 
Q 15.375 38.28125 15.375 28.328125 
L 15.375 0 
z
" id="ArialMT-110"/>
       <path d="M 4.984375 -4.296875 
L 13.53125 -5.5625 
Q 14.0625 -9.515625 16.5 -11.328125 
Q 19.78125 -13.765625 25.4375 -13.765625 
Q 31.546875 -13.765625 34.859375 -11.328125 
Q 38.1875 -8.890625 39.359375 -4.5 
Q 40.046875 -1.8125 39.984375 6.78125 
Q 34.234375 0 25.640625 0 
Q 14.9375 0 9.078125 7.71875 
Q 3.21875 15.4375 3.21875 26.21875 
Q 3.21875 33.640625 5.90625 39.90625 
Q 8.59375 46.1875 13.6875 49.609375 
Q 18.796875 53.03125 25.6875 53.03125 
Q 34.859375 53.03125 40.828125 45.609375 
L 40.828125 51.859375 
L 48.921875 51.859375 
L 48.921875 7.03125 
Q 48.921875 -5.078125 46.453125 -10.125 
Q 44 -15.1875 38.640625 -18.109375 
Q 33.296875 -21.046875 25.484375 -21.046875 
Q 16.21875 -21.046875 10.5 -16.875 
Q 4.78125 -12.703125 4.984375 -4.296875 
z
M 12.25 26.859375 
Q 12.25 16.65625 16.296875 11.96875 
Q 20.359375 7.28125 26.46875 7.28125 
Q 32.515625 7.28125 36.609375 11.9375 
Q 40.71875 16.609375 40.71875 26.5625 
Q 40.71875 36.078125 36.5 40.90625 
Q 32.28125 45.75 26.3125 45.75 
Q 20.453125 45.75 16.34375 40.984375 
Q 12.25 36.234375 12.25 26.859375 
z
" id="ArialMT-103"/>
       <path d="M 40.4375 6.390625 
Q 35.546875 2.25 31.03125 0.53125 
Q 26.515625 -1.171875 21.34375 -1.171875 
Q 12.796875 -1.171875 8.203125 3 
Q 3.609375 7.171875 3.609375 13.671875 
Q 3.609375 17.484375 5.34375 20.625 
Q 7.078125 23.78125 9.890625 25.6875 
Q 12.703125 27.59375 16.21875 28.5625 
Q 18.796875 29.25 24.03125 29.890625 
Q 34.671875 31.15625 39.703125 32.90625 
Q 39.75 34.71875 39.75 35.203125 
Q 39.75 40.578125 37.25 42.78125 
Q 33.890625 45.75 27.25 45.75 
Q 21.046875 45.75 18.09375 43.578125 
Q 15.140625 41.40625 13.71875 35.890625 
L 5.125 37.0625 
Q 6.296875 42.578125 8.984375 45.96875 
Q 11.671875 49.359375 16.75 51.1875 
Q 21.828125 53.03125 28.515625 53.03125 
Q 35.15625 53.03125 39.296875 51.46875 
Q 43.453125 49.90625 45.40625 47.53125 
Q 47.359375 45.171875 48.140625 41.546875 
Q 48.578125 39.3125 48.578125 33.453125 
L 48.578125 21.734375 
Q 48.578125 9.46875 49.140625 6.21875 
Q 49.703125 2.984375 51.375 0 
L 42.1875 0 
Q 40.828125 2.734375 40.4375 6.390625 
z
M 39.703125 26.03125 
Q 34.90625 24.078125 25.34375 22.703125 
Q 19.921875 21.921875 17.671875 20.9375 
Q 15.4375 19.96875 14.203125 18.09375 
Q 12.984375 16.21875 12.984375 13.921875 
Q 12.984375 10.40625 15.640625 8.0625 
Q 18.3125 5.71875 23.4375 5.71875 
Q 28.515625 5.71875 32.46875 7.9375 
Q 36.421875 10.15625 38.28125 14.015625 
Q 39.703125 17 39.703125 22.796875 
z
" id="ArialMT-97"/>
       <path d="M 6.5 0 
L 6.5 51.859375 
L 14.40625 51.859375 
L 14.40625 44 
Q 17.4375 49.515625 20 51.265625 
Q 22.5625 53.03125 25.640625 53.03125 
Q 30.078125 53.03125 34.671875 50.203125 
L 31.640625 42.046875 
Q 28.421875 43.953125 25.203125 43.953125 
Q 22.3125 43.953125 20.015625 42.21875 
Q 17.71875 40.484375 16.75 37.40625 
Q 15.28125 32.71875 15.28125 27.15625 
L 15.28125 0 
z
" id="ArialMT-114"/>
      </defs>
      <use xlink:href="#ArialMT-53"/>
      <use x="55.615234" xlink:href="#ArialMT-48"/>
      <use x="111.230469" xlink:href="#ArialMT-32"/>
      <use x="139.013672" xlink:href="#ArialMT-101"/>
      <use x="194.628906" xlink:href="#ArialMT-112"/>
      <use x="250.244141" xlink:href="#ArialMT-111"/>
      <use x="305.859375" xlink:href="#ArialMT-99"/>
      <use x="355.859375" xlink:href="#ArialMT-104"/>
      <use x="411.474609" xlink:href="#ArialMT-32"/>
      <use x="439.257812" xlink:href="#ArialMT-109"/>
      <use x="522.558594" xlink:href="#ArialMT-111"/>
      <use x="578.173828" xlink:href="#ArialMT-118"/>
      <use x="628.173828" xlink:href="#ArialMT-105"/>
      <use x="650.390625" xlink:href="#ArialMT-110"/>
      <use x="706.005859" xlink:href="#ArialMT-103"/>
      <use x="761.621094" xlink:href="#ArialMT-32"/>
      <use x="789.404297" xlink:href="#ArialMT-97"/>
      <use x="845.019531" xlink:href="#ArialMT-118"/>
      <use x="895.019531" xlink:href="#ArialMT-101"/>
      <use x="950.634766" xlink:href="#ArialMT-114"/>
      <use x="983.935547" xlink:href="#ArialMT-97"/>
      <use x="1039.550781" xlink:href="#ArialMT-103"/>
      <use x="1095.166016" xlink:href="#ArialMT-101"/>
      <use x="1150.78125" xlink:href="#ArialMT-32"/>
      <use x="1178.564453" xlink:href="#ArialMT-108"/>
      <use x="1200.78125" xlink:href="#ArialMT-111"/>
      <use x="1256.396484" xlink:href="#ArialMT-115"/>
      <use x="1306.396484" xlink:href="#ArialMT-115"/>
     </g>
    </g>
   </g>
  </g>
 </g>
 <defs>
  <clipPath id="p11d9ea338f">
   <rect height="217.44" width="334.8" x="54" y="34.56"/>
  </clipPath>
 </defs>
</svg>
