<?xml version="1.0" encoding="utf-8" standalone="no"?>
<!DOCTYPE svg PUBLIC "-//W3C//DTD SVG 1.1//EN"
  "http://www.w3.org/Graphics/SVG/1.1/DTD/svg11.dtd">
<!-- Created with matplotlib (https://matplotlib.org/) -->
<svg height="288pt" version="1.1" viewBox="0 0 432 288" width="432pt" xmlns="http://www.w3.org/2000/svg" xmlns:xlink="http://www.w3.org/1999/xlink">
 <metadata>
  <rdf:RDF xmlns:cc="http://creativecommons.org/ns#" xmlns:dc="http://purl.org/dc/elements/1.1/" xmlns:rdf="http://www.w3.org/1999/02/22-rdf-syntax-ns#">
   <cc:Work>
    <dc:type rdf:resource="http://purl.org/dc/dcmitype/StillImage"/>
    <dc:date>2021-08-23T19:12:42.992583</dc:date>
    <dc:format>image/svg+xml</dc:format>
    <dc:creator>
     <cc:Agent>
      <dc:title>Matplotlib v3.3.3, https://matplotlib.org/</dc:title>
     </cc:Agent>
    </dc:creator>
   </cc:Work>
  </rdf:RDF>
 </metadata>
 <defs>
  <style type="text/css">*{stroke-linecap:butt;stroke-linejoin:round;}</style>
 </defs>
 <g id="figure_1">
  <g id="patch_1">
   <path d="M 0 288 
L 432 288 
L 432 0 
L 0 0 
z
" style="fill:#ffffff;"/>
  </g>
  <g id="axes_1">
   <g id="patch_2">
    <path d="M 54 252 
L 388.8 252 
L 388.8 34.56 
L 54 34.56 
z
" style="fill:#ffffff;"/>
   </g>
   <g id="matplotlib.axis_1">
    <g id="xtick_1">
     <g id="line2d_1">
      <path clip-path="url(#p69cf06cea5)" d="M 69.218182 252 
L 69.218182 34.56 
" style="fill:none;stroke:#cccccc;stroke-linecap:round;stroke-width:0.8;"/>
     </g>
     <g id="line2d_2"/>
     <g id="text_1">
      <!-- 0 -->
      <g style="fill:#262626;" transform="translate(66.437713 262.657812)scale(0.1 -0.1)">
       <defs>
        <path d="M 4.15625 35.296875 
Q 4.15625 48 6.765625 55.734375 
Q 9.375 63.484375 14.515625 67.671875 
Q 19.671875 71.875 27.484375 71.875 
Q 33.25 71.875 37.59375 69.546875 
Q 41.9375 67.234375 44.765625 62.859375 
Q 47.609375 58.5 49.21875 52.21875 
Q 50.828125 45.953125 50.828125 35.296875 
Q 50.828125 22.703125 48.234375 14.96875 
Q 45.65625 7.234375 40.5 3 
Q 35.359375 -1.21875 27.484375 -1.21875 
Q 17.140625 -1.21875 11.234375 6.203125 
Q 4.15625 15.140625 4.15625 35.296875 
z
M 13.1875 35.296875 
Q 13.1875 17.671875 17.3125 11.828125 
Q 21.4375 6 27.484375 6 
Q 33.546875 6 37.671875 11.859375 
Q 41.796875 17.71875 41.796875 35.296875 
Q 41.796875 52.984375 37.671875 58.78125 
Q 33.546875 64.59375 27.390625 64.59375 
Q 21.34375 64.59375 17.71875 59.46875 
Q 13.1875 52.9375 13.1875 35.296875 
z
" id="ArialMT-48"/>
       </defs>
       <use xlink:href="#ArialMT-48"/>
      </g>
     </g>
    </g>
    <g id="xtick_2">
     <g id="line2d_3">
      <path clip-path="url(#p69cf06cea5)" d="M 107.843009 252 
L 107.843009 34.56 
" style="fill:none;stroke:#cccccc;stroke-linecap:round;stroke-width:0.8;"/>
     </g>
     <g id="line2d_4"/>
     <g id="text_2">
      <!-- 25 -->
      <g style="fill:#262626;" transform="translate(102.282071 262.657812)scale(0.1 -0.1)">
       <defs>
        <path d="M 50.34375 8.453125 
L 50.34375 0 
L 3.03125 0 
Q 2.9375 3.171875 4.046875 6.109375 
Q 5.859375 10.9375 9.828125 15.625 
Q 13.8125 20.3125 21.34375 26.46875 
Q 33.015625 36.03125 37.109375 41.625 
Q 41.21875 47.21875 41.21875 52.203125 
Q 41.21875 57.421875 37.46875 61 
Q 33.734375 64.59375 27.734375 64.59375 
Q 21.390625 64.59375 17.578125 60.78125 
Q 13.765625 56.984375 13.71875 50.25 
L 4.6875 51.171875 
Q 5.609375 61.28125 11.65625 66.578125 
Q 17.71875 71.875 27.9375 71.875 
Q 38.234375 71.875 44.234375 66.15625 
Q 50.25 60.453125 50.25 52 
Q 50.25 47.703125 48.484375 43.546875 
Q 46.734375 39.40625 42.65625 34.8125 
Q 38.578125 30.21875 29.109375 22.21875 
Q 21.1875 15.578125 18.9375 13.203125 
Q 16.703125 10.84375 15.234375 8.453125 
z
" id="ArialMT-50"/>
        <path d="M 4.15625 18.75 
L 13.375 19.53125 
Q 14.40625 12.796875 18.140625 9.390625 
Q 21.875 6 27.15625 6 
Q 33.5 6 37.890625 10.78125 
Q 42.28125 15.578125 42.28125 23.484375 
Q 42.28125 31 38.0625 35.34375 
Q 33.84375 39.703125 27 39.703125 
Q 22.75 39.703125 19.328125 37.765625 
Q 15.921875 35.84375 13.96875 32.765625 
L 5.71875 33.84375 
L 12.640625 70.609375 
L 48.25 70.609375 
L 48.25 62.203125 
L 19.671875 62.203125 
L 15.828125 42.96875 
Q 22.265625 47.46875 29.34375 47.46875 
Q 38.71875 47.46875 45.15625 40.96875 
Q 51.609375 34.46875 51.609375 24.265625 
Q 51.609375 14.546875 45.953125 7.46875 
Q 39.0625 -1.21875 27.15625 -1.21875 
Q 17.390625 -1.21875 11.203125 4.25 
Q 5.03125 9.71875 4.15625 18.75 
z
" id="ArialMT-53"/>
       </defs>
       <use xlink:href="#ArialMT-50"/>
       <use x="55.615234" xlink:href="#ArialMT-53"/>
      </g>
     </g>
    </g>
    <g id="xtick_3">
     <g id="line2d_5">
      <path clip-path="url(#p69cf06cea5)" d="M 146.467836 252 
L 146.467836 34.56 
" style="fill:none;stroke:#cccccc;stroke-linecap:round;stroke-width:0.8;"/>
     </g>
     <g id="line2d_6"/>
     <g id="text_3">
      <!-- 50 -->
      <g style="fill:#262626;" transform="translate(140.906898 262.657812)scale(0.1 -0.1)">
       <use xlink:href="#ArialMT-53"/>
       <use x="55.615234" xlink:href="#ArialMT-48"/>
      </g>
     </g>
    </g>
    <g id="xtick_4">
     <g id="line2d_7">
      <path clip-path="url(#p69cf06cea5)" d="M 185.092663 252 
L 185.092663 34.56 
" style="fill:none;stroke:#cccccc;stroke-linecap:round;stroke-width:0.8;"/>
     </g>
     <g id="line2d_8"/>
     <g id="text_4">
      <!-- 75 -->
      <g style="fill:#262626;" transform="translate(179.531725 262.657812)scale(0.1 -0.1)">
       <defs>
        <path d="M 4.734375 62.203125 
L 4.734375 70.65625 
L 51.078125 70.65625 
L 51.078125 63.8125 
Q 44.234375 56.546875 37.515625 44.484375 
Q 30.8125 32.421875 27.15625 19.671875 
Q 24.515625 10.6875 23.78125 0 
L 14.75 0 
Q 14.890625 8.453125 18.0625 20.40625 
Q 21.234375 32.375 27.171875 43.484375 
Q 33.109375 54.59375 39.796875 62.203125 
z
" id="ArialMT-55"/>
       </defs>
       <use xlink:href="#ArialMT-55"/>
       <use x="55.615234" xlink:href="#ArialMT-53"/>
      </g>
     </g>
    </g>
    <g id="xtick_5">
     <g id="line2d_9">
      <path clip-path="url(#p69cf06cea5)" d="M 223.71749 252 
L 223.71749 34.56 
" style="fill:none;stroke:#cccccc;stroke-linecap:round;stroke-width:0.8;"/>
     </g>
     <g id="line2d_10"/>
     <g id="text_5">
      <!-- 100 -->
      <g style="fill:#262626;" transform="translate(215.376083 262.657812)scale(0.1 -0.1)">
       <defs>
        <path d="M 37.25 0 
L 28.46875 0 
L 28.46875 56 
Q 25.296875 52.984375 20.140625 49.953125 
Q 14.984375 46.921875 10.890625 45.40625 
L 10.890625 53.90625 
Q 18.265625 57.375 23.78125 62.296875 
Q 29.296875 67.234375 31.59375 71.875 
L 37.25 71.875 
z
" id="ArialMT-49"/>
       </defs>
       <use xlink:href="#ArialMT-49"/>
       <use x="55.615234" xlink:href="#ArialMT-48"/>
       <use x="111.230469" xlink:href="#ArialMT-48"/>
      </g>
     </g>
    </g>
    <g id="xtick_6">
     <g id="line2d_11">
      <path clip-path="url(#p69cf06cea5)" d="M 262.342317 252 
L 262.342317 34.56 
" style="fill:none;stroke:#cccccc;stroke-linecap:round;stroke-width:0.8;"/>
     </g>
     <g id="line2d_12"/>
     <g id="text_6">
      <!-- 125 -->
      <g style="fill:#262626;" transform="translate(254.00091 262.657812)scale(0.1 -0.1)">
       <use xlink:href="#ArialMT-49"/>
       <use x="55.615234" xlink:href="#ArialMT-50"/>
       <use x="111.230469" xlink:href="#ArialMT-53"/>
      </g>
     </g>
    </g>
    <g id="xtick_7">
     <g id="line2d_13">
      <path clip-path="url(#p69cf06cea5)" d="M 300.967144 252 
L 300.967144 34.56 
" style="fill:none;stroke:#cccccc;stroke-linecap:round;stroke-width:0.8;"/>
     </g>
     <g id="line2d_14"/>
     <g id="text_7">
      <!-- 150 -->
      <g style="fill:#262626;" transform="translate(292.625737 262.657812)scale(0.1 -0.1)">
       <use xlink:href="#ArialMT-49"/>
       <use x="55.615234" xlink:href="#ArialMT-53"/>
       <use x="111.230469" xlink:href="#ArialMT-48"/>
      </g>
     </g>
    </g>
    <g id="xtick_8">
     <g id="line2d_15">
      <path clip-path="url(#p69cf06cea5)" d="M 339.59197 252 
L 339.59197 34.56 
" style="fill:none;stroke:#cccccc;stroke-linecap:round;stroke-width:0.8;"/>
     </g>
     <g id="line2d_16"/>
     <g id="text_8">
      <!-- 175 -->
      <g style="fill:#262626;" transform="translate(331.250564 262.657812)scale(0.1 -0.1)">
       <use xlink:href="#ArialMT-49"/>
       <use x="55.615234" xlink:href="#ArialMT-55"/>
       <use x="111.230469" xlink:href="#ArialMT-53"/>
      </g>
     </g>
    </g>
    <g id="xtick_9">
     <g id="line2d_17">
      <path clip-path="url(#p69cf06cea5)" d="M 378.216797 252 
L 378.216797 34.56 
" style="fill:none;stroke:#cccccc;stroke-linecap:round;stroke-width:0.8;"/>
     </g>
     <g id="line2d_18"/>
     <g id="text_9">
      <!-- 200 -->
      <g style="fill:#262626;" transform="translate(369.875391 262.657812)scale(0.1 -0.1)">
       <use xlink:href="#ArialMT-50"/>
       <use x="55.615234" xlink:href="#ArialMT-48"/>
       <use x="111.230469" xlink:href="#ArialMT-48"/>
      </g>
     </g>
    </g>
    <g id="text_10">
     <!-- Epoch -->
     <g style="fill:#262626;" transform="translate(207.223438 275.803125)scale(0.1 -0.1)">
      <defs>
       <path d="M 7.90625 0 
L 7.90625 71.578125 
L 59.671875 71.578125 
L 59.671875 63.140625 
L 17.390625 63.140625 
L 17.390625 41.21875 
L 56.984375 41.21875 
L 56.984375 32.8125 
L 17.390625 32.8125 
L 17.390625 8.453125 
L 61.328125 8.453125 
L 61.328125 0 
z
" id="ArialMT-69"/>
       <path d="M 6.59375 -19.875 
L 6.59375 51.859375 
L 14.59375 51.859375 
L 14.59375 45.125 
Q 17.4375 49.078125 21 51.046875 
Q 24.5625 53.03125 29.640625 53.03125 
Q 36.28125 53.03125 41.359375 49.609375 
Q 46.4375 46.1875 49.015625 39.953125 
Q 51.609375 33.734375 51.609375 26.3125 
Q 51.609375 18.359375 48.75 11.984375 
Q 45.90625 5.609375 40.453125 2.21875 
Q 35.015625 -1.171875 29 -1.171875 
Q 24.609375 -1.171875 21.109375 0.6875 
Q 17.625 2.546875 15.375 5.375 
L 15.375 -19.875 
z
M 14.546875 25.640625 
Q 14.546875 15.625 18.59375 10.84375 
Q 22.65625 6.0625 28.421875 6.0625 
Q 34.28125 6.0625 38.453125 11.015625 
Q 42.625 15.96875 42.625 26.375 
Q 42.625 36.28125 38.546875 41.203125 
Q 34.46875 46.140625 28.8125 46.140625 
Q 23.1875 46.140625 18.859375 40.890625 
Q 14.546875 35.640625 14.546875 25.640625 
z
" id="ArialMT-112"/>
       <path d="M 3.328125 25.921875 
Q 3.328125 40.328125 11.328125 47.265625 
Q 18.015625 53.03125 27.640625 53.03125 
Q 38.328125 53.03125 45.109375 46.015625 
Q 51.90625 39.015625 51.90625 26.65625 
Q 51.90625 16.65625 48.90625 10.90625 
Q 45.90625 5.171875 40.15625 2 
Q 34.421875 -1.171875 27.640625 -1.171875 
Q 16.75 -1.171875 10.03125 5.8125 
Q 3.328125 12.796875 3.328125 25.921875 
z
M 12.359375 25.921875 
Q 12.359375 15.96875 16.703125 11.015625 
Q 21.046875 6.0625 27.640625 6.0625 
Q 34.1875 6.0625 38.53125 11.03125 
Q 42.875 16.015625 42.875 26.21875 
Q 42.875 35.84375 38.5 40.796875 
Q 34.125 45.75 27.640625 45.75 
Q 21.046875 45.75 16.703125 40.8125 
Q 12.359375 35.890625 12.359375 25.921875 
z
" id="ArialMT-111"/>
       <path d="M 40.4375 19 
L 49.078125 17.875 
Q 47.65625 8.9375 41.8125 3.875 
Q 35.984375 -1.171875 27.484375 -1.171875 
Q 16.84375 -1.171875 10.375 5.78125 
Q 3.90625 12.75 3.90625 25.734375 
Q 3.90625 34.125 6.6875 40.421875 
Q 9.46875 46.734375 15.15625 49.875 
Q 20.84375 53.03125 27.546875 53.03125 
Q 35.984375 53.03125 41.359375 48.75 
Q 46.734375 44.484375 48.25 36.625 
L 39.703125 35.296875 
Q 38.484375 40.53125 35.375 43.15625 
Q 32.28125 45.796875 27.875 45.796875 
Q 21.234375 45.796875 17.078125 41.03125 
Q 12.9375 36.28125 12.9375 25.984375 
Q 12.9375 15.53125 16.9375 10.796875 
Q 20.953125 6.0625 27.390625 6.0625 
Q 32.5625 6.0625 36.03125 9.234375 
Q 39.5 12.40625 40.4375 19 
z
" id="ArialMT-99"/>
       <path d="M 6.59375 0 
L 6.59375 71.578125 
L 15.375 71.578125 
L 15.375 45.90625 
Q 21.53125 53.03125 30.90625 53.03125 
Q 36.671875 53.03125 40.921875 50.75 
Q 45.171875 48.484375 47 44.484375 
Q 48.828125 40.484375 48.828125 32.859375 
L 48.828125 0 
L 40.046875 0 
L 40.046875 32.859375 
Q 40.046875 39.453125 37.1875 42.453125 
Q 34.328125 45.453125 29.109375 45.453125 
Q 25.203125 45.453125 21.75 43.421875 
Q 18.3125 41.40625 16.84375 37.9375 
Q 15.375 34.46875 15.375 28.375 
L 15.375 0 
z
" id="ArialMT-104"/>
      </defs>
      <use xlink:href="#ArialMT-69"/>
      <use x="66.699219" xlink:href="#ArialMT-112"/>
      <use x="122.314453" xlink:href="#ArialMT-111"/>
      <use x="177.929688" xlink:href="#ArialMT-99"/>
      <use x="227.929688" xlink:href="#ArialMT-104"/>
     </g>
    </g>
   </g>
   <g id="matplotlib.axis_2">
    <g id="ytick_1">
     <g id="line2d_19">
      <path clip-path="url(#p69cf06cea5)" d="M 54 246.158943 
L 388.8 246.158943 
" style="fill:none;stroke:#cccccc;stroke-linecap:round;stroke-width:0.8;"/>
     </g>
     <g id="line2d_20"/>
     <g id="text_11">
      <!-- 0.25 -->
      <g style="fill:#262626;" transform="translate(31.039062 249.737849)scale(0.1 -0.1)">
       <defs>
        <path d="M 9.078125 0 
L 9.078125 10.015625 
L 19.09375 10.015625 
L 19.09375 0 
z
" id="ArialMT-46"/>
       </defs>
       <use xlink:href="#ArialMT-48"/>
       <use x="55.615234" xlink:href="#ArialMT-46"/>
       <use x="83.398438" xlink:href="#ArialMT-50"/>
       <use x="139.013672" xlink:href="#ArialMT-53"/>
      </g>
     </g>
    </g>
    <g id="ytick_2">
     <g id="line2d_21">
      <path clip-path="url(#p69cf06cea5)" d="M 54 219.742185 
L 388.8 219.742185 
" style="fill:none;stroke:#cccccc;stroke-linecap:round;stroke-width:0.8;"/>
     </g>
     <g id="line2d_22"/>
     <g id="text_12">
      <!-- 0.50 -->
      <g style="fill:#262626;" transform="translate(31.039062 223.321091)scale(0.1 -0.1)">
       <use xlink:href="#ArialMT-48"/>
       <use x="55.615234" xlink:href="#ArialMT-46"/>
       <use x="83.398438" xlink:href="#ArialMT-53"/>
       <use x="139.013672" xlink:href="#ArialMT-48"/>
      </g>
     </g>
    </g>
    <g id="ytick_3">
     <g id="line2d_23">
      <path clip-path="url(#p69cf06cea5)" d="M 54 193.325427 
L 388.8 193.325427 
" style="fill:none;stroke:#cccccc;stroke-linecap:round;stroke-width:0.8;"/>
     </g>
     <g id="line2d_24"/>
     <g id="text_13">
      <!-- 0.75 -->
      <g style="fill:#262626;" transform="translate(31.039062 196.904334)scale(0.1 -0.1)">
       <use xlink:href="#ArialMT-48"/>
       <use x="55.615234" xlink:href="#ArialMT-46"/>
       <use x="83.398438" xlink:href="#ArialMT-55"/>
       <use x="139.013672" xlink:href="#ArialMT-53"/>
      </g>
     </g>
    </g>
    <g id="ytick_4">
     <g id="line2d_25">
      <path clip-path="url(#p69cf06cea5)" d="M 54 166.908669 
L 388.8 166.908669 
" style="fill:none;stroke:#cccccc;stroke-linecap:round;stroke-width:0.8;"/>
     </g>
     <g id="line2d_26"/>
     <g id="text_14">
      <!-- 1.00 -->
      <g style="fill:#262626;" transform="translate(31.039062 170.487576)scale(0.1 -0.1)">
       <use xlink:href="#ArialMT-49"/>
       <use x="55.615234" xlink:href="#ArialMT-46"/>
       <use x="83.398438" xlink:href="#ArialMT-48"/>
       <use x="139.013672" xlink:href="#ArialMT-48"/>
      </g>
     </g>
    </g>
    <g id="ytick_5">
     <g id="line2d_27">
      <path clip-path="url(#p69cf06cea5)" d="M 54 140.491911 
L 388.8 140.491911 
" style="fill:none;stroke:#cccccc;stroke-linecap:round;stroke-width:0.8;"/>
     </g>
     <g id="line2d_28"/>
     <g id="text_15">
      <!-- 1.25 -->
      <g style="fill:#262626;" transform="translate(31.039062 144.070818)scale(0.1 -0.1)">
       <use xlink:href="#ArialMT-49"/>
       <use x="55.615234" xlink:href="#ArialMT-46"/>
       <use x="83.398438" xlink:href="#ArialMT-50"/>
       <use x="139.013672" xlink:href="#ArialMT-53"/>
      </g>
     </g>
    </g>
    <g id="ytick_6">
     <g id="line2d_29">
      <path clip-path="url(#p69cf06cea5)" d="M 54 114.075153 
L 388.8 114.075153 
" style="fill:none;stroke:#cccccc;stroke-linecap:round;stroke-width:0.8;"/>
     </g>
     <g id="line2d_30"/>
     <g id="text_16">
      <!-- 1.50 -->
      <g style="fill:#262626;" transform="translate(31.039062 117.65406)scale(0.1 -0.1)">
       <use xlink:href="#ArialMT-49"/>
       <use x="55.615234" xlink:href="#ArialMT-46"/>
       <use x="83.398438" xlink:href="#ArialMT-53"/>
       <use x="139.013672" xlink:href="#ArialMT-48"/>
      </g>
     </g>
    </g>
    <g id="ytick_7">
     <g id="line2d_31">
      <path clip-path="url(#p69cf06cea5)" d="M 54 87.658396 
L 388.8 87.658396 
" style="fill:none;stroke:#cccccc;stroke-linecap:round;stroke-width:0.8;"/>
     </g>
     <g id="line2d_32"/>
     <g id="text_17">
      <!-- 1.75 -->
      <g style="fill:#262626;" transform="translate(31.039062 91.237302)scale(0.1 -0.1)">
       <use xlink:href="#ArialMT-49"/>
       <use x="55.615234" xlink:href="#ArialMT-46"/>
       <use x="83.398438" xlink:href="#ArialMT-55"/>
       <use x="139.013672" xlink:href="#ArialMT-53"/>
      </g>
     </g>
    </g>
    <g id="ytick_8">
     <g id="line2d_33">
      <path clip-path="url(#p69cf06cea5)" d="M 54 61.241638 
L 388.8 61.241638 
" style="fill:none;stroke:#cccccc;stroke-linecap:round;stroke-width:0.8;"/>
     </g>
     <g id="line2d_34"/>
     <g id="text_18">
      <!-- 2.00 -->
      <g style="fill:#262626;" transform="translate(31.039062 64.820544)scale(0.1 -0.1)">
       <use xlink:href="#ArialMT-50"/>
       <use x="55.615234" xlink:href="#ArialMT-46"/>
       <use x="83.398438" xlink:href="#ArialMT-48"/>
       <use x="139.013672" xlink:href="#ArialMT-48"/>
      </g>
     </g>
    </g>
    <g id="ytick_9">
     <g id="line2d_35">
      <path clip-path="url(#p69cf06cea5)" d="M 54 34.82488 
L 388.8 34.82488 
" style="fill:none;stroke:#cccccc;stroke-linecap:round;stroke-width:0.8;"/>
     </g>
     <g id="line2d_36"/>
     <g id="text_19">
      <!-- 2.25 -->
      <g style="fill:#262626;" transform="translate(31.039062 38.403786)scale(0.1 -0.1)">
       <use xlink:href="#ArialMT-50"/>
       <use x="55.615234" xlink:href="#ArialMT-46"/>
       <use x="83.398438" xlink:href="#ArialMT-50"/>
       <use x="139.013672" xlink:href="#ArialMT-53"/>
      </g>
     </g>
    </g>
    <g id="text_20">
     <!-- Loss -->
     <g style="fill:#262626;" transform="translate(25.051562 153.840937)rotate(-90)scale(0.1 -0.1)">
      <defs>
       <path d="M 7.328125 0 
L 7.328125 71.578125 
L 16.796875 71.578125 
L 16.796875 8.453125 
L 52.046875 8.453125 
L 52.046875 0 
z
" id="ArialMT-76"/>
       <path d="M 3.078125 15.484375 
L 11.765625 16.84375 
Q 12.5 11.625 15.84375 8.84375 
Q 19.1875 6.0625 25.203125 6.0625 
Q 31.25 6.0625 34.171875 8.515625 
Q 37.109375 10.984375 37.109375 14.3125 
Q 37.109375 17.28125 34.515625 19 
Q 32.71875 20.171875 25.53125 21.96875 
Q 15.875 24.421875 12.140625 26.203125 
Q 8.40625 27.984375 6.46875 31.125 
Q 4.546875 34.28125 4.546875 38.09375 
Q 4.546875 41.546875 6.125 44.5 
Q 7.71875 47.46875 10.453125 49.421875 
Q 12.5 50.921875 16.03125 51.96875 
Q 19.578125 53.03125 23.640625 53.03125 
Q 29.734375 53.03125 34.34375 51.265625 
Q 38.96875 49.515625 41.15625 46.5 
Q 43.359375 43.5 44.1875 38.484375 
L 35.59375 37.3125 
Q 35.015625 41.3125 32.203125 43.546875 
Q 29.390625 45.796875 24.265625 45.796875 
Q 18.21875 45.796875 15.625 43.796875 
Q 13.03125 41.796875 13.03125 39.109375 
Q 13.03125 37.40625 14.109375 36.03125 
Q 15.1875 34.625 17.484375 33.6875 
Q 18.796875 33.203125 25.25 31.453125 
Q 34.578125 28.953125 38.25 27.359375 
Q 41.9375 25.78125 44.03125 22.75 
Q 46.140625 19.734375 46.140625 15.234375 
Q 46.140625 10.84375 43.578125 6.953125 
Q 41.015625 3.078125 36.171875 0.953125 
Q 31.34375 -1.171875 25.25 -1.171875 
Q 15.140625 -1.171875 9.84375 3.03125 
Q 4.546875 7.234375 3.078125 15.484375 
z
" id="ArialMT-115"/>
      </defs>
      <use xlink:href="#ArialMT-76"/>
      <use x="55.615234" xlink:href="#ArialMT-111"/>
      <use x="111.230469" xlink:href="#ArialMT-115"/>
      <use x="161.230469" xlink:href="#ArialMT-115"/>
     </g>
    </g>
   </g>
   <g id="line2d_37">
    <path clip-path="url(#p69cf06cea5)" d="M 69.218182 219.087728 
L 70.763175 210.284468 
L 72.308168 125.739706 
L 75.398154 224.082332 
L 76.943147 141.69014 
L 78.48814 216.129612 
L 80.033133 66.690804 
L 81.578126 206.477922 
L 83.12312 169.250149 
L 84.668113 179.498214 
L 86.213106 166.680711 
L 87.758099 92.915567 
L 89.303092 111.21318 
L 90.848085 180.227475 
L 92.393078 102.976347 
L 93.938071 165.458763 
L 95.483064 157.697812 
L 97.028057 44.443636 
L 98.57305 121.085315 
L 100.118043 136.213551 
L 101.663036 196.706622 
L 103.20803 134.347607 
L 104.753023 135.07712 
L 106.298016 181.264186 
L 107.843009 86.822278 
L 109.388002 192.10819 
L 110.932995 90.925837 
L 112.477988 181.068241 
L 114.022981 116.973405 
L 115.567974 121.319484 
L 117.112967 165.523055 
L 118.65796 197.467469 
L 120.202953 167.549604 
L 121.747946 169.216429 
L 123.29294 158.612758 
L 124.837933 190.353128 
L 126.382926 167.116102 
L 127.927919 183.176982 
L 129.472912 136.666281 
L 131.017905 136.047327 
L 132.562898 204.691865 
L 134.107891 167.869177 
L 135.652884 189.151712 
L 137.197877 149.404433 
L 138.74287 191.606271 
L 140.287863 181.15658 
L 141.832856 204.737118 
L 143.37785 201.914553 
L 144.922843 152.68917 
L 146.467836 206.071263 
L 148.012829 139.78162 
L 149.557822 188.726524 
L 151.102815 170.567415 
L 152.647808 182.528974 
L 154.192801 211.489814 
L 155.737794 182.290932 
L 157.282787 210.525307 
L 158.82778 186.119094 
L 160.372773 210.670003 
L 161.917766 210.359991 
L 163.46276 188.484148 
L 165.007753 220.339788 
L 166.552746 206.695111 
L 168.097739 173.697649 
L 169.642732 215.066632 
L 171.187725 186.934881 
L 174.277711 226.325043 
L 175.822704 223.711163 
L 177.367697 182.855337 
L 178.91269 161.709505 
L 180.457683 198.944231 
L 182.002677 227.77021 
L 183.54767 183.126545 
L 185.092663 194.654067 
L 186.637656 208.261157 
L 188.182649 229.539875 
L 189.727642 206.638149 
L 191.272635 236.09787 
L 192.817628 182.328633 
L 195.907614 230.309565 
L 197.452607 217.01791 
L 198.9976 212.810808 
L 200.542593 209.213036 
L 202.087587 221.382107 
L 203.63258 193.61635 
L 205.177573 215.609768 
L 206.722566 204.593354 
L 208.267559 214.5476 
L 209.812552 232.26209 
L 211.357545 230.418625 
L 212.902538 216.677843 
L 214.447531 231.027348 
L 215.992524 236.001743 
L 217.537517 227.49173 
L 219.08251 217.83609 
L 220.627503 215.141789 
L 222.172497 205.485703 
L 223.71749 222.600537 
L 225.262483 227.941358 
L 226.807476 213.59128 
L 228.352469 226.726414 
L 229.897462 224.550096 
L 231.442455 232.891134 
L 232.987448 229.500861 
L 234.532441 234.639999 
L 236.077434 223.796341 
L 237.622427 234.666102 
L 239.16742 218.935197 
L 240.712413 227.019966 
L 242.257407 195.564479 
L 243.8024 235.748692 
L 245.347393 225.857209 
L 246.892386 229.272899 
L 248.437379 228.356866 
L 249.982372 237.315882 
L 251.527365 225.774141 
L 253.072358 232.03855 
L 254.617351 242.116364 
L 256.162344 232.234759 
L 257.707337 232.487023 
L 259.25233 221.238576 
L 260.797323 228.593412 
L 262.342317 229.964544 
L 263.88731 231.581855 
L 265.432303 222.059719 
L 266.977296 237.031733 
L 268.522289 193.869054 
L 270.067282 213.934932 
L 271.612275 226.84108 
L 273.157268 233.856882 
L 274.702261 229.282217 
L 276.247254 231.474847 
L 277.792247 220.475024 
L 279.33724 230.594564 
L 280.882234 209.050768 
L 282.427227 234.055371 
L 283.97222 226.74666 
L 285.517213 233.262891 
L 287.062206 234.349789 
L 288.607199 227.904709 
L 290.152192 227.116741 
L 291.697185 207.923558 
L 293.242178 220.884252 
L 294.787171 219.236751 
L 296.332164 216.948157 
L 297.877157 226.634526 
L 299.42215 227.036225 
L 300.967144 227.771113 
L 302.512137 234.593808 
L 304.05713 214.515567 
L 305.602123 228.406238 
L 307.147116 204.67088 
L 308.692109 221.980881 
L 310.237102 227.913202 
L 311.782095 226.13596 
L 313.327088 225.386843 
L 314.872081 231.213354 
L 316.417074 226.918167 
L 317.962067 229.986008 
L 319.50706 226.643431 
L 321.052054 212.434778 
L 322.597047 236.560385 
L 324.14204 228.273981 
L 325.687033 232.45277 
L 327.232026 235.193691 
L 328.777019 221.01787 
L 330.322012 216.559637 
L 331.867005 214.268468 
L 333.411998 227.308095 
L 334.956991 234.100511 
L 336.501984 218.634406 
L 338.046977 219.001228 
L 339.59197 217.675737 
L 341.136964 214.382202 
L 342.681957 223.565863 
L 344.22695 200.03066 
L 345.771943 213.810806 
L 347.316936 225.801151 
L 348.861929 225.015445 
L 350.406922 221.095196 
L 351.951915 215.220353 
L 353.496908 219.985833 
L 355.041901 223.144151 
L 356.586894 220.599839 
L 358.131887 226.461003 
L 359.67688 217.809512 
L 361.221874 222.371926 
L 362.766867 215.219043 
L 364.31186 214.163224 
L 365.856853 211.719498 
L 367.401846 218.46725 
L 368.946839 223.458204 
L 370.491832 211.659797 
L 372.036825 211.758655 
L 373.581818 201.991568 
L 373.581818 201.991568 
" style="fill:none;stroke:#1f77b4;stroke-linecap:round;stroke-width:1.5;"/>
   </g>
   <g id="line2d_38">
    <path clip-path="url(#p69cf06cea5)" d="M 69.218182 153.849176 
L 70.763175 149.705467 
L 72.308168 149.026575 
L 73.853161 149.45697 
L 76.943147 145.302237 
L 78.48814 142.558844 
L 80.033133 141.357773 
L 81.578126 142.569524 
L 83.12312 141.29904 
L 84.668113 138.685203 
L 86.213106 135.776266 
L 87.758099 135.718384 
L 89.303092 140.945979 
L 90.848085 143.7628 
L 92.393078 143.212248 
L 93.938071 145.994068 
L 95.483064 147.238786 
L 97.028057 147.709701 
L 98.57305 154.646368 
L 100.118043 155.425416 
L 101.663036 155.417105 
L 103.20803 155.816367 
L 104.753023 157.492446 
L 106.298016 160.196176 
L 107.843009 158.603188 
L 109.388002 163.842388 
L 110.932995 163.294807 
L 112.477988 168.985371 
L 114.022981 170.027687 
L 115.567974 171.813475 
L 117.112967 176.051064 
L 118.65796 174.763992 
L 120.202953 174.326945 
L 121.747946 174.477835 
L 123.29294 175.143463 
L 124.837933 177.787316 
L 126.382926 177.384206 
L 127.927919 179.554666 
L 129.472912 179.701772 
L 132.562898 187.117591 
L 134.107891 186.307205 
L 135.652884 188.930736 
L 137.197877 189.807905 
L 140.287863 192.195584 
L 141.832856 192.484499 
L 143.37785 192.564433 
L 144.922843 193.784958 
L 146.467836 197.336057 
L 148.012829 196.175261 
L 149.557822 197.271655 
L 151.102815 197.782541 
L 152.647808 200.64268 
L 154.192801 200.672559 
L 155.737794 199.830772 
L 157.282787 201.129283 
L 160.372773 203.105964 
L 161.917766 204.377357 
L 163.46276 202.97579 
L 165.007753 203.858014 
L 168.097739 204.872643 
L 169.642732 206.828301 
L 171.187725 206.535621 
L 172.732718 208.257982 
L 175.822704 207.086246 
L 177.367697 206.130356 
L 178.91269 207.714969 
L 180.457683 211.242598 
L 182.002677 212.816318 
L 183.54767 212.261699 
L 185.092663 214.656739 
L 186.637656 216.724123 
L 188.182649 217.685652 
L 189.727642 217.100463 
L 191.272635 217.525645 
L 192.817628 215.995036 
L 194.362621 218.008631 
L 195.907614 219.099268 
L 197.452607 218.263353 
L 200.542593 219.335743 
L 202.087587 220.519648 
L 203.63258 220.925586 
L 205.177573 222.976768 
L 206.722566 223.386097 
L 208.267559 224.889734 
L 209.812552 225.109114 
L 211.357545 224.847008 
L 212.902538 223.104301 
L 214.447531 224.057843 
L 217.537517 223.462894 
L 219.08251 223.506151 
L 220.627503 224.48014 
L 222.172497 225.011758 
L 223.71749 226.3394 
L 225.262483 227.315192 
L 226.807476 227.529862 
L 228.352469 228.474649 
L 229.897462 228.200257 
L 231.442455 228.402423 
L 232.987448 228.256093 
L 234.532441 228.360143 
L 236.077434 227.731129 
L 237.622427 228.392898 
L 239.16742 226.353046 
L 240.712413 226.103033 
L 242.257407 226.094088 
L 243.8024 228.008709 
L 245.347393 227.685385 
L 246.892386 227.966267 
L 248.437379 227.526373 
L 249.982372 227.638258 
L 251.527365 226.225002 
L 253.072358 226.639064 
L 254.617351 226.374469 
L 256.162344 225.931795 
L 257.707337 226.037547 
L 259.25233 225.808431 
L 260.797323 226.10234 
L 262.342317 225.068847 
L 263.88731 224.614832 
L 265.432303 223.997577 
L 266.977296 223.741999 
L 268.522289 223.222139 
L 270.067282 224.880497 
L 271.612275 225.572306 
L 273.157268 225.959943 
L 274.702261 224.992877 
L 276.247254 224.949078 
L 277.792247 223.60888 
L 279.33724 223.684172 
L 280.882234 223.550104 
L 282.427227 224.404364 
L 283.97222 223.970938 
L 285.517213 224.194272 
L 288.607199 223.658847 
L 290.152192 223.595783 
L 291.697185 222.861685 
L 293.242178 224.293526 
L 294.787171 224.663013 
L 296.332164 225.323814 
L 297.877157 226.23609 
L 299.42215 225.955258 
L 300.967144 225.431428 
L 302.512137 224.756296 
L 304.05713 224.39201 
L 305.602123 225.371257 
L 307.147116 224.882666 
L 308.692109 225.599183 
L 310.237102 225.383926 
L 311.782095 224.707376 
L 313.327088 224.578871 
L 314.872081 223.311062 
L 316.417074 222.440935 
L 317.962067 222.385084 
L 321.052054 221.859144 
L 322.597047 221.998423 
L 324.14204 221.169695 
L 325.687033 220.913204 
L 327.232026 220.320557 
L 328.777019 219.883923 
L 330.322012 219.723505 
L 331.867005 220.014119 
L 333.411998 220.061648 
L 334.956991 219.404404 
L 336.501984 218.285354 
L 338.046977 218.276996 
L 339.59197 218.499845 
L 341.136964 218.199048 
L 342.681957 218.067871 
L 344.22695 216.989156 
L 344.22695 216.989156 
" style="fill:none;stroke:#ff7f0e;stroke-linecap:round;stroke-width:1.5;"/>
   </g>
   <g id="patch_3">
    <path d="M 54 252 
L 54 34.56 
" style="fill:none;stroke:#cccccc;stroke-linecap:square;stroke-linejoin:miter;"/>
   </g>
   <g id="patch_4">
    <path d="M 388.8 252 
L 388.8 34.56 
" style="fill:none;stroke:#cccccc;stroke-linecap:square;stroke-linejoin:miter;"/>
   </g>
   <g id="patch_5">
    <path d="M 54 252 
L 388.8 252 
" style="fill:none;stroke:#cccccc;stroke-linecap:square;stroke-linejoin:miter;"/>
   </g>
   <g id="patch_6">
    <path d="M 54 34.56 
L 388.8 34.56 
" style="fill:none;stroke:#cccccc;stroke-linecap:square;stroke-linejoin:miter;"/>
   </g>
   <g id="legend_1">
    <g id="line2d_39">
     <path d="M 216.170312 47.217813 
L 236.170312 47.217813 
" style="fill:none;stroke:#1f77b4;stroke-linecap:round;stroke-width:1.5;"/>
    </g>
    <g id="line2d_40"/>
    <g id="text_21">
     <!-- loss -->
     <g style="fill:#262626;" transform="translate(244.170312 50.717813)scale(0.1 -0.1)">
      <defs>
       <path d="M 6.390625 0 
L 6.390625 71.578125 
L 15.1875 71.578125 
L 15.1875 0 
z
" id="ArialMT-108"/>
      </defs>
      <use xlink:href="#ArialMT-108"/>
      <use x="22.216797" xlink:href="#ArialMT-111"/>
      <use x="77.832031" xlink:href="#ArialMT-115"/>
      <use x="127.832031" xlink:href="#ArialMT-115"/>
     </g>
    </g>
    <g id="line2d_41">
     <path d="M 216.170312 61.392813 
L 236.170312 61.392813 
" style="fill:none;stroke:#ff7f0e;stroke-linecap:round;stroke-width:1.5;"/>
    </g>
    <g id="line2d_42"/>
    <g id="text_22">
     <!-- 20 epoch moving average loss -->
     <g style="fill:#262626;" transform="translate(244.170312 64.892813)scale(0.1 -0.1)">
      <defs>
       <path id="ArialMT-32"/>
       <path d="M 42.09375 16.703125 
L 51.171875 15.578125 
Q 49.03125 7.625 43.21875 3.21875 
Q 37.40625 -1.171875 28.375 -1.171875 
Q 17 -1.171875 10.328125 5.828125 
Q 3.65625 12.84375 3.65625 25.484375 
Q 3.65625 38.578125 10.390625 45.796875 
Q 17.140625 53.03125 27.875 53.03125 
Q 38.28125 53.03125 44.875 45.953125 
Q 51.46875 38.875 51.46875 26.03125 
Q 51.46875 25.25 51.421875 23.6875 
L 12.75 23.6875 
Q 13.234375 15.140625 17.578125 10.59375 
Q 21.921875 6.0625 28.421875 6.0625 
Q 33.25 6.0625 36.671875 8.59375 
Q 40.09375 11.140625 42.09375 16.703125 
z
M 13.234375 30.90625 
L 42.1875 30.90625 
Q 41.609375 37.453125 38.875 40.71875 
Q 34.671875 45.796875 27.984375 45.796875 
Q 21.921875 45.796875 17.796875 41.75 
Q 13.671875 37.703125 13.234375 30.90625 
z
" id="ArialMT-101"/>
       <path d="M 6.59375 0 
L 6.59375 51.859375 
L 14.453125 51.859375 
L 14.453125 44.578125 
Q 16.890625 48.390625 20.9375 50.703125 
Q 25 53.03125 30.171875 53.03125 
Q 35.9375 53.03125 39.625 50.640625 
Q 43.3125 48.25 44.828125 43.953125 
Q 50.984375 53.03125 60.84375 53.03125 
Q 68.5625 53.03125 72.703125 48.75 
Q 76.859375 44.484375 76.859375 35.59375 
L 76.859375 0 
L 68.109375 0 
L 68.109375 32.671875 
Q 68.109375 37.9375 67.25 40.25 
Q 66.40625 42.578125 64.15625 43.984375 
Q 61.921875 45.40625 58.890625 45.40625 
Q 53.421875 45.40625 49.796875 41.765625 
Q 46.1875 38.140625 46.1875 30.125 
L 46.1875 0 
L 37.40625 0 
L 37.40625 33.6875 
Q 37.40625 39.546875 35.25 42.46875 
Q 33.109375 45.40625 28.21875 45.40625 
Q 24.515625 45.40625 21.359375 43.453125 
Q 18.21875 41.5 16.796875 37.734375 
Q 15.375 33.984375 15.375 26.90625 
L 15.375 0 
z
" id="ArialMT-109"/>
       <path d="M 21 0 
L 1.265625 51.859375 
L 10.546875 51.859375 
L 21.6875 20.796875 
Q 23.484375 15.765625 25 10.359375 
Q 26.171875 14.453125 28.265625 20.21875 
L 39.796875 51.859375 
L 48.828125 51.859375 
L 29.203125 0 
z
" id="ArialMT-118"/>
       <path d="M 6.640625 61.46875 
L 6.640625 71.578125 
L 15.4375 71.578125 
L 15.4375 61.46875 
z
M 6.640625 0 
L 6.640625 51.859375 
L 15.4375 51.859375 
L 15.4375 0 
z
" id="ArialMT-105"/>
       <path d="M 6.59375 0 
L 6.59375 51.859375 
L 14.5 51.859375 
L 14.5 44.484375 
Q 20.21875 53.03125 31 53.03125 
Q 35.6875 53.03125 39.625 51.34375 
Q 43.5625 49.65625 45.515625 46.921875 
Q 47.46875 44.1875 48.25 40.4375 
Q 48.734375 37.984375 48.734375 31.890625 
L 48.734375 0 
L 39.9375 0 
L 39.9375 31.546875 
Q 39.9375 36.921875 38.90625 39.578125 
Q 37.890625 42.234375 35.28125 43.8125 
Q 32.671875 45.40625 29.15625 45.40625 
Q 23.53125 45.40625 19.453125 41.84375 
Q 15.375 38.28125 15.375 28.328125 
L 15.375 0 
z
" id="ArialMT-110"/>
       <path d="M 4.984375 -4.296875 
L 13.53125 -5.5625 
Q 14.0625 -9.515625 16.5 -11.328125 
Q 19.78125 -13.765625 25.4375 -13.765625 
Q 31.546875 -13.765625 34.859375 -11.328125 
Q 38.1875 -8.890625 39.359375 -4.5 
Q 40.046875 -1.8125 39.984375 6.78125 
Q 34.234375 0 25.640625 0 
Q 14.9375 0 9.078125 7.71875 
Q 3.21875 15.4375 3.21875 26.21875 
Q 3.21875 33.640625 5.90625 39.90625 
Q 8.59375 46.1875 13.6875 49.609375 
Q 18.796875 53.03125 25.6875 53.03125 
Q 34.859375 53.03125 40.828125 45.609375 
L 40.828125 51.859375 
L 48.921875 51.859375 
L 48.921875 7.03125 
Q 48.921875 -5.078125 46.453125 -10.125 
Q 44 -15.1875 38.640625 -18.109375 
Q 33.296875 -21.046875 25.484375 -21.046875 
Q 16.21875 -21.046875 10.5 -16.875 
Q 4.78125 -12.703125 4.984375 -4.296875 
z
M 12.25 26.859375 
Q 12.25 16.65625 16.296875 11.96875 
Q 20.359375 7.28125 26.46875 7.28125 
Q 32.515625 7.28125 36.609375 11.9375 
Q 40.71875 16.609375 40.71875 26.5625 
Q 40.71875 36.078125 36.5 40.90625 
Q 32.28125 45.75 26.3125 45.75 
Q 20.453125 45.75 16.34375 40.984375 
Q 12.25 36.234375 12.25 26.859375 
z
" id="ArialMT-103"/>
       <path d="M 40.4375 6.390625 
Q 35.546875 2.25 31.03125 0.53125 
Q 26.515625 -1.171875 21.34375 -1.171875 
Q 12.796875 -1.171875 8.203125 3 
Q 3.609375 7.171875 3.609375 13.671875 
Q 3.609375 17.484375 5.34375 20.625 
Q 7.078125 23.78125 9.890625 25.6875 
Q 12.703125 27.59375 16.21875 28.5625 
Q 18.796875 29.25 24.03125 29.890625 
Q 34.671875 31.15625 39.703125 32.90625 
Q 39.75 34.71875 39.75 35.203125 
Q 39.75 40.578125 37.25 42.78125 
Q 33.890625 45.75 27.25 45.75 
Q 21.046875 45.75 18.09375 43.578125 
Q 15.140625 41.40625 13.71875 35.890625 
L 5.125 37.0625 
Q 6.296875 42.578125 8.984375 45.96875 
Q 11.671875 49.359375 16.75 51.1875 
Q 21.828125 53.03125 28.515625 53.03125 
Q 35.15625 53.03125 39.296875 51.46875 
Q 43.453125 49.90625 45.40625 47.53125 
Q 47.359375 45.171875 48.140625 41.546875 
Q 48.578125 39.3125 48.578125 33.453125 
L 48.578125 21.734375 
Q 48.578125 9.46875 49.140625 6.21875 
Q 49.703125 2.984375 51.375 0 
L 42.1875 0 
Q 40.828125 2.734375 40.4375 6.390625 
z
M 39.703125 26.03125 
Q 34.90625 24.078125 25.34375 22.703125 
Q 19.921875 21.921875 17.671875 20.9375 
Q 15.4375 19.96875 14.203125 18.09375 
Q 12.984375 16.21875 12.984375 13.921875 
Q 12.984375 10.40625 15.640625 8.0625 
Q 18.3125 5.71875 23.4375 5.71875 
Q 28.515625 5.71875 32.46875 7.9375 
Q 36.421875 10.15625 38.28125 14.015625 
Q 39.703125 17 39.703125 22.796875 
z
" id="ArialMT-97"/>
       <path d="M 6.5 0 
L 6.5 51.859375 
L 14.40625 51.859375 
L 14.40625 44 
Q 17.4375 49.515625 20 51.265625 
Q 22.5625 53.03125 25.640625 53.03125 
Q 30.078125 53.03125 34.671875 50.203125 
L 31.640625 42.046875 
Q 28.421875 43.953125 25.203125 43.953125 
Q 22.3125 43.953125 20.015625 42.21875 
Q 17.71875 40.484375 16.75 37.40625 
Q 15.28125 32.71875 15.28125 27.15625 
L 15.28125 0 
z
" id="ArialMT-114"/>
      </defs>
      <use xlink:href="#ArialMT-50"/>
      <use x="55.615234" xlink:href="#ArialMT-48"/>
      <use x="111.230469" xlink:href="#ArialMT-32"/>
      <use x="139.013672" xlink:href="#ArialMT-101"/>
      <use x="194.628906" xlink:href="#ArialMT-112"/>
      <use x="250.244141" xlink:href="#ArialMT-111"/>
      <use x="305.859375" xlink:href="#ArialMT-99"/>
      <use x="355.859375" xlink:href="#ArialMT-104"/>
      <use x="411.474609" xlink:href="#ArialMT-32"/>
      <use x="439.257812" xlink:href="#ArialMT-109"/>
      <use x="522.558594" xlink:href="#ArialMT-111"/>
      <use x="578.173828" xlink:href="#ArialMT-118"/>
      <use x="628.173828" xlink:href="#ArialMT-105"/>
      <use x="650.390625" xlink:href="#ArialMT-110"/>
      <use x="706.005859" xlink:href="#ArialMT-103"/>
      <use x="761.621094" xlink:href="#ArialMT-32"/>
      <use x="789.404297" xlink:href="#ArialMT-97"/>
      <use x="845.019531" xlink:href="#ArialMT-118"/>
      <use x="895.019531" xlink:href="#ArialMT-101"/>
      <use x="950.634766" xlink:href="#ArialMT-114"/>
      <use x="983.935547" xlink:href="#ArialMT-97"/>
      <use x="1039.550781" xlink:href="#ArialMT-103"/>
      <use x="1095.166016" xlink:href="#ArialMT-101"/>
      <use x="1150.78125" xlink:href="#ArialMT-32"/>
      <use x="1178.564453" xlink:href="#ArialMT-108"/>
      <use x="1200.78125" xlink:href="#ArialMT-111"/>
      <use x="1256.396484" xlink:href="#ArialMT-115"/>
      <use x="1306.396484" xlink:href="#ArialMT-115"/>
     </g>
    </g>
   </g>
  </g>
 </g>
 <defs>
  <clipPath id="p69cf06cea5">
   <rect height="217.44" width="334.8" x="54" y="34.56"/>
  </clipPath>
 </defs>
</svg>
