<?xml version="1.0" encoding="utf-8" standalone="no"?>
<!DOCTYPE svg PUBLIC "-//W3C//DTD SVG 1.1//EN"
  "http://www.w3.org/Graphics/SVG/1.1/DTD/svg11.dtd">
<svg height="288pt" version="1.1" viewBox="0 0 432 288" width="432pt" xmlns="http://www.w3.org/2000/svg" xmlns:xlink="http://www.w3.org/1999/xlink">
 <metadata>
  <rdf:RDF xmlns:cc="http://creativecommons.org/ns#" xmlns:dc="http://purl.org/dc/elements/1.1/" xmlns:rdf="http://www.w3.org/1999/02/22-rdf-syntax-ns#">
   <cc:Work>
    <dc:type rdf:resource="http://purl.org/dc/dcmitype/StillImage"/>
    <dc:date>2021-08-21T16:48:27.768727</dc:date>
    <dc:format>image/svg+xml</dc:format>
    <dc:creator>
     <cc:Agent>
      <dc:title>Matplotlib v3.4.3, https://matplotlib.org/</dc:title>
     </cc:Agent>
    </dc:creator>
   </cc:Work>
  </rdf:RDF>
 </metadata>
 <defs>
  <style type="text/css">*{stroke-linecap:butt;stroke-linejoin:round;}</style>
 </defs>
 <g id="figure_1">
  <g id="patch_1">
   <path d="M 0 288 
L 432 288 
L 432 0 
L 0 0 
z
" style="fill:#ffffff;"/>
  </g>
  <g id="axes_1">
   <g id="patch_2">
    <path d="M 54 252 
L 388.8 252 
L 388.8 34.56 
L 54 34.56 
z
" style="fill:#ffffff;"/>
   </g>
   <g id="matplotlib.axis_1">
    <g id="xtick_1">
     <g id="line2d_1">
      <path clip-path="url(#p4e9e579470)" d="M 69.218182 252 
L 69.218182 34.56 
" style="fill:none;stroke:#cccccc;stroke-linecap:round;stroke-width:0.8;"/>
     </g>
     <g id="line2d_2"/>
     <g id="text_1">
      <!-- 0 -->
      <g style="fill:#262626;" transform="translate(66.437713 262.657812)scale(0.1 -0.1)">
       <defs>
        <path d="M 266 2259 
Q 266 3072 433 3567 
Q 600 4063 929 4331 
Q 1259 4600 1759 4600 
Q 2128 4600 2406 4451 
Q 2684 4303 2865 4023 
Q 3047 3744 3150 3342 
Q 3253 2941 3253 2259 
Q 3253 1453 3087 958 
Q 2922 463 2592 192 
Q 2263 -78 1759 -78 
Q 1097 -78 719 397 
Q 266 969 266 2259 
z
M 844 2259 
Q 844 1131 1108 757 
Q 1372 384 1759 384 
Q 2147 384 2411 759 
Q 2675 1134 2675 2259 
Q 2675 3391 2411 3762 
Q 2147 4134 1753 4134 
Q 1366 4134 1134 3806 
Q 844 3388 844 2259 
z
" id="ArialMT-30" transform="scale(0.015625)"/>
       </defs>
       <use xlink:href="#ArialMT-30"/>
      </g>
     </g>
    </g>
    <g id="xtick_2">
     <g id="line2d_3">
      <path clip-path="url(#p4e9e579470)" d="M 115.056079 252 
L 115.056079 34.56 
" style="fill:none;stroke:#cccccc;stroke-linecap:round;stroke-width:0.8;"/>
     </g>
     <g id="line2d_4"/>
     <g id="text_2">
      <!-- 50 -->
      <g style="fill:#262626;" transform="translate(109.495141 262.657812)scale(0.1 -0.1)">
       <defs>
        <path d="M 266 1200 
L 856 1250 
Q 922 819 1161 601 
Q 1400 384 1738 384 
Q 2144 384 2425 690 
Q 2706 997 2706 1503 
Q 2706 1984 2436 2262 
Q 2166 2541 1728 2541 
Q 1456 2541 1237 2417 
Q 1019 2294 894 2097 
L 366 2166 
L 809 4519 
L 3088 4519 
L 3088 3981 
L 1259 3981 
L 1013 2750 
Q 1425 3038 1878 3038 
Q 2478 3038 2890 2622 
Q 3303 2206 3303 1553 
Q 3303 931 2941 478 
Q 2500 -78 1738 -78 
Q 1113 -78 717 272 
Q 322 622 266 1200 
z
" id="ArialMT-35" transform="scale(0.015625)"/>
       </defs>
       <use xlink:href="#ArialMT-35"/>
       <use x="55.615234" xlink:href="#ArialMT-30"/>
      </g>
     </g>
    </g>
    <g id="xtick_3">
     <g id="line2d_5">
      <path clip-path="url(#p4e9e579470)" d="M 160.893976 252 
L 160.893976 34.56 
" style="fill:none;stroke:#cccccc;stroke-linecap:round;stroke-width:0.8;"/>
     </g>
     <g id="line2d_6"/>
     <g id="text_3">
      <!-- 100 -->
      <g style="fill:#262626;" transform="translate(152.55257 262.657812)scale(0.1 -0.1)">
       <defs>
        <path d="M 2384 0 
L 1822 0 
L 1822 3584 
Q 1619 3391 1289 3197 
Q 959 3003 697 2906 
L 697 3450 
Q 1169 3672 1522 3987 
Q 1875 4303 2022 4600 
L 2384 4600 
L 2384 0 
z
" id="ArialMT-31" transform="scale(0.015625)"/>
       </defs>
       <use xlink:href="#ArialMT-31"/>
       <use x="55.615234" xlink:href="#ArialMT-30"/>
       <use x="111.230469" xlink:href="#ArialMT-30"/>
      </g>
     </g>
    </g>
    <g id="xtick_4">
     <g id="line2d_7">
      <path clip-path="url(#p4e9e579470)" d="M 206.731873 252 
L 206.731873 34.56 
" style="fill:none;stroke:#cccccc;stroke-linecap:round;stroke-width:0.8;"/>
     </g>
     <g id="line2d_8"/>
     <g id="text_4">
      <!-- 150 -->
      <g style="fill:#262626;" transform="translate(198.390467 262.657812)scale(0.1 -0.1)">
       <use xlink:href="#ArialMT-31"/>
       <use x="55.615234" xlink:href="#ArialMT-35"/>
       <use x="111.230469" xlink:href="#ArialMT-30"/>
      </g>
     </g>
    </g>
    <g id="xtick_5">
     <g id="line2d_9">
      <path clip-path="url(#p4e9e579470)" d="M 252.56977 252 
L 252.56977 34.56 
" style="fill:none;stroke:#cccccc;stroke-linecap:round;stroke-width:0.8;"/>
     </g>
     <g id="line2d_10"/>
     <g id="text_5">
      <!-- 200 -->
      <g style="fill:#262626;" transform="translate(244.228364 262.657812)scale(0.1 -0.1)">
       <defs>
        <path d="M 3222 541 
L 3222 0 
L 194 0 
Q 188 203 259 391 
Q 375 700 629 1000 
Q 884 1300 1366 1694 
Q 2113 2306 2375 2664 
Q 2638 3022 2638 3341 
Q 2638 3675 2398 3904 
Q 2159 4134 1775 4134 
Q 1369 4134 1125 3890 
Q 881 3647 878 3216 
L 300 3275 
Q 359 3922 746 4261 
Q 1134 4600 1788 4600 
Q 2447 4600 2831 4234 
Q 3216 3869 3216 3328 
Q 3216 3053 3103 2787 
Q 2991 2522 2730 2228 
Q 2469 1934 1863 1422 
Q 1356 997 1212 845 
Q 1069 694 975 541 
L 3222 541 
z
" id="ArialMT-32" transform="scale(0.015625)"/>
       </defs>
       <use xlink:href="#ArialMT-32"/>
       <use x="55.615234" xlink:href="#ArialMT-30"/>
       <use x="111.230469" xlink:href="#ArialMT-30"/>
      </g>
     </g>
    </g>
    <g id="xtick_6">
     <g id="line2d_11">
      <path clip-path="url(#p4e9e579470)" d="M 298.407667 252 
L 298.407667 34.56 
" style="fill:none;stroke:#cccccc;stroke-linecap:round;stroke-width:0.8;"/>
     </g>
     <g id="line2d_12"/>
     <g id="text_6">
      <!-- 250 -->
      <g style="fill:#262626;" transform="translate(290.066261 262.657812)scale(0.1 -0.1)">
       <use xlink:href="#ArialMT-32"/>
       <use x="55.615234" xlink:href="#ArialMT-35"/>
       <use x="111.230469" xlink:href="#ArialMT-30"/>
      </g>
     </g>
    </g>
    <g id="xtick_7">
     <g id="line2d_13">
      <path clip-path="url(#p4e9e579470)" d="M 344.245564 252 
L 344.245564 34.56 
" style="fill:none;stroke:#cccccc;stroke-linecap:round;stroke-width:0.8;"/>
     </g>
     <g id="line2d_14"/>
     <g id="text_7">
      <!-- 300 -->
      <g style="fill:#262626;" transform="translate(335.904158 262.657812)scale(0.1 -0.1)">
       <defs>
        <path d="M 269 1209 
L 831 1284 
Q 928 806 1161 595 
Q 1394 384 1728 384 
Q 2125 384 2398 659 
Q 2672 934 2672 1341 
Q 2672 1728 2419 1979 
Q 2166 2231 1775 2231 
Q 1616 2231 1378 2169 
L 1441 2663 
Q 1497 2656 1531 2656 
Q 1891 2656 2178 2843 
Q 2466 3031 2466 3422 
Q 2466 3731 2256 3934 
Q 2047 4138 1716 4138 
Q 1388 4138 1169 3931 
Q 950 3725 888 3313 
L 325 3413 
Q 428 3978 793 4289 
Q 1159 4600 1703 4600 
Q 2078 4600 2393 4439 
Q 2709 4278 2876 4000 
Q 3044 3722 3044 3409 
Q 3044 3113 2884 2869 
Q 2725 2625 2413 2481 
Q 2819 2388 3044 2092 
Q 3269 1797 3269 1353 
Q 3269 753 2831 336 
Q 2394 -81 1725 -81 
Q 1122 -81 723 278 
Q 325 638 269 1209 
z
" id="ArialMT-33" transform="scale(0.015625)"/>
       </defs>
       <use xlink:href="#ArialMT-33"/>
       <use x="55.615234" xlink:href="#ArialMT-30"/>
       <use x="111.230469" xlink:href="#ArialMT-30"/>
      </g>
     </g>
    </g>
    <g id="text_8">
     <!-- Epoch -->
     <g style="fill:#262626;" transform="translate(207.223438 275.803125)scale(0.1 -0.1)">
      <defs>
       <path d="M 506 0 
L 506 4581 
L 3819 4581 
L 3819 4041 
L 1113 4041 
L 1113 2638 
L 3647 2638 
L 3647 2100 
L 1113 2100 
L 1113 541 
L 3925 541 
L 3925 0 
L 506 0 
z
" id="ArialMT-45" transform="scale(0.015625)"/>
       <path d="M 422 -1272 
L 422 3319 
L 934 3319 
L 934 2888 
Q 1116 3141 1344 3267 
Q 1572 3394 1897 3394 
Q 2322 3394 2647 3175 
Q 2972 2956 3137 2557 
Q 3303 2159 3303 1684 
Q 3303 1175 3120 767 
Q 2938 359 2589 142 
Q 2241 -75 1856 -75 
Q 1575 -75 1351 44 
Q 1128 163 984 344 
L 984 -1272 
L 422 -1272 
z
M 931 1641 
Q 931 1000 1190 694 
Q 1450 388 1819 388 
Q 2194 388 2461 705 
Q 2728 1022 2728 1688 
Q 2728 2322 2467 2637 
Q 2206 2953 1844 2953 
Q 1484 2953 1207 2617 
Q 931 2281 931 1641 
z
" id="ArialMT-70" transform="scale(0.015625)"/>
       <path d="M 213 1659 
Q 213 2581 725 3025 
Q 1153 3394 1769 3394 
Q 2453 3394 2887 2945 
Q 3322 2497 3322 1706 
Q 3322 1066 3130 698 
Q 2938 331 2570 128 
Q 2203 -75 1769 -75 
Q 1072 -75 642 372 
Q 213 819 213 1659 
z
M 791 1659 
Q 791 1022 1069 705 
Q 1347 388 1769 388 
Q 2188 388 2466 706 
Q 2744 1025 2744 1678 
Q 2744 2294 2464 2611 
Q 2184 2928 1769 2928 
Q 1347 2928 1069 2612 
Q 791 2297 791 1659 
z
" id="ArialMT-6f" transform="scale(0.015625)"/>
       <path d="M 2588 1216 
L 3141 1144 
Q 3050 572 2676 248 
Q 2303 -75 1759 -75 
Q 1078 -75 664 370 
Q 250 816 250 1647 
Q 250 2184 428 2587 
Q 606 2991 970 3192 
Q 1334 3394 1763 3394 
Q 2303 3394 2647 3120 
Q 2991 2847 3088 2344 
L 2541 2259 
Q 2463 2594 2264 2762 
Q 2066 2931 1784 2931 
Q 1359 2931 1093 2626 
Q 828 2322 828 1663 
Q 828 994 1084 691 
Q 1341 388 1753 388 
Q 2084 388 2306 591 
Q 2528 794 2588 1216 
z
" id="ArialMT-63" transform="scale(0.015625)"/>
       <path d="M 422 0 
L 422 4581 
L 984 4581 
L 984 2938 
Q 1378 3394 1978 3394 
Q 2347 3394 2619 3248 
Q 2891 3103 3008 2847 
Q 3125 2591 3125 2103 
L 3125 0 
L 2563 0 
L 2563 2103 
Q 2563 2525 2380 2717 
Q 2197 2909 1863 2909 
Q 1613 2909 1392 2779 
Q 1172 2650 1078 2428 
Q 984 2206 984 1816 
L 984 0 
L 422 0 
z
" id="ArialMT-68" transform="scale(0.015625)"/>
      </defs>
      <use xlink:href="#ArialMT-45"/>
      <use x="66.699219" xlink:href="#ArialMT-70"/>
      <use x="122.314453" xlink:href="#ArialMT-6f"/>
      <use x="177.929688" xlink:href="#ArialMT-63"/>
      <use x="227.929688" xlink:href="#ArialMT-68"/>
     </g>
    </g>
   </g>
   <g id="matplotlib.axis_2">
    <g id="ytick_1">
     <g id="line2d_15">
      <path clip-path="url(#p4e9e579470)" d="M 54 227.395999 
L 388.8 227.395999 
" style="fill:none;stroke:#cccccc;stroke-linecap:round;stroke-width:0.8;"/>
     </g>
     <g id="line2d_16"/>
     <g id="text_9">
      <!-- 0.4 -->
      <g style="fill:#262626;" transform="translate(36.6 230.974905)scale(0.1 -0.1)">
       <defs>
        <path d="M 581 0 
L 581 641 
L 1222 641 
L 1222 0 
L 581 0 
z
" id="ArialMT-2e" transform="scale(0.015625)"/>
        <path d="M 2069 0 
L 2069 1097 
L 81 1097 
L 81 1613 
L 2172 4581 
L 2631 4581 
L 2631 1613 
L 3250 1613 
L 3250 1097 
L 2631 1097 
L 2631 0 
L 2069 0 
z
M 2069 1613 
L 2069 3678 
L 634 1613 
L 2069 1613 
z
" id="ArialMT-34" transform="scale(0.015625)"/>
       </defs>
       <use xlink:href="#ArialMT-30"/>
       <use x="55.615234" xlink:href="#ArialMT-2e"/>
       <use x="83.398438" xlink:href="#ArialMT-34"/>
      </g>
     </g>
    </g>
    <g id="ytick_2">
     <g id="line2d_17">
      <path clip-path="url(#p4e9e579470)" d="M 54 199.283508 
L 388.8 199.283508 
" style="fill:none;stroke:#cccccc;stroke-linecap:round;stroke-width:0.8;"/>
     </g>
     <g id="line2d_18"/>
     <g id="text_10">
      <!-- 0.6 -->
      <g style="fill:#262626;" transform="translate(36.6 202.862415)scale(0.1 -0.1)">
       <defs>
        <path d="M 3184 3459 
L 2625 3416 
Q 2550 3747 2413 3897 
Q 2184 4138 1850 4138 
Q 1581 4138 1378 3988 
Q 1113 3794 959 3422 
Q 806 3050 800 2363 
Q 1003 2672 1297 2822 
Q 1591 2972 1913 2972 
Q 2475 2972 2870 2558 
Q 3266 2144 3266 1488 
Q 3266 1056 3080 686 
Q 2894 316 2569 119 
Q 2244 -78 1831 -78 
Q 1128 -78 684 439 
Q 241 956 241 2144 
Q 241 3472 731 4075 
Q 1159 4600 1884 4600 
Q 2425 4600 2770 4297 
Q 3116 3994 3184 3459 
z
M 888 1484 
Q 888 1194 1011 928 
Q 1134 663 1356 523 
Q 1578 384 1822 384 
Q 2178 384 2434 671 
Q 2691 959 2691 1453 
Q 2691 1928 2437 2201 
Q 2184 2475 1800 2475 
Q 1419 2475 1153 2201 
Q 888 1928 888 1484 
z
" id="ArialMT-36" transform="scale(0.015625)"/>
       </defs>
       <use xlink:href="#ArialMT-30"/>
       <use x="55.615234" xlink:href="#ArialMT-2e"/>
       <use x="83.398438" xlink:href="#ArialMT-36"/>
      </g>
     </g>
    </g>
    <g id="ytick_3">
     <g id="line2d_19">
      <path clip-path="url(#p4e9e579470)" d="M 54 171.171018 
L 388.8 171.171018 
" style="fill:none;stroke:#cccccc;stroke-linecap:round;stroke-width:0.8;"/>
     </g>
     <g id="line2d_20"/>
     <g id="text_11">
      <!-- 0.8 -->
      <g style="fill:#262626;" transform="translate(36.6 174.749924)scale(0.1 -0.1)">
       <defs>
        <path d="M 1131 2484 
Q 781 2613 612 2850 
Q 444 3088 444 3419 
Q 444 3919 803 4259 
Q 1163 4600 1759 4600 
Q 2359 4600 2725 4251 
Q 3091 3903 3091 3403 
Q 3091 3084 2923 2848 
Q 2756 2613 2416 2484 
Q 2838 2347 3058 2040 
Q 3278 1734 3278 1309 
Q 3278 722 2862 322 
Q 2447 -78 1769 -78 
Q 1091 -78 675 323 
Q 259 725 259 1325 
Q 259 1772 486 2073 
Q 713 2375 1131 2484 
z
M 1019 3438 
Q 1019 3113 1228 2906 
Q 1438 2700 1772 2700 
Q 2097 2700 2305 2904 
Q 2513 3109 2513 3406 
Q 2513 3716 2298 3927 
Q 2084 4138 1766 4138 
Q 1444 4138 1231 3931 
Q 1019 3725 1019 3438 
z
M 838 1322 
Q 838 1081 952 856 
Q 1066 631 1291 507 
Q 1516 384 1775 384 
Q 2178 384 2440 643 
Q 2703 903 2703 1303 
Q 2703 1709 2433 1975 
Q 2163 2241 1756 2241 
Q 1359 2241 1098 1978 
Q 838 1716 838 1322 
z
" id="ArialMT-38" transform="scale(0.015625)"/>
       </defs>
       <use xlink:href="#ArialMT-30"/>
       <use x="55.615234" xlink:href="#ArialMT-2e"/>
       <use x="83.398438" xlink:href="#ArialMT-38"/>
      </g>
     </g>
    </g>
    <g id="ytick_4">
     <g id="line2d_21">
      <path clip-path="url(#p4e9e579470)" d="M 54 143.058527 
L 388.8 143.058527 
" style="fill:none;stroke:#cccccc;stroke-linecap:round;stroke-width:0.8;"/>
     </g>
     <g id="line2d_22"/>
     <g id="text_12">
      <!-- 1.0 -->
      <g style="fill:#262626;" transform="translate(36.6 146.637433)scale(0.1 -0.1)">
       <use xlink:href="#ArialMT-31"/>
       <use x="55.615234" xlink:href="#ArialMT-2e"/>
       <use x="83.398438" xlink:href="#ArialMT-30"/>
      </g>
     </g>
    </g>
    <g id="ytick_5">
     <g id="line2d_23">
      <path clip-path="url(#p4e9e579470)" d="M 54 114.946037 
L 388.8 114.946037 
" style="fill:none;stroke:#cccccc;stroke-linecap:round;stroke-width:0.8;"/>
     </g>
     <g id="line2d_24"/>
     <g id="text_13">
      <!-- 1.2 -->
      <g style="fill:#262626;" transform="translate(36.6 118.524943)scale(0.1 -0.1)">
       <use xlink:href="#ArialMT-31"/>
       <use x="55.615234" xlink:href="#ArialMT-2e"/>
       <use x="83.398438" xlink:href="#ArialMT-32"/>
      </g>
     </g>
    </g>
    <g id="ytick_6">
     <g id="line2d_25">
      <path clip-path="url(#p4e9e579470)" d="M 54 86.833546 
L 388.8 86.833546 
" style="fill:none;stroke:#cccccc;stroke-linecap:round;stroke-width:0.8;"/>
     </g>
     <g id="line2d_26"/>
     <g id="text_14">
      <!-- 1.4 -->
      <g style="fill:#262626;" transform="translate(36.6 90.412452)scale(0.1 -0.1)">
       <use xlink:href="#ArialMT-31"/>
       <use x="55.615234" xlink:href="#ArialMT-2e"/>
       <use x="83.398438" xlink:href="#ArialMT-34"/>
      </g>
     </g>
    </g>
    <g id="ytick_7">
     <g id="line2d_27">
      <path clip-path="url(#p4e9e579470)" d="M 54 58.721055 
L 388.8 58.721055 
" style="fill:none;stroke:#cccccc;stroke-linecap:round;stroke-width:0.8;"/>
     </g>
     <g id="line2d_28"/>
     <g id="text_15">
      <!-- 1.6 -->
      <g style="fill:#262626;" transform="translate(36.6 62.299962)scale(0.1 -0.1)">
       <use xlink:href="#ArialMT-31"/>
       <use x="55.615234" xlink:href="#ArialMT-2e"/>
       <use x="83.398438" xlink:href="#ArialMT-36"/>
      </g>
     </g>
    </g>
    <g id="text_16">
     <!-- Loss -->
     <g style="fill:#262626;" transform="translate(30.6125 153.840937)rotate(-90)scale(0.1 -0.1)">
      <defs>
       <path d="M 469 0 
L 469 4581 
L 1075 4581 
L 1075 541 
L 3331 541 
L 3331 0 
L 469 0 
z
" id="ArialMT-4c" transform="scale(0.015625)"/>
       <path d="M 197 991 
L 753 1078 
Q 800 744 1014 566 
Q 1228 388 1613 388 
Q 2000 388 2187 545 
Q 2375 703 2375 916 
Q 2375 1106 2209 1216 
Q 2094 1291 1634 1406 
Q 1016 1563 777 1677 
Q 538 1791 414 1992 
Q 291 2194 291 2438 
Q 291 2659 392 2848 
Q 494 3038 669 3163 
Q 800 3259 1026 3326 
Q 1253 3394 1513 3394 
Q 1903 3394 2198 3281 
Q 2494 3169 2634 2976 
Q 2775 2784 2828 2463 
L 2278 2388 
Q 2241 2644 2061 2787 
Q 1881 2931 1553 2931 
Q 1166 2931 1000 2803 
Q 834 2675 834 2503 
Q 834 2394 903 2306 
Q 972 2216 1119 2156 
Q 1203 2125 1616 2013 
Q 2213 1853 2448 1751 
Q 2684 1650 2818 1456 
Q 2953 1263 2953 975 
Q 2953 694 2789 445 
Q 2625 197 2315 61 
Q 2006 -75 1616 -75 
Q 969 -75 630 194 
Q 291 463 197 991 
z
" id="ArialMT-73" transform="scale(0.015625)"/>
      </defs>
      <use xlink:href="#ArialMT-4c"/>
      <use x="55.615234" xlink:href="#ArialMT-6f"/>
      <use x="111.230469" xlink:href="#ArialMT-73"/>
      <use x="161.230469" xlink:href="#ArialMT-73"/>
     </g>
    </g>
   </g>
   <g id="line2d_29">
    <path clip-path="url(#p4e9e579470)" d="M 69.218182 182.269476 
L 70.13494 190.884083 
L 71.051698 230.074237 
L 71.968456 216.101041 
L 72.885214 190.201387 
L 73.801972 221.947641 
L 74.718729 215.67558 
L 75.635487 232.825185 
L 76.552245 209.414059 
L 77.469003 172.996662 
L 78.385761 197.977708 
L 79.302519 234.691478 
L 80.219277 214.316749 
L 81.136035 183.852398 
L 82.052793 48.331227 
L 82.969551 173.131844 
L 83.886309 125.609252 
L 84.803067 179.281131 
L 85.719825 165.01485 
L 86.636583 203.898195 
L 87.553341 221.094714 
L 88.470099 134.603407 
L 89.386857 164.543561 
L 90.303614 178.747433 
L 91.220372 225.406793 
L 92.13713 109.062255 
L 93.053888 151.902118 
L 93.970646 185.517434 
L 94.887404 137.351951 
L 95.804162 193.197406 
L 96.72092 224.520001 
L 97.637678 222.056197 
L 98.554436 202.458029 
L 99.471194 212.034291 
L 100.387952 217.565873 
L 101.30471 220.538185 
L 102.221468 182.959284 
L 103.138226 216.445426 
L 104.054984 186.959201 
L 105.888499 139.768602 
L 106.805257 196.964677 
L 107.722015 224.387479 
L 108.638773 224.169793 
L 109.555531 210.854577 
L 110.472289 194.049835 
L 111.389047 221.834947 
L 112.305805 209.561616 
L 113.222563 209.493744 
L 114.139321 219.245973 
L 115.056079 183.538107 
L 115.972837 226.7673 
L 116.889595 180.879193 
L 117.806353 234.22021 
L 118.723111 199.458743 
L 119.639869 199.801628 
L 120.556627 213.179194 
L 121.473384 203.198827 
L 122.390142 202.644644 
L 123.3069 216.901814 
L 124.223658 196.145543 
L 125.140416 196.729728 
L 126.057174 219.338535 
L 126.973932 182.080682 
L 127.89069 232.366342 
L 128.807448 202.44449 
L 129.724206 184.746525 
L 130.640964 216.033538 
L 131.557722 213.301314 
L 132.47448 183.790894 
L 133.391238 210.615431 
L 134.307996 220.834308 
L 136.141512 229.021536 
L 137.058269 212.742138 
L 137.975027 225.480601 
L 138.891785 190.911396 
L 139.808543 226.219857 
L 140.725301 218.50825 
L 141.642059 205.788094 
L 142.558817 238.380866 
L 143.475575 219.10904 
L 144.392333 215.530881 
L 145.309091 229.548481 
L 146.225849 186.405018 
L 147.142607 239.564887 
L 148.059365 231.007523 
L 148.976123 207.553015 
L 149.892881 213.280009 
L 150.809639 229.583837 
L 151.726396 242.116364 
L 152.643154 233.399509 
L 154.47667 208.100856 
L 155.393428 218.578325 
L 156.310186 212.300265 
L 157.226944 215.862619 
L 158.143702 212.474313 
L 159.06046 223.04083 
L 159.977218 213.763995 
L 160.893976 218.173961 
L 161.810734 195.710498 
L 162.727492 225.296214 
L 163.64425 229.198286 
L 164.561008 226.570383 
L 165.477766 228.894313 
L 166.394524 212.474665 
L 167.311281 222.616442 
L 168.228039 218.172281 
L 169.144797 213.0323 
L 170.061555 235.860669 
L 170.978313 214.650268 
L 171.895071 231.022667 
L 172.811829 231.44481 
L 173.728587 226.246529 
L 174.645345 222.114702 
L 175.562103 230.771632 
L 176.478861 214.943248 
L 177.395619 221.218807 
L 178.312377 205.810589 
L 179.229135 231.420568 
L 180.145893 229.412373 
L 181.062651 234.720379 
L 181.979409 231.5193 
L 182.896166 221.759811 
L 183.812924 216.178455 
L 184.729682 229.302029 
L 185.64644 219.856357 
L 186.563198 187.607613 
L 187.479956 222.313751 
L 188.396714 225.73541 
L 189.313472 211.586 
L 190.23023 208.152934 
L 191.146988 210.664745 
L 192.063746 206.630612 
L 192.980504 230.181942 
L 193.897262 209.857993 
L 194.81402 221.315403 
L 195.730778 194.317534 
L 196.647536 215.066202 
L 197.564294 206.904611 
L 198.481051 226.52006 
L 199.397809 240.088544 
L 200.314567 221.911427 
L 202.148083 211.444803 
L 203.064841 188.099027 
L 203.981599 202.48804 
L 204.898357 206.845235 
L 205.815115 219.929239 
L 206.731873 221.035836 
L 207.648631 206.824114 
L 208.565389 212.963925 
L 209.482147 214.157061 
L 210.398905 224.416958 
L 211.315663 228.121414 
L 212.232421 218.410715 
L 213.149179 217.291412 
L 214.065936 222.257919 
L 214.982694 191.16311 
L 215.899452 194.563995 
L 216.81621 199.211603 
L 217.732968 177.900668 
L 218.649726 198.528807 
L 219.566484 222.28077 
L 220.483242 203.416769 
L 222.316758 220.026756 
L 223.233516 217.763028 
L 224.150274 224.102483 
L 225.067032 178.070854 
L 225.98379 207.099722 
L 226.900548 217.341844 
L 227.817306 215.866821 
L 228.734064 184.08418 
L 229.650821 204.012624 
L 230.567579 228.574732 
L 231.484337 203.928508 
L 232.401095 221.635006 
L 233.317853 220.796568 
L 234.234611 209.835816 
L 235.151369 179.746975 
L 236.068127 227.275298 
L 236.984885 212.231388 
L 237.901643 220.016439 
L 238.818401 171.529275 
L 239.735159 206.049912 
L 240.651917 206.64431 
L 241.568675 215.066734 
L 242.485433 217.658669 
L 243.402191 188.368971 
L 244.318949 173.767371 
L 245.235706 226.396519 
L 246.152464 209.673045 
L 247.069222 164.893032 
L 247.98598 209.701983 
L 248.902738 204.848917 
L 249.819496 224.563216 
L 250.736254 226.22798 
L 251.653012 187.234416 
L 252.56977 219.13056 
L 253.486528 206.728996 
L 254.403286 164.516734 
L 255.320044 219.030478 
L 256.236802 215.88475 
L 257.15356 216.760009 
L 258.070318 217.402352 
L 258.987076 170.509819 
L 259.903834 224.575833 
L 260.820591 155.885991 
L 261.737349 208.127372 
L 262.654107 144.67213 
L 263.570865 202.278217 
L 264.487623 215.682015 
L 265.404381 206.469265 
L 266.321139 187.925422 
L 267.237897 212.276019 
L 268.154655 186.815834 
L 269.071413 207.710843 
L 269.988171 175.01757 
L 270.904929 179.169995 
L 271.821687 199.46625 
L 272.738445 193.003979 
L 273.655203 196.659209 
L 274.571961 141.720214 
L 275.488719 140.670077 
L 276.405476 219.553695 
L 277.322234 191.257305 
L 278.238992 201.799228 
L 279.15575 197.298288 
L 280.072508 175.358646 
L 280.989266 118.070419 
L 281.906024 183.040192 
L 282.822782 205.756542 
L 283.73954 206.549595 
L 284.656298 166.638809 
L 285.573056 194.140311 
L 286.489814 206.126019 
L 287.406572 146.633386 
L 288.32333 180.3979 
L 289.240088 182.175355 
L 290.156846 203.289228 
L 291.073604 213.922632 
L 291.990361 143.15336 
L 292.907119 129.700532 
L 293.823877 200.317916 
L 294.740635 149.624696 
L 295.657393 157.111885 
L 296.574151 199.900901 
L 297.490909 201.02387 
L 298.407667 205.785488 
L 299.324425 199.735952 
L 300.241183 147.607449 
L 301.157941 190.573118 
L 302.074699 173.932186 
L 302.991457 139.362395 
L 303.908215 128.636923 
L 304.824973 206.821383 
L 305.741731 205.783385 
L 306.658488 208.175287 
L 307.575246 173.181476 
L 308.492004 165.514491 
L 309.408762 183.983868 
L 310.32552 178.756909 
L 311.242278 180.391583 
L 312.159036 195.886281 
L 313.075794 107.594751 
L 313.992552 129.968416 
L 314.90931 192.79248 
L 315.826068 89.306167 
L 316.742826 164.313714 
L 317.659584 175.174837 
L 318.576342 169.401051 
L 319.4931 170.96927 
L 320.409858 145.877071 
L 321.326616 138.708311 
L 322.243373 201.675323 
L 323.160131 134.424114 
L 324.076889 208.732729 
L 324.993647 201.903168 
L 325.910405 186.214943 
L 326.827163 188.651517 
L 328.660679 133.589497 
L 329.577437 181.938077 
L 330.494195 196.598007 
L 331.410953 195.65893 
L 333.244469 86.79573 
L 334.161227 158.140155 
L 335.077985 149.250686 
L 335.994743 159.278104 
L 336.911501 191.808765 
L 337.828258 136.922352 
L 338.745016 153.315491 
L 339.661774 127.142123 
L 340.578532 177.876296 
L 341.49529 161.371509 
L 342.412048 201.423768 
L 343.328806 182.323448 
L 344.245564 167.505749 
L 345.162322 123.916458 
L 346.07908 88.762323 
L 346.995838 162.751503 
L 347.912596 120.145307 
L 348.829354 173.191547 
L 349.746112 77.04588 
L 350.66287 194.632864 
L 351.579628 137.247995 
L 352.496386 171.570747 
L 353.413143 201.263611 
L 354.329901 137.962619 
L 355.246659 151.726495 
L 356.163417 145.733628 
L 357.080175 111.796875 
L 357.996933 135.131869 
L 358.913691 183.405866 
L 359.830449 138.873143 
L 360.747207 142.224413 
L 361.663965 44.558468 
L 362.580723 136.079491 
L 363.497481 134.410726 
L 364.414239 81.632127 
L 365.330997 114.10528 
L 366.247755 118.233844 
L 367.164513 48.596731 
L 368.081271 169.159575 
L 368.998028 174.379757 
L 369.914786 120.257206 
L 370.831544 44.443636 
L 371.748302 165.471067 
L 372.66506 92.303291 
L 373.581818 186.340883 
L 373.581818 186.340883 
" style="fill:none;stroke:#1f77b4;stroke-linecap:round;stroke-width:1.5;"/>
   </g>
   <g id="line2d_30">
    <path clip-path="url(#p4e9e579470)" d="M 69.218182 189.424709 
L 70.13494 191.365971 
L 71.051698 188.551937 
L 71.968456 185.275404 
L 72.885214 183.407723 
L 73.801972 185.167993 
L 74.718729 179.523724 
L 75.635487 176.335051 
L 76.552245 173.969664 
L 77.469003 170.366558 
L 78.385761 171.376595 
L 79.302519 172.70371 
L 81.136035 171.47901 
L 82.052793 172.888105 
L 82.969551 181.349837 
L 83.886309 183.720154 
L 84.803067 186.587656 
L 85.719825 188.44587 
L 86.636583 189.543088 
L 87.553341 187.476094 
L 88.470099 183.409788 
L 90.303614 189.520048 
L 91.220372 191.791166 
L 92.13713 191.063555 
L 93.053888 195.312934 
L 93.970646 198.809575 
L 94.887404 200.011784 
L 95.804162 203.618874 
L 96.72092 204.921303 
L 97.637678 202.872208 
L 98.554436 203.107763 
L 99.471194 202.028821 
L 100.387952 203.138117 
L 102.221468 201.195933 
L 103.138226 202.706928 
L 104.054984 202.044598 
L 104.971742 202.82887 
L 106.805257 208.364892 
L 107.722015 208.353145 
L 108.638773 208.100698 
L 109.555531 205.996242 
L 110.472289 207.07183 
L 111.389047 207.491563 
L 112.305805 205.637142 
L 113.222563 205.960738 
L 114.139321 206.151117 
L 115.056079 204.378363 
L 115.972837 205.732229 
L 116.889595 205.435579 
L 117.806353 207.637265 
L 118.723111 207.377332 
L 119.639869 208.041501 
L 120.556627 209.32545 
L 121.473384 208.21206 
L 122.390142 209.363112 
L 123.3069 210.156292 
L 124.223658 209.600606 
L 125.140416 211.712372 
L 126.057174 212.831338 
L 126.973932 212.640955 
L 127.89069 215.014345 
L 128.807448 212.716279 
L 129.724206 214.572299 
L 130.640964 216.885348 
L 131.557722 216.461322 
L 132.47448 216.460257 
L 133.391238 218.749904 
L 134.307996 220.324951 
L 135.224754 220.953211 
L 136.141512 220.743313 
L 137.058269 219.697279 
L 137.975027 219.989088 
L 138.891785 219.330071 
L 139.808543 220.577633 
L 140.725301 219.890355 
L 141.642059 220.116984 
L 142.558817 220.515779 
L 144.392333 218.335507 
L 145.309091 218.823774 
L 146.225849 218.806264 
L 147.142607 220.814532 
L 148.059365 220.281004 
L 148.976123 219.354361 
L 149.892881 220.107532 
L 150.809639 220.352146 
L 151.726396 219.524569 
L 152.643154 219.211784 
L 153.559912 218.274322 
L 154.47667 218.789707 
L 155.393428 219.956905 
L 157.226944 220.831037 
L 158.143702 221.576488 
L 159.06046 221.699935 
L 159.977218 221.608833 
L 160.893976 221.211163 
L 161.810734 221.873494 
L 162.727492 223.558587 
L 163.64425 224.029796 
L 164.561008 224.145846 
L 165.477766 223.905318 
L 166.394524 223.269525 
L 167.311281 224.110893 
L 168.228039 223.972889 
L 169.144797 222.444655 
L 170.061555 222.908728 
L 170.978313 222.402465 
L 171.895071 222.249252 
L 173.728587 220.066762 
L 174.645345 219.085966 
L 175.562103 219.489328 
L 176.478861 218.443646 
L 177.395619 218.762254 
L 178.312377 217.41719 
L 179.229135 217.879971 
L 180.145893 216.654173 
L 181.062651 216.509557 
L 181.979409 216.777965 
L 182.896166 216.297572 
L 184.729682 215.813944 
L 185.64644 213.753794 
L 186.563198 212.885379 
L 187.479956 213.84726 
L 188.396714 213.728034 
L 190.23023 213.254961 
L 192.063746 213.670126 
L 192.980504 214.559444 
L 193.897262 214.456417 
L 194.81402 214.884053 
L 195.730778 214.682854 
L 196.647536 216.079873 
L 197.564294 214.884718 
L 198.481051 214.267688 
L 199.397809 212.902265 
L 200.314567 209.792871 
L 201.231325 208.62374 
L 202.148083 208.896733 
L 203.064841 208.495331 
L 203.981599 209.65582 
L 204.898357 210.532756 
L 205.815115 211.078645 
L 206.731873 211.287308 
L 207.648631 209.139058 
L 208.565389 209.152839 
L 209.482147 209.371735 
L 210.398905 209.457223 
L 211.315663 207.440584 
L 212.232421 206.235144 
L 213.149179 206.743345 
L 214.065936 206.0752 
L 214.982694 206.044054 
L 215.899452 207.525727 
L 216.81621 208.289318 
L 217.732968 207.316087 
L 218.649726 209.784818 
L 219.566484 210.469948 
L 220.483242 210.356731 
L 221.4 208.762356 
L 222.316758 208.499411 
L 223.233516 207.830289 
L 224.150274 207.695474 
L 225.067032 207.373284 
L 225.98379 207.88819 
L 226.900548 206.221572 
L 227.817306 206.674306 
L 228.734064 206.364617 
L 229.650821 205.40506 
L 230.567579 205.689528 
L 231.484337 204.503237 
L 232.401095 205.534972 
L 233.317853 205.764621 
L 234.234611 204.086513 
L 235.151369 204.55125 
L 236.068127 205.900352 
L 236.984885 202.762423 
L 237.901643 203.102378 
L 238.818401 202.895793 
L 239.735159 205.15733 
L 240.651917 205.724952 
L 241.568675 203.918228 
L 242.485433 204.393683 
L 243.402191 201.305049 
L 244.318949 202.292969 
L 245.235706 200.838207 
L 246.152464 199.632291 
L 247.069222 199.93274 
L 247.98598 202.011552 
L 248.902738 200.922724 
L 249.819496 201.294079 
L 250.736254 199.40671 
L 251.653012 198.480853 
L 252.56977 197.87001 
L 253.486528 195.871982 
L 254.403286 195.508845 
L 255.320044 196.933207 
L 256.236802 195.814644 
L 258.070318 188.30192 
L 258.987076 188.409487 
L 259.903834 189.446862 
L 260.820591 188.308031 
L 261.737349 190.378646 
L 262.654107 188.74021 
L 263.570865 187.410124 
L 264.487623 186.448223 
L 265.404381 185.95195 
L 266.321139 185.955966 
L 268.154655 183.98485 
L 269.071413 184.950359 
L 269.988171 181.896486 
L 270.904929 182.165503 
L 272.738445 182.50692 
L 273.655203 183.552852 
L 274.571961 180.87756 
L 275.488719 180.276576 
L 276.405476 183.258968 
L 277.322234 179.762518 
L 278.238992 178.055247 
L 279.15575 177.960331 
L 280.072508 178.14661 
L 280.989266 179.667952 
L 281.906024 183.751228 
L 282.822782 181.979591 
L 283.73954 181.22042 
L 284.656298 179.58955 
L 285.573056 178.225729 
L 286.489814 174.95056 
L 287.406572 174.985328 
L 288.32333 177.942828 
L 289.240088 179.331697 
L 290.156846 178.882003 
L 291.073604 176.993266 
L 291.990361 175.496328 
L 292.907119 177.276506 
L 293.823877 179.811058 
L 294.740635 179.589476 
L 295.657393 177.487979 
L 296.574151 176.130806 
L 297.490909 175.775385 
L 298.407667 170.189499 
L 299.324425 168.115911 
L 300.241183 166.887855 
L 301.157941 167.977535 
L 302.074699 166.997343 
L 302.991457 165.594587 
L 303.908215 165.561883 
L 304.824973 169.213803 
L 305.741731 165.593939 
L 306.658488 165.741406 
L 307.575246 165.4278 
L 308.492004 166.079474 
L 309.408762 167.236325 
L 310.32552 166.03882 
L 311.242278 163.780449 
L 313.075794 163.89336 
L 313.992552 168.296569 
L 314.90931 168.919583 
L 315.826068 163.619745 
L 316.742826 167.061444 
L 318.576342 165.513456 
L 319.4931 166.633842 
L 320.409858 164.931496 
L 321.326616 165.303417 
L 322.243373 164.725108 
L 323.160131 163.535156 
L 324.076889 164.882526 
L 324.993647 164.517078 
L 326.827163 162.602633 
L 328.660679 155.802308 
L 329.577437 157.260408 
L 330.494195 154.17077 
L 331.410953 153.000447 
L 332.327711 147.069794 
L 334.161227 152.202616 
L 335.077985 152.874146 
L 335.994743 155.474792 
L 336.911501 154.409018 
L 337.828258 152.404904 
L 338.745016 152.845468 
L 339.661774 150.769537 
L 340.578532 151.169025 
L 341.49529 151.445503 
L 342.412048 150.320585 
L 343.328806 147.360617 
L 344.245564 140.472368 
L 345.162322 138.901055 
L 346.07908 139.425768 
L 346.995838 139.069259 
L 347.912596 136.636947 
L 348.829354 136.541374 
L 349.746112 130.311634 
L 350.66287 134.917318 
L 352.496386 133.055123 
L 353.413143 126.698768 
L 354.329901 124.909141 
L 355.246659 122.626174 
L 356.163417 124.356894 
L 356.163417 124.356894 
" style="fill:none;stroke:#ff7f0e;stroke-linecap:round;stroke-width:1.5;"/>
   </g>
   <g id="patch_3">
    <path d="M 54 252 
L 54 34.56 
" style="fill:none;stroke:#cccccc;stroke-linecap:square;stroke-linejoin:miter;"/>
   </g>
   <g id="patch_4">
    <path d="M 388.8 252 
L 388.8 34.56 
" style="fill:none;stroke:#cccccc;stroke-linecap:square;stroke-linejoin:miter;"/>
   </g>
   <g id="patch_5">
    <path d="M 54 252 
L 388.8 252 
" style="fill:none;stroke:#cccccc;stroke-linecap:square;stroke-linejoin:miter;"/>
   </g>
   <g id="patch_6">
    <path d="M 54 34.56 
L 388.8 34.56 
" style="fill:none;stroke:#cccccc;stroke-linecap:square;stroke-linejoin:miter;"/>
   </g>
   <g id="legend_1">
    <g id="line2d_31">
     <path d="M 139.585156 47.217813 
L 159.585156 47.217813 
" style="fill:none;stroke:#1f77b4;stroke-linecap:round;stroke-width:1.5;"/>
    </g>
    <g id="line2d_32"/>
    <g id="text_17">
     <!-- loss -->
     <g style="fill:#262626;" transform="translate(167.585156 50.717813)scale(0.1 -0.1)">
      <defs>
       <path d="M 409 0 
L 409 4581 
L 972 4581 
L 972 0 
L 409 0 
z
" id="ArialMT-6c" transform="scale(0.015625)"/>
      </defs>
      <use xlink:href="#ArialMT-6c"/>
      <use x="22.216797" xlink:href="#ArialMT-6f"/>
      <use x="77.832031" xlink:href="#ArialMT-73"/>
      <use x="127.832031" xlink:href="#ArialMT-73"/>
     </g>
    </g>
    <g id="line2d_33">
     <path d="M 139.585156 61.392813 
L 159.585156 61.392813 
" style="fill:none;stroke:#ff7f0e;stroke-linecap:round;stroke-width:1.5;"/>
    </g>
    <g id="line2d_34"/>
    <g id="text_18">
     <!-- 20 epoch moving average loss -->
     <g style="fill:#262626;" transform="translate(167.585156 64.892813)scale(0.1 -0.1)">
      <defs>
       <path id="ArialMT-20" transform="scale(0.015625)"/>
       <path d="M 2694 1069 
L 3275 997 
Q 3138 488 2766 206 
Q 2394 -75 1816 -75 
Q 1088 -75 661 373 
Q 234 822 234 1631 
Q 234 2469 665 2931 
Q 1097 3394 1784 3394 
Q 2450 3394 2872 2941 
Q 3294 2488 3294 1666 
Q 3294 1616 3291 1516 
L 816 1516 
Q 847 969 1125 678 
Q 1403 388 1819 388 
Q 2128 388 2347 550 
Q 2566 713 2694 1069 
z
M 847 1978 
L 2700 1978 
Q 2663 2397 2488 2606 
Q 2219 2931 1791 2931 
Q 1403 2931 1139 2672 
Q 875 2413 847 1978 
z
" id="ArialMT-65" transform="scale(0.015625)"/>
       <path d="M 422 0 
L 422 3319 
L 925 3319 
L 925 2853 
Q 1081 3097 1340 3245 
Q 1600 3394 1931 3394 
Q 2300 3394 2536 3241 
Q 2772 3088 2869 2813 
Q 3263 3394 3894 3394 
Q 4388 3394 4653 3120 
Q 4919 2847 4919 2278 
L 4919 0 
L 4359 0 
L 4359 2091 
Q 4359 2428 4304 2576 
Q 4250 2725 4106 2815 
Q 3963 2906 3769 2906 
Q 3419 2906 3187 2673 
Q 2956 2441 2956 1928 
L 2956 0 
L 2394 0 
L 2394 2156 
Q 2394 2531 2256 2718 
Q 2119 2906 1806 2906 
Q 1569 2906 1367 2781 
Q 1166 2656 1075 2415 
Q 984 2175 984 1722 
L 984 0 
L 422 0 
z
" id="ArialMT-6d" transform="scale(0.015625)"/>
       <path d="M 1344 0 
L 81 3319 
L 675 3319 
L 1388 1331 
Q 1503 1009 1600 663 
Q 1675 925 1809 1294 
L 2547 3319 
L 3125 3319 
L 1869 0 
L 1344 0 
z
" id="ArialMT-76" transform="scale(0.015625)"/>
       <path d="M 425 3934 
L 425 4581 
L 988 4581 
L 988 3934 
L 425 3934 
z
M 425 0 
L 425 3319 
L 988 3319 
L 988 0 
L 425 0 
z
" id="ArialMT-69" transform="scale(0.015625)"/>
       <path d="M 422 0 
L 422 3319 
L 928 3319 
L 928 2847 
Q 1294 3394 1984 3394 
Q 2284 3394 2536 3286 
Q 2788 3178 2913 3003 
Q 3038 2828 3088 2588 
Q 3119 2431 3119 2041 
L 3119 0 
L 2556 0 
L 2556 2019 
Q 2556 2363 2490 2533 
Q 2425 2703 2258 2804 
Q 2091 2906 1866 2906 
Q 1506 2906 1245 2678 
Q 984 2450 984 1813 
L 984 0 
L 422 0 
z
" id="ArialMT-6e" transform="scale(0.015625)"/>
       <path d="M 319 -275 
L 866 -356 
Q 900 -609 1056 -725 
Q 1266 -881 1628 -881 
Q 2019 -881 2231 -725 
Q 2444 -569 2519 -288 
Q 2563 -116 2559 434 
Q 2191 0 1641 0 
Q 956 0 581 494 
Q 206 988 206 1678 
Q 206 2153 378 2554 
Q 550 2956 876 3175 
Q 1203 3394 1644 3394 
Q 2231 3394 2613 2919 
L 2613 3319 
L 3131 3319 
L 3131 450 
Q 3131 -325 2973 -648 
Q 2816 -972 2473 -1159 
Q 2131 -1347 1631 -1347 
Q 1038 -1347 672 -1080 
Q 306 -813 319 -275 
z
M 784 1719 
Q 784 1066 1043 766 
Q 1303 466 1694 466 
Q 2081 466 2343 764 
Q 2606 1063 2606 1700 
Q 2606 2309 2336 2618 
Q 2066 2928 1684 2928 
Q 1309 2928 1046 2623 
Q 784 2319 784 1719 
z
" id="ArialMT-67" transform="scale(0.015625)"/>
       <path d="M 2588 409 
Q 2275 144 1986 34 
Q 1697 -75 1366 -75 
Q 819 -75 525 192 
Q 231 459 231 875 
Q 231 1119 342 1320 
Q 453 1522 633 1644 
Q 813 1766 1038 1828 
Q 1203 1872 1538 1913 
Q 2219 1994 2541 2106 
Q 2544 2222 2544 2253 
Q 2544 2597 2384 2738 
Q 2169 2928 1744 2928 
Q 1347 2928 1158 2789 
Q 969 2650 878 2297 
L 328 2372 
Q 403 2725 575 2942 
Q 747 3159 1072 3276 
Q 1397 3394 1825 3394 
Q 2250 3394 2515 3294 
Q 2781 3194 2906 3042 
Q 3031 2891 3081 2659 
Q 3109 2516 3109 2141 
L 3109 1391 
Q 3109 606 3145 398 
Q 3181 191 3288 0 
L 2700 0 
Q 2613 175 2588 409 
z
M 2541 1666 
Q 2234 1541 1622 1453 
Q 1275 1403 1131 1340 
Q 988 1278 909 1158 
Q 831 1038 831 891 
Q 831 666 1001 516 
Q 1172 366 1500 366 
Q 1825 366 2078 508 
Q 2331 650 2450 897 
Q 2541 1088 2541 1459 
L 2541 1666 
z
" id="ArialMT-61" transform="scale(0.015625)"/>
       <path d="M 416 0 
L 416 3319 
L 922 3319 
L 922 2816 
Q 1116 3169 1280 3281 
Q 1444 3394 1641 3394 
Q 1925 3394 2219 3213 
L 2025 2691 
Q 1819 2813 1613 2813 
Q 1428 2813 1281 2702 
Q 1134 2591 1072 2394 
Q 978 2094 978 1738 
L 978 0 
L 416 0 
z
" id="ArialMT-72" transform="scale(0.015625)"/>
      </defs>
      <use xlink:href="#ArialMT-32"/>
      <use x="55.615234" xlink:href="#ArialMT-30"/>
      <use x="111.230469" xlink:href="#ArialMT-20"/>
      <use x="139.013672" xlink:href="#ArialMT-65"/>
      <use x="194.628906" xlink:href="#ArialMT-70"/>
      <use x="250.244141" xlink:href="#ArialMT-6f"/>
      <use x="305.859375" xlink:href="#ArialMT-63"/>
      <use x="355.859375" xlink:href="#ArialMT-68"/>
      <use x="411.474609" xlink:href="#ArialMT-20"/>
      <use x="439.257812" xlink:href="#ArialMT-6d"/>
      <use x="522.558594" xlink:href="#ArialMT-6f"/>
      <use x="578.173828" xlink:href="#ArialMT-76"/>
      <use x="628.173828" xlink:href="#ArialMT-69"/>
      <use x="650.390625" xlink:href="#ArialMT-6e"/>
      <use x="706.005859" xlink:href="#ArialMT-67"/>
      <use x="761.621094" xlink:href="#ArialMT-20"/>
      <use x="789.404297" xlink:href="#ArialMT-61"/>
      <use x="845.019531" xlink:href="#ArialMT-76"/>
      <use x="895.019531" xlink:href="#ArialMT-65"/>
      <use x="950.634766" xlink:href="#ArialMT-72"/>
      <use x="983.935547" xlink:href="#ArialMT-61"/>
      <use x="1039.550781" xlink:href="#ArialMT-67"/>
      <use x="1095.166016" xlink:href="#ArialMT-65"/>
      <use x="1150.78125" xlink:href="#ArialMT-20"/>
      <use x="1178.564453" xlink:href="#ArialMT-6c"/>
      <use x="1200.78125" xlink:href="#ArialMT-6f"/>
      <use x="1256.396484" xlink:href="#ArialMT-73"/>
      <use x="1306.396484" xlink:href="#ArialMT-73"/>
     </g>
    </g>
   </g>
  </g>
 </g>
 <defs>
  <clipPath id="p4e9e579470">
   <rect height="217.44" width="334.8" x="54" y="34.56"/>
  </clipPath>
 </defs>
</svg>
