<?xml version="1.0" encoding="utf-8" standalone="no"?>
<!DOCTYPE svg PUBLIC "-//W3C//DTD SVG 1.1//EN"
  "http://www.w3.org/Graphics/SVG/1.1/DTD/svg11.dtd">
<svg height="288pt" version="1.1" viewBox="0 0 432 288" width="432pt" xmlns="http://www.w3.org/2000/svg" xmlns:xlink="http://www.w3.org/1999/xlink">
 <metadata>
  <rdf:RDF xmlns:cc="http://creativecommons.org/ns#" xmlns:dc="http://purl.org/dc/elements/1.1/" xmlns:rdf="http://www.w3.org/1999/02/22-rdf-syntax-ns#">
   <cc:Work>
    <dc:type rdf:resource="http://purl.org/dc/dcmitype/StillImage"/>
    <dc:date>2021-08-21T21:24:15.215750</dc:date>
    <dc:format>image/svg+xml</dc:format>
    <dc:creator>
     <cc:Agent>
      <dc:title>Matplotlib v3.4.3, https://matplotlib.org/</dc:title>
     </cc:Agent>
    </dc:creator>
   </cc:Work>
  </rdf:RDF>
 </metadata>
 <defs>
  <style type="text/css">*{stroke-linecap:butt;stroke-linejoin:round;}</style>
 </defs>
 <g id="figure_1">
  <g id="patch_1">
   <path d="M 0 288 
L 432 288 
L 432 0 
L 0 0 
z
" style="fill:#ffffff;"/>
  </g>
  <g id="axes_1">
   <g id="patch_2">
    <path d="M 54 252 
L 388.8 252 
L 388.8 34.56 
L 54 34.56 
z
" style="fill:#ffffff;"/>
   </g>
   <g id="matplotlib.axis_1">
    <g id="xtick_1">
     <g id="line2d_1">
      <path clip-path="url(#pae43aedd0e)" d="M 69.218182 252 
L 69.218182 34.56 
" style="fill:none;stroke:#cccccc;stroke-linecap:round;stroke-width:0.8;"/>
     </g>
     <g id="line2d_2"/>
     <g id="text_1">
      <!-- 0 -->
      <g style="fill:#262626;" transform="translate(66.437713 262.657812)scale(0.1 -0.1)">
       <defs>
        <path d="M 266 2259 
Q 266 3072 433 3567 
Q 600 4063 929 4331 
Q 1259 4600 1759 4600 
Q 2128 4600 2406 4451 
Q 2684 4303 2865 4023 
Q 3047 3744 3150 3342 
Q 3253 2941 3253 2259 
Q 3253 1453 3087 958 
Q 2922 463 2592 192 
Q 2263 -78 1759 -78 
Q 1097 -78 719 397 
Q 266 969 266 2259 
z
M 844 2259 
Q 844 1131 1108 757 
Q 1372 384 1759 384 
Q 2147 384 2411 759 
Q 2675 1134 2675 2259 
Q 2675 3391 2411 3762 
Q 2147 4134 1753 4134 
Q 1366 4134 1134 3806 
Q 844 3388 844 2259 
z
" id="ArialMT-30" transform="scale(0.015625)"/>
       </defs>
       <use xlink:href="#ArialMT-30"/>
      </g>
     </g>
    </g>
    <g id="xtick_2">
     <g id="line2d_3">
      <path clip-path="url(#pae43aedd0e)" d="M 115.056079 252 
L 115.056079 34.56 
" style="fill:none;stroke:#cccccc;stroke-linecap:round;stroke-width:0.8;"/>
     </g>
     <g id="line2d_4"/>
     <g id="text_2">
      <!-- 50 -->
      <g style="fill:#262626;" transform="translate(109.495141 262.657812)scale(0.1 -0.1)">
       <defs>
        <path d="M 266 1200 
L 856 1250 
Q 922 819 1161 601 
Q 1400 384 1738 384 
Q 2144 384 2425 690 
Q 2706 997 2706 1503 
Q 2706 1984 2436 2262 
Q 2166 2541 1728 2541 
Q 1456 2541 1237 2417 
Q 1019 2294 894 2097 
L 366 2166 
L 809 4519 
L 3088 4519 
L 3088 3981 
L 1259 3981 
L 1013 2750 
Q 1425 3038 1878 3038 
Q 2478 3038 2890 2622 
Q 3303 2206 3303 1553 
Q 3303 931 2941 478 
Q 2500 -78 1738 -78 
Q 1113 -78 717 272 
Q 322 622 266 1200 
z
" id="ArialMT-35" transform="scale(0.015625)"/>
       </defs>
       <use xlink:href="#ArialMT-35"/>
       <use x="55.615234" xlink:href="#ArialMT-30"/>
      </g>
     </g>
    </g>
    <g id="xtick_3">
     <g id="line2d_5">
      <path clip-path="url(#pae43aedd0e)" d="M 160.893976 252 
L 160.893976 34.56 
" style="fill:none;stroke:#cccccc;stroke-linecap:round;stroke-width:0.8;"/>
     </g>
     <g id="line2d_6"/>
     <g id="text_3">
      <!-- 100 -->
      <g style="fill:#262626;" transform="translate(152.55257 262.657812)scale(0.1 -0.1)">
       <defs>
        <path d="M 2384 0 
L 1822 0 
L 1822 3584 
Q 1619 3391 1289 3197 
Q 959 3003 697 2906 
L 697 3450 
Q 1169 3672 1522 3987 
Q 1875 4303 2022 4600 
L 2384 4600 
L 2384 0 
z
" id="ArialMT-31" transform="scale(0.015625)"/>
       </defs>
       <use xlink:href="#ArialMT-31"/>
       <use x="55.615234" xlink:href="#ArialMT-30"/>
       <use x="111.230469" xlink:href="#ArialMT-30"/>
      </g>
     </g>
    </g>
    <g id="xtick_4">
     <g id="line2d_7">
      <path clip-path="url(#pae43aedd0e)" d="M 206.731873 252 
L 206.731873 34.56 
" style="fill:none;stroke:#cccccc;stroke-linecap:round;stroke-width:0.8;"/>
     </g>
     <g id="line2d_8"/>
     <g id="text_4">
      <!-- 150 -->
      <g style="fill:#262626;" transform="translate(198.390467 262.657812)scale(0.1 -0.1)">
       <use xlink:href="#ArialMT-31"/>
       <use x="55.615234" xlink:href="#ArialMT-35"/>
       <use x="111.230469" xlink:href="#ArialMT-30"/>
      </g>
     </g>
    </g>
    <g id="xtick_5">
     <g id="line2d_9">
      <path clip-path="url(#pae43aedd0e)" d="M 252.56977 252 
L 252.56977 34.56 
" style="fill:none;stroke:#cccccc;stroke-linecap:round;stroke-width:0.8;"/>
     </g>
     <g id="line2d_10"/>
     <g id="text_5">
      <!-- 200 -->
      <g style="fill:#262626;" transform="translate(244.228364 262.657812)scale(0.1 -0.1)">
       <defs>
        <path d="M 3222 541 
L 3222 0 
L 194 0 
Q 188 203 259 391 
Q 375 700 629 1000 
Q 884 1300 1366 1694 
Q 2113 2306 2375 2664 
Q 2638 3022 2638 3341 
Q 2638 3675 2398 3904 
Q 2159 4134 1775 4134 
Q 1369 4134 1125 3890 
Q 881 3647 878 3216 
L 300 3275 
Q 359 3922 746 4261 
Q 1134 4600 1788 4600 
Q 2447 4600 2831 4234 
Q 3216 3869 3216 3328 
Q 3216 3053 3103 2787 
Q 2991 2522 2730 2228 
Q 2469 1934 1863 1422 
Q 1356 997 1212 845 
Q 1069 694 975 541 
L 3222 541 
z
" id="ArialMT-32" transform="scale(0.015625)"/>
       </defs>
       <use xlink:href="#ArialMT-32"/>
       <use x="55.615234" xlink:href="#ArialMT-30"/>
       <use x="111.230469" xlink:href="#ArialMT-30"/>
      </g>
     </g>
    </g>
    <g id="xtick_6">
     <g id="line2d_11">
      <path clip-path="url(#pae43aedd0e)" d="M 298.407667 252 
L 298.407667 34.56 
" style="fill:none;stroke:#cccccc;stroke-linecap:round;stroke-width:0.8;"/>
     </g>
     <g id="line2d_12"/>
     <g id="text_6">
      <!-- 250 -->
      <g style="fill:#262626;" transform="translate(290.066261 262.657812)scale(0.1 -0.1)">
       <use xlink:href="#ArialMT-32"/>
       <use x="55.615234" xlink:href="#ArialMT-35"/>
       <use x="111.230469" xlink:href="#ArialMT-30"/>
      </g>
     </g>
    </g>
    <g id="xtick_7">
     <g id="line2d_13">
      <path clip-path="url(#pae43aedd0e)" d="M 344.245564 252 
L 344.245564 34.56 
" style="fill:none;stroke:#cccccc;stroke-linecap:round;stroke-width:0.8;"/>
     </g>
     <g id="line2d_14"/>
     <g id="text_7">
      <!-- 300 -->
      <g style="fill:#262626;" transform="translate(335.904158 262.657812)scale(0.1 -0.1)">
       <defs>
        <path d="M 269 1209 
L 831 1284 
Q 928 806 1161 595 
Q 1394 384 1728 384 
Q 2125 384 2398 659 
Q 2672 934 2672 1341 
Q 2672 1728 2419 1979 
Q 2166 2231 1775 2231 
Q 1616 2231 1378 2169 
L 1441 2663 
Q 1497 2656 1531 2656 
Q 1891 2656 2178 2843 
Q 2466 3031 2466 3422 
Q 2466 3731 2256 3934 
Q 2047 4138 1716 4138 
Q 1388 4138 1169 3931 
Q 950 3725 888 3313 
L 325 3413 
Q 428 3978 793 4289 
Q 1159 4600 1703 4600 
Q 2078 4600 2393 4439 
Q 2709 4278 2876 4000 
Q 3044 3722 3044 3409 
Q 3044 3113 2884 2869 
Q 2725 2625 2413 2481 
Q 2819 2388 3044 2092 
Q 3269 1797 3269 1353 
Q 3269 753 2831 336 
Q 2394 -81 1725 -81 
Q 1122 -81 723 278 
Q 325 638 269 1209 
z
" id="ArialMT-33" transform="scale(0.015625)"/>
       </defs>
       <use xlink:href="#ArialMT-33"/>
       <use x="55.615234" xlink:href="#ArialMT-30"/>
       <use x="111.230469" xlink:href="#ArialMT-30"/>
      </g>
     </g>
    </g>
    <g id="text_8">
     <!-- Epoch -->
     <g style="fill:#262626;" transform="translate(207.223438 275.803125)scale(0.1 -0.1)">
      <defs>
       <path d="M 506 0 
L 506 4581 
L 3819 4581 
L 3819 4041 
L 1113 4041 
L 1113 2638 
L 3647 2638 
L 3647 2100 
L 1113 2100 
L 1113 541 
L 3925 541 
L 3925 0 
L 506 0 
z
" id="ArialMT-45" transform="scale(0.015625)"/>
       <path d="M 422 -1272 
L 422 3319 
L 934 3319 
L 934 2888 
Q 1116 3141 1344 3267 
Q 1572 3394 1897 3394 
Q 2322 3394 2647 3175 
Q 2972 2956 3137 2557 
Q 3303 2159 3303 1684 
Q 3303 1175 3120 767 
Q 2938 359 2589 142 
Q 2241 -75 1856 -75 
Q 1575 -75 1351 44 
Q 1128 163 984 344 
L 984 -1272 
L 422 -1272 
z
M 931 1641 
Q 931 1000 1190 694 
Q 1450 388 1819 388 
Q 2194 388 2461 705 
Q 2728 1022 2728 1688 
Q 2728 2322 2467 2637 
Q 2206 2953 1844 2953 
Q 1484 2953 1207 2617 
Q 931 2281 931 1641 
z
" id="ArialMT-70" transform="scale(0.015625)"/>
       <path d="M 213 1659 
Q 213 2581 725 3025 
Q 1153 3394 1769 3394 
Q 2453 3394 2887 2945 
Q 3322 2497 3322 1706 
Q 3322 1066 3130 698 
Q 2938 331 2570 128 
Q 2203 -75 1769 -75 
Q 1072 -75 642 372 
Q 213 819 213 1659 
z
M 791 1659 
Q 791 1022 1069 705 
Q 1347 388 1769 388 
Q 2188 388 2466 706 
Q 2744 1025 2744 1678 
Q 2744 2294 2464 2611 
Q 2184 2928 1769 2928 
Q 1347 2928 1069 2612 
Q 791 2297 791 1659 
z
" id="ArialMT-6f" transform="scale(0.015625)"/>
       <path d="M 2588 1216 
L 3141 1144 
Q 3050 572 2676 248 
Q 2303 -75 1759 -75 
Q 1078 -75 664 370 
Q 250 816 250 1647 
Q 250 2184 428 2587 
Q 606 2991 970 3192 
Q 1334 3394 1763 3394 
Q 2303 3394 2647 3120 
Q 2991 2847 3088 2344 
L 2541 2259 
Q 2463 2594 2264 2762 
Q 2066 2931 1784 2931 
Q 1359 2931 1093 2626 
Q 828 2322 828 1663 
Q 828 994 1084 691 
Q 1341 388 1753 388 
Q 2084 388 2306 591 
Q 2528 794 2588 1216 
z
" id="ArialMT-63" transform="scale(0.015625)"/>
       <path d="M 422 0 
L 422 4581 
L 984 4581 
L 984 2938 
Q 1378 3394 1978 3394 
Q 2347 3394 2619 3248 
Q 2891 3103 3008 2847 
Q 3125 2591 3125 2103 
L 3125 0 
L 2563 0 
L 2563 2103 
Q 2563 2525 2380 2717 
Q 2197 2909 1863 2909 
Q 1613 2909 1392 2779 
Q 1172 2650 1078 2428 
Q 984 2206 984 1816 
L 984 0 
L 422 0 
z
" id="ArialMT-68" transform="scale(0.015625)"/>
      </defs>
      <use xlink:href="#ArialMT-45"/>
      <use x="66.699219" xlink:href="#ArialMT-70"/>
      <use x="122.314453" xlink:href="#ArialMT-6f"/>
      <use x="177.929688" xlink:href="#ArialMT-63"/>
      <use x="227.929688" xlink:href="#ArialMT-68"/>
     </g>
    </g>
   </g>
   <g id="matplotlib.axis_2">
    <g id="ytick_1">
     <g id="line2d_15">
      <path clip-path="url(#pae43aedd0e)" d="M 54 239.974529 
L 388.8 239.974529 
" style="fill:none;stroke:#cccccc;stroke-linecap:round;stroke-width:0.8;"/>
     </g>
     <g id="line2d_16"/>
     <g id="text_9">
      <!-- 0.325 -->
      <g style="fill:#262626;" transform="translate(25.478125 243.553435)scale(0.1 -0.1)">
       <defs>
        <path d="M 581 0 
L 581 641 
L 1222 641 
L 1222 0 
L 581 0 
z
" id="ArialMT-2e" transform="scale(0.015625)"/>
       </defs>
       <use xlink:href="#ArialMT-30"/>
       <use x="55.615234" xlink:href="#ArialMT-2e"/>
       <use x="83.398438" xlink:href="#ArialMT-33"/>
       <use x="139.013672" xlink:href="#ArialMT-32"/>
       <use x="194.628906" xlink:href="#ArialMT-35"/>
      </g>
     </g>
    </g>
    <g id="ytick_2">
     <g id="line2d_17">
      <path clip-path="url(#pae43aedd0e)" d="M 54 213.533553 
L 388.8 213.533553 
" style="fill:none;stroke:#cccccc;stroke-linecap:round;stroke-width:0.8;"/>
     </g>
     <g id="line2d_18"/>
     <g id="text_10">
      <!-- 0.350 -->
      <g style="fill:#262626;" transform="translate(25.478125 217.112459)scale(0.1 -0.1)">
       <use xlink:href="#ArialMT-30"/>
       <use x="55.615234" xlink:href="#ArialMT-2e"/>
       <use x="83.398438" xlink:href="#ArialMT-33"/>
       <use x="139.013672" xlink:href="#ArialMT-35"/>
       <use x="194.628906" xlink:href="#ArialMT-30"/>
      </g>
     </g>
    </g>
    <g id="ytick_3">
     <g id="line2d_19">
      <path clip-path="url(#pae43aedd0e)" d="M 54 187.092576 
L 388.8 187.092576 
" style="fill:none;stroke:#cccccc;stroke-linecap:round;stroke-width:0.8;"/>
     </g>
     <g id="line2d_20"/>
     <g id="text_11">
      <!-- 0.375 -->
      <g style="fill:#262626;" transform="translate(25.478125 190.671483)scale(0.1 -0.1)">
       <defs>
        <path d="M 303 3981 
L 303 4522 
L 3269 4522 
L 3269 4084 
Q 2831 3619 2401 2847 
Q 1972 2075 1738 1259 
Q 1569 684 1522 0 
L 944 0 
Q 953 541 1156 1306 
Q 1359 2072 1739 2783 
Q 2119 3494 2547 3981 
L 303 3981 
z
" id="ArialMT-37" transform="scale(0.015625)"/>
       </defs>
       <use xlink:href="#ArialMT-30"/>
       <use x="55.615234" xlink:href="#ArialMT-2e"/>
       <use x="83.398438" xlink:href="#ArialMT-33"/>
       <use x="139.013672" xlink:href="#ArialMT-37"/>
       <use x="194.628906" xlink:href="#ArialMT-35"/>
      </g>
     </g>
    </g>
    <g id="ytick_4">
     <g id="line2d_21">
      <path clip-path="url(#pae43aedd0e)" d="M 54 160.6516 
L 388.8 160.6516 
" style="fill:none;stroke:#cccccc;stroke-linecap:round;stroke-width:0.8;"/>
     </g>
     <g id="line2d_22"/>
     <g id="text_12">
      <!-- 0.400 -->
      <g style="fill:#262626;" transform="translate(25.478125 164.230506)scale(0.1 -0.1)">
       <defs>
        <path d="M 2069 0 
L 2069 1097 
L 81 1097 
L 81 1613 
L 2172 4581 
L 2631 4581 
L 2631 1613 
L 3250 1613 
L 3250 1097 
L 2631 1097 
L 2631 0 
L 2069 0 
z
M 2069 1613 
L 2069 3678 
L 634 1613 
L 2069 1613 
z
" id="ArialMT-34" transform="scale(0.015625)"/>
       </defs>
       <use xlink:href="#ArialMT-30"/>
       <use x="55.615234" xlink:href="#ArialMT-2e"/>
       <use x="83.398438" xlink:href="#ArialMT-34"/>
       <use x="139.013672" xlink:href="#ArialMT-30"/>
       <use x="194.628906" xlink:href="#ArialMT-30"/>
      </g>
     </g>
    </g>
    <g id="ytick_5">
     <g id="line2d_23">
      <path clip-path="url(#pae43aedd0e)" d="M 54 134.210624 
L 388.8 134.210624 
" style="fill:none;stroke:#cccccc;stroke-linecap:round;stroke-width:0.8;"/>
     </g>
     <g id="line2d_24"/>
     <g id="text_13">
      <!-- 0.425 -->
      <g style="fill:#262626;" transform="translate(25.478125 137.78953)scale(0.1 -0.1)">
       <use xlink:href="#ArialMT-30"/>
       <use x="55.615234" xlink:href="#ArialMT-2e"/>
       <use x="83.398438" xlink:href="#ArialMT-34"/>
       <use x="139.013672" xlink:href="#ArialMT-32"/>
       <use x="194.628906" xlink:href="#ArialMT-35"/>
      </g>
     </g>
    </g>
    <g id="ytick_6">
     <g id="line2d_25">
      <path clip-path="url(#pae43aedd0e)" d="M 54 107.769648 
L 388.8 107.769648 
" style="fill:none;stroke:#cccccc;stroke-linecap:round;stroke-width:0.8;"/>
     </g>
     <g id="line2d_26"/>
     <g id="text_14">
      <!-- 0.450 -->
      <g style="fill:#262626;" transform="translate(25.478125 111.348554)scale(0.1 -0.1)">
       <use xlink:href="#ArialMT-30"/>
       <use x="55.615234" xlink:href="#ArialMT-2e"/>
       <use x="83.398438" xlink:href="#ArialMT-34"/>
       <use x="139.013672" xlink:href="#ArialMT-35"/>
       <use x="194.628906" xlink:href="#ArialMT-30"/>
      </g>
     </g>
    </g>
    <g id="ytick_7">
     <g id="line2d_27">
      <path clip-path="url(#pae43aedd0e)" d="M 54 81.328672 
L 388.8 81.328672 
" style="fill:none;stroke:#cccccc;stroke-linecap:round;stroke-width:0.8;"/>
     </g>
     <g id="line2d_28"/>
     <g id="text_15">
      <!-- 0.475 -->
      <g style="fill:#262626;" transform="translate(25.478125 84.907578)scale(0.1 -0.1)">
       <use xlink:href="#ArialMT-30"/>
       <use x="55.615234" xlink:href="#ArialMT-2e"/>
       <use x="83.398438" xlink:href="#ArialMT-34"/>
       <use x="139.013672" xlink:href="#ArialMT-37"/>
       <use x="194.628906" xlink:href="#ArialMT-35"/>
      </g>
     </g>
    </g>
    <g id="ytick_8">
     <g id="line2d_29">
      <path clip-path="url(#pae43aedd0e)" d="M 54 54.887695 
L 388.8 54.887695 
" style="fill:none;stroke:#cccccc;stroke-linecap:round;stroke-width:0.8;"/>
     </g>
     <g id="line2d_30"/>
     <g id="text_16">
      <!-- 0.500 -->
      <g style="fill:#262626;" transform="translate(25.478125 58.466602)scale(0.1 -0.1)">
       <use xlink:href="#ArialMT-30"/>
       <use x="55.615234" xlink:href="#ArialMT-2e"/>
       <use x="83.398438" xlink:href="#ArialMT-35"/>
       <use x="139.013672" xlink:href="#ArialMT-30"/>
       <use x="194.628906" xlink:href="#ArialMT-30"/>
      </g>
     </g>
    </g>
    <g id="text_17">
     <!-- Loss -->
     <g style="fill:#262626;" transform="translate(19.490625 153.840937)rotate(-90)scale(0.1 -0.1)">
      <defs>
       <path d="M 469 0 
L 469 4581 
L 1075 4581 
L 1075 541 
L 3331 541 
L 3331 0 
L 469 0 
z
" id="ArialMT-4c" transform="scale(0.015625)"/>
       <path d="M 197 991 
L 753 1078 
Q 800 744 1014 566 
Q 1228 388 1613 388 
Q 2000 388 2187 545 
Q 2375 703 2375 916 
Q 2375 1106 2209 1216 
Q 2094 1291 1634 1406 
Q 1016 1563 777 1677 
Q 538 1791 414 1992 
Q 291 2194 291 2438 
Q 291 2659 392 2848 
Q 494 3038 669 3163 
Q 800 3259 1026 3326 
Q 1253 3394 1513 3394 
Q 1903 3394 2198 3281 
Q 2494 3169 2634 2976 
Q 2775 2784 2828 2463 
L 2278 2388 
Q 2241 2644 2061 2787 
Q 1881 2931 1553 2931 
Q 1166 2931 1000 2803 
Q 834 2675 834 2503 
Q 834 2394 903 2306 
Q 972 2216 1119 2156 
Q 1203 2125 1616 2013 
Q 2213 1853 2448 1751 
Q 2684 1650 2818 1456 
Q 2953 1263 2953 975 
Q 2953 694 2789 445 
Q 2625 197 2315 61 
Q 2006 -75 1616 -75 
Q 969 -75 630 194 
Q 291 463 197 991 
z
" id="ArialMT-73" transform="scale(0.015625)"/>
      </defs>
      <use xlink:href="#ArialMT-4c"/>
      <use x="55.615234" xlink:href="#ArialMT-6f"/>
      <use x="111.230469" xlink:href="#ArialMT-73"/>
      <use x="161.230469" xlink:href="#ArialMT-73"/>
     </g>
    </g>
   </g>
   <g id="line2d_31">
    <path clip-path="url(#pae43aedd0e)" d="M 69.218182 83.088918 
L 70.13494 44.443636 
L 71.051698 51.590693 
L 71.968456 157.372022 
L 72.885214 138.563947 
L 73.801972 134.634494 
L 74.718729 154.119999 
L 75.635487 181.98446 
L 76.552245 106.724296 
L 77.469003 181.804102 
L 78.385761 192.155114 
L 79.302519 47.514955 
L 80.219277 121.794686 
L 81.136035 161.774781 
L 82.052793 121.189784 
L 82.969551 188.575219 
L 83.886309 154.526387 
L 84.803067 144.655837 
L 85.719825 65.812877 
L 86.636583 143.105489 
L 87.553341 140.078488 
L 88.470099 149.136482 
L 89.386857 66.503672 
L 90.303614 110.852358 
L 91.220372 91.279636 
L 92.13713 160.042531 
L 93.053888 126.196626 
L 93.970646 185.184097 
L 94.887404 164.942204 
L 95.804162 172.987143 
L 96.72092 146.809889 
L 97.637678 128.32272 
L 98.554436 120.416439 
L 99.471194 77.012662 
L 100.387952 144.546998 
L 101.30471 180.025013 
L 102.221468 202.809507 
L 103.138226 179.706062 
L 104.054984 126.726353 
L 104.971742 139.436014 
L 105.888499 109.036264 
L 106.805257 127.632272 
L 107.722015 191.461136 
L 108.638773 150.559394 
L 109.555531 157.164746 
L 110.472289 189.808852 
L 111.389047 140.15587 
L 113.222563 216.52841 
L 114.139321 125.342148 
L 115.056079 178.721783 
L 115.972837 98.105913 
L 116.889595 165.821993 
L 117.806353 158.909415 
L 118.723111 190.251773 
L 119.639869 137.615507 
L 120.556627 179.164861 
L 121.473384 203.381912 
L 122.390142 166.120993 
L 123.3069 194.417911 
L 124.223658 106.36481 
L 125.140416 142.871389 
L 126.057174 208.432377 
L 126.973932 226.181251 
L 127.89069 171.050863 
L 128.807448 179.998789 
L 129.724206 211.372446 
L 130.640964 154.796609 
L 131.557722 139.449189 
L 132.47448 206.596237 
L 133.391238 160.098542 
L 135.224754 98.353157 
L 136.141512 75.752362 
L 137.058269 128.430676 
L 137.975027 166.374793 
L 138.891785 67.163671 
L 139.808543 176.458167 
L 140.725301 93.602163 
L 141.642059 79.433185 
L 142.558817 120.735296 
L 143.475575 183.262537 
L 144.392333 199.505066 
L 145.309091 129.20834 
L 146.225849 139.750332 
L 147.142607 122.073797 
L 148.059365 97.56465 
L 148.976123 164.096142 
L 149.892881 168.166143 
L 150.809639 73.273685 
L 151.726396 188.73512 
L 152.643154 82.759816 
L 153.559912 123.22551 
L 154.47667 155.197766 
L 155.393428 138.35333 
L 156.310186 131.655939 
L 157.226944 129.843092 
L 158.143702 130.814226 
L 159.06046 151.857265 
L 159.977218 112.055701 
L 160.893976 158.257012 
L 161.810734 163.949164 
L 162.727492 156.742629 
L 163.64425 117.663505 
L 164.561008 191.880889 
L 165.477766 114.81497 
L 166.394524 200.016857 
L 167.311281 134.926716 
L 168.228039 138.134486 
L 169.144797 135.454111 
L 170.061555 200.504663 
L 170.978313 105.296089 
L 171.895071 166.714075 
L 172.811829 140.98384 
L 173.728587 162.529467 
L 174.645345 151.819094 
L 175.562103 181.449974 
L 176.478861 102.090589 
L 177.395619 195.722937 
L 178.312377 120.695297 
L 179.229135 138.949123 
L 180.145893 182.495559 
L 181.062651 97.421895 
L 181.979409 134.418203 
L 182.896166 179.659223 
L 183.812924 144.299817 
L 184.729682 150.99809 
L 185.64644 198.304528 
L 186.563198 166.718425 
L 187.479956 117.666121 
L 188.396714 88.074767 
L 189.313472 196.119681 
L 190.23023 155.049148 
L 191.146988 142.825906 
L 192.063746 162.185204 
L 192.980504 160.971082 
L 193.897262 127.288577 
L 194.81402 142.503455 
L 195.730778 242.116364 
L 196.647536 178.612157 
L 197.564294 234.634248 
L 198.481051 176.325909 
L 199.397809 136.578181 
L 200.314567 121.031995 
L 201.231325 163.291182 
L 202.148083 163.679635 
L 203.064841 152.015465 
L 203.981599 181.292815 
L 204.898357 199.035637 
L 205.815115 156.744835 
L 206.731873 156.967146 
L 207.648631 146.775563 
L 208.565389 227.573746 
L 210.398905 94.372641 
L 211.315663 210.174935 
L 212.232421 128.399597 
L 213.149179 159.164097 
L 214.065936 180.592155 
L 214.982694 129.653215 
L 215.899452 115.177987 
L 216.81621 104.210253 
L 217.732968 172.438598 
L 218.649726 160.375068 
L 219.566484 195.741597 
L 220.483242 150.372732 
L 221.4 120.070505 
L 222.316758 152.933299 
L 223.233516 162.25893 
L 224.150274 173.010499 
L 225.067032 167.832818 
L 225.98379 190.644986 
L 226.900548 186.156902 
L 227.817306 177.984686 
L 228.734064 135.750242 
L 229.650821 145.085708 
L 230.567579 100.458321 
L 231.484337 200.982822 
L 232.401095 161.16991 
L 233.317853 155.469721 
L 234.234611 210.493319 
L 235.151369 174.608505 
L 236.068127 127.339387 
L 236.984885 145.857383 
L 237.901643 136.069226 
L 238.818401 205.134398 
L 239.735159 112.641375 
L 240.651917 125.655962 
L 241.568675 175.430234 
L 242.485433 119.122538 
L 243.402191 100.831582 
L 244.318949 131.119057 
L 245.235706 168.897189 
L 246.152464 139.31069 
L 247.069222 225.715668 
L 247.98598 164.761783 
L 248.902738 112.908099 
L 249.819496 177.431855 
L 250.736254 174.654115 
L 251.653012 135.387666 
L 252.56977 181.233589 
L 253.486528 99.831607 
L 254.403286 155.393379 
L 255.320044 151.208077 
L 256.236802 181.158256 
L 258.070318 172.708568 
L 258.987076 165.857548 
L 259.903834 214.040875 
L 260.820591 139.652399 
L 261.737349 99.561354 
L 262.654107 90.983064 
L 263.570865 109.727468 
L 264.487623 113.595836 
L 265.404381 131.987152 
L 266.321139 157.243956 
L 267.237897 132.547327 
L 268.154655 100.838989 
L 269.071413 227.061702 
L 269.988171 219.852362 
L 270.904929 155.444726 
L 271.821687 223.031511 
L 272.738445 139.003621 
L 273.655203 145.217336 
L 274.571961 153.147887 
L 275.488719 167.90771 
L 276.405476 194.941586 
L 277.322234 169.225093 
L 278.238992 194.271153 
L 279.15575 146.564946 
L 280.072508 172.123366 
L 280.989266 145.166494 
L 281.906024 161.698534 
L 282.822782 187.980435 
L 283.73954 130.228961 
L 284.656298 123.048115 
L 285.573056 177.740121 
L 286.489814 109.626352 
L 287.406572 157.80224 
L 288.32333 185.423902 
L 289.240088 195.020543 
L 290.156846 187.745862 
L 291.073604 195.931979 
L 291.990361 175.119036 
L 292.907119 195.016162 
L 293.823877 194.732071 
L 294.740635 89.590065 
L 295.657393 211.838439 
L 296.574151 158.551 
L 297.490909 208.755711 
L 298.407667 169.900032 
L 299.324425 181.995398 
L 300.241183 166.467178 
L 301.157941 139.068426 
L 302.074699 160.981609 
L 302.991457 158.792538 
L 303.908215 144.016861 
L 304.824973 198.193861 
L 305.741731 160.216869 
L 306.658488 134.957291 
L 307.575246 119.357962 
L 308.492004 108.378187 
L 309.408762 191.583024 
L 310.32552 70.133999 
L 311.242278 182.083244 
L 312.159036 138.115731 
L 313.075794 143.060888 
L 313.992552 155.556275 
L 314.90931 140.710245 
L 315.826068 134.469959 
L 316.742826 111.308926 
L 317.659584 176.315161 
L 318.576342 134.79471 
L 319.4931 143.485054 
L 320.409858 153.936993 
L 321.326616 142.582161 
L 322.243373 207.129116 
L 323.160131 128.240389 
L 324.076889 183.366176 
L 324.993647 152.856484 
L 325.910405 193.445389 
L 326.827163 185.036835 
L 327.743921 209.255052 
L 329.577437 123.46998 
L 330.494195 172.946954 
L 331.410953 87.723003 
L 332.327711 182.643892 
L 333.244469 171.795305 
L 334.161227 136.66007 
L 335.077985 128.87782 
L 335.994743 193.913431 
L 336.911501 173.885686 
L 337.828258 167.068424 
L 338.745016 188.931869 
L 339.661774 85.068286 
L 340.578532 189.972253 
L 341.49529 147.309073 
L 342.412048 193.129085 
L 343.328806 145.113319 
L 344.245564 117.291441 
L 345.162322 201.310505 
L 346.07908 80.882353 
L 346.995838 184.811404 
L 347.912596 72.572615 
L 348.829354 120.900051 
L 349.746112 125.055252 
L 350.66287 103.891522 
L 351.579628 145.145249 
L 352.496386 209.56231 
L 353.413143 202.617203 
L 354.329901 103.713307 
L 355.246659 122.363719 
L 356.163417 114.529839 
L 357.080175 165.585876 
L 357.996933 166.977047 
L 358.913691 158.640517 
L 359.830449 176.831271 
L 360.747207 93.216042 
L 361.663965 116.457356 
L 362.580723 136.083 
L 363.497481 115.195607 
L 364.414239 157.369879 
L 365.330997 166.832024 
L 366.247755 143.369596 
L 367.164513 104.493871 
L 368.081271 139.320524 
L 368.998028 215.103102 
L 369.914786 113.841062 
L 370.831544 148.552068 
L 371.748302 156.510704 
L 372.66506 150.505337 
L 373.581818 176.197937 
L 373.581818 176.197937 
" style="fill:none;stroke:#1f77b4;stroke-linecap:round;stroke-width:1.5;"/>
   </g>
   <g id="line2d_32">
    <path clip-path="url(#pae43aedd0e)" d="M 69.218182 128.771585 
L 70.13494 131.621063 
L 71.051698 136.855706 
L 71.968456 137.601355 
L 73.801972 132.911156 
L 74.718729 134.181558 
L 75.635487 132.785389 
L 76.552245 132.945371 
L 77.469003 135.856266 
L 78.385761 135.415418 
L 79.302519 133.148157 
L 80.219277 137.188545 
L 81.136035 137.119633 
L 82.052793 132.881527 
L 82.969551 134.049388 
L 83.886309 133.621877 
L 84.803067 136.036033 
L 85.719825 137.788545 
L 86.636583 140.834218 
L 87.553341 140.650745 
L 88.470099 139.098633 
L 89.386857 138.023423 
L 90.303614 144.271296 
L 91.220372 146.256648 
L 92.13713 149.550903 
L 93.053888 151.039219 
L 93.970646 151.737182 
L 94.887404 151.461745 
L 95.804162 154.041055 
L 96.72092 151.658805 
L 97.637678 153.2544 
L 98.554436 151.74356 
L 99.471194 154.013837 
L 100.387952 158.108675 
L 101.30471 160.393914 
L 102.221468 158.273439 
L 103.138226 157.091206 
L 104.054984 158.274999 
L 104.971742 160.244731 
L 105.888499 162.993826 
L 106.805257 162.860253 
L 108.638773 164.470771 
L 109.555531 168.251864 
L 110.472289 168.94617 
L 111.389047 168.455666 
L 112.305805 172.016495 
L 113.222563 170.772558 
L 114.139321 166.918597 
L 115.056079 170.981301 
L 115.972837 170.050139 
L 116.889595 171.562505 
L 117.806353 168.189063 
L 118.723111 164.03121 
L 119.639869 160.940156 
L 120.556627 162.37812 
L 121.473384 156.77806 
L 122.390142 155.431873 
L 123.3069 151.805932 
L 124.223658 146.056695 
L 125.140416 146.77522 
L 126.057174 148.794777 
L 126.973932 148.348412 
L 127.89069 143.499766 
L 128.807448 141.934739 
L 129.724206 139.03849 
L 130.640964 133.3481 
L 131.557722 133.813077 
L 132.47448 135.248924 
L 133.391238 128.582797 
L 134.307996 130.014626 
L 135.224754 127.734955 
L 136.141512 128.978573 
L 137.058269 132.950843 
L 137.975027 133.446975 
L 138.891785 131.711033 
L 139.808543 134.845004 
L 140.725301 132.562807 
L 141.642059 135.475562 
L 142.558817 137.106688 
L 143.475575 138.982773 
L 144.392333 138.017105 
L 145.309091 135.878983 
L 146.225849 135.301741 
L 147.142607 137.908269 
L 148.059365 137.545328 
L 148.976123 142.667938 
L 150.809639 139.707884 
L 151.726396 142.816905 
L 152.643154 143.405382 
L 153.559912 144.532196 
L 154.47667 146.706624 
L 155.393428 145.995928 
L 156.310186 147.204735 
L 157.226944 148.212892 
L 158.143702 150.793237 
L 159.06046 149.357055 
L 159.977218 151.550338 
L 160.893976 151.982318 
L 161.810734 151.016924 
L 162.727492 151.944243 
L 163.64425 148.978207 
L 164.561008 149.815942 
L 165.477766 149.204858 
L 166.394524 150.679101 
L 167.311281 148.228162 
L 168.228039 151.397053 
L 169.144797 152.82625 
L 170.061555 151.93685 
L 170.978313 146.315356 
L 171.895071 150.856535 
L 172.811829 150.273289 
L 174.645345 150.348179 
L 175.562103 150.805778 
L 176.478861 148.097709 
L 177.395619 150.118352 
L 178.312377 152.438023 
L 179.229135 155.333866 
L 180.145893 160.118122 
L 181.062651 159.80964 
L 181.979409 161.767454 
L 182.896166 161.098144 
L 183.812924 160.279742 
L 184.729682 161.248733 
L 185.64644 161.299601 
L 186.563198 160.449016 
L 187.479956 162.064876 
L 188.396714 164.018812 
L 189.313472 167.463431 
L 190.23023 164.996225 
L 191.146988 168.622455 
L 192.063746 169.679108 
L 192.980504 166.28848 
L 193.897262 168.748673 
L 194.81402 168.804224 
L 195.730778 169.637256 
L 196.647536 166.561045 
L 197.564294 164.113098 
L 198.481051 158.140285 
L 199.397809 154.534502 
L 202.148083 159.917198 
L 203.064841 159.251852 
L 205.815115 154.397793 
L 206.731873 155.211076 
L 207.648631 155.75436 
L 208.565389 157.947831 
L 209.482147 155.876989 
L 210.398905 156.578275 
L 211.315663 158.647155 
L 212.232421 155.392694 
L 213.149179 153.99563 
L 214.065936 156.086566 
L 214.982694 155.115454 
L 215.899452 156.406279 
L 216.81621 161.172046 
L 217.732968 164.691958 
L 218.649726 162.436998 
L 219.566484 161.711114 
L 220.483242 158.727495 
L 221.4 161.465578 
L 222.316758 161.094122 
L 223.233516 159.730255 
L 224.150274 160.38882 
L 225.067032 157.694422 
L 226.900548 151.368064 
L 227.817306 150.505078 
L 228.734064 148.571378 
L 229.650821 153.06965 
L 230.567579 154.053454 
L 231.484337 154.675942 
L 232.401095 153.498394 
L 233.317853 154.172604 
L 234.234611 153.168501 
L 235.151369 151.705515 
L 236.068127 147.96667 
L 236.984885 149.36937 
L 237.901643 149.636904 
L 238.818401 151.891356 
L 239.735159 150.472531 
L 240.651917 153.47589 
L 242.485433 157.416502 
L 243.402191 158.442995 
L 244.318949 158.379483 
L 245.235706 156.372684 
L 246.152464 153.414198 
L 247.069222 152.128455 
L 247.98598 147.442029 
L 248.902738 147.066138 
L 249.819496 148.048099 
L 250.736254 144.218456 
L 251.653012 146.838835 
L 252.56977 151.06207 
L 253.486528 149.772627 
L 254.403286 155.932622 
L 255.320044 155.113134 
L 256.236802 154.813597 
L 257.15356 153.413079 
L 258.070318 152.970569 
L 258.987076 154.08222 
L 259.903834 154.250598 
L 260.820591 153.262111 
L 261.737349 153.607739 
L 262.654107 157.235839 
L 264.487623 162.543564 
L 265.404381 166.262794 
L 266.321139 166.174885 
L 267.237897 164.465093 
L 268.154655 166.724732 
L 269.071413 167.1641 
L 269.988171 163.701127 
L 270.904929 161.979704 
L 271.821687 163.958495 
L 272.738445 162.194213 
L 273.655203 165.040631 
L 274.571961 166.535716 
L 275.488719 168.629129 
L 276.405476 169.970347 
L 277.322234 164.702771 
L 278.238992 166.833439 
L 279.15575 165.047431 
L 280.072508 168.156969 
L 280.989266 168.045803 
L 281.906024 169.887248 
L 282.822782 170.12568 
L 283.73954 167.68008 
L 284.656298 169.217712 
L 285.573056 171.004933 
L 286.489814 169.31877 
L 287.406572 173.747146 
L 288.32333 173.867877 
L 289.240088 171.344547 
L 291.073604 163.593034 
L 291.990361 163.375586 
L 292.907119 158.126334 
L 293.823877 157.479688 
L 294.740635 154.648871 
L 295.657393 157.322413 
L 296.574151 154.508304 
L 297.490909 153.616267 
L 298.407667 149.901979 
L 299.324425 146.972424 
L 300.241183 146.688412 
L 301.157941 145.104788 
L 302.074699 145.32562 
L 302.991457 144.973389 
L 303.908215 144.16287 
L 304.824973 147.318483 
L 305.741731 143.820809 
L 306.658488 144.978275 
L 307.575246 145.873234 
L 309.408762 153.410538 
L 310.32552 154.294139 
L 311.242278 159.165528 
L 312.159036 156.234865 
L 313.075794 157.976426 
L 313.992552 155.209532 
L 314.90931 156.563913 
L 315.826068 158.118166 
L 316.742826 158.227671 
L 318.576342 159.98603 
L 319.4931 161.940578 
L 320.409858 163.119747 
L 321.326616 164.869491 
L 322.243373 161.993797 
L 323.160131 161.135954 
L 324.076889 162.089388 
L 324.993647 162.577533 
L 325.910405 162.190375 
L 326.827163 158.382678 
L 327.743921 159.196361 
L 328.660679 152.777726 
L 329.577437 153.640208 
L 331.410953 148.492994 
L 332.327711 150.359607 
L 333.244469 146.421988 
L 334.161227 145.089485 
L 335.994743 152.421567 
L 336.911501 147.91156 
L 338.745016 142.708533 
L 339.661774 141.541233 
L 340.578532 145.636671 
L 341.49529 144.070084 
L 342.412048 145.546194 
L 343.328806 140.550542 
L 344.245564 139.117744 
L 345.162322 140.057322 
L 346.07908 135.751577 
L 346.995838 139.575953 
L 347.912596 138.676984 
L 348.829354 142.216833 
L 349.746112 141.396524 
L 350.66287 142.109788 
L 351.579628 147.670367 
L 352.496386 146.105158 
L 353.413143 143.054645 
L 354.329901 140.749321 
L 355.246659 143.088922 
L 356.163417 145.780633 
L 356.163417 145.780633 
" style="fill:none;stroke:#ff7f0e;stroke-linecap:round;stroke-width:1.5;"/>
   </g>
   <g id="patch_3">
    <path d="M 54 252 
L 54 34.56 
" style="fill:none;stroke:#cccccc;stroke-linecap:square;stroke-linejoin:miter;"/>
   </g>
   <g id="patch_4">
    <path d="M 388.8 252 
L 388.8 34.56 
" style="fill:none;stroke:#cccccc;stroke-linecap:square;stroke-linejoin:miter;"/>
   </g>
   <g id="patch_5">
    <path d="M 54 252 
L 388.8 252 
" style="fill:none;stroke:#cccccc;stroke-linecap:square;stroke-linejoin:miter;"/>
   </g>
   <g id="patch_6">
    <path d="M 54 34.56 
L 388.8 34.56 
" style="fill:none;stroke:#cccccc;stroke-linecap:square;stroke-linejoin:miter;"/>
   </g>
   <g id="legend_1">
    <g id="line2d_33">
     <path d="M 216.170312 47.217813 
L 236.170312 47.217813 
" style="fill:none;stroke:#1f77b4;stroke-linecap:round;stroke-width:1.5;"/>
    </g>
    <g id="line2d_34"/>
    <g id="text_18">
     <!-- loss -->
     <g style="fill:#262626;" transform="translate(244.170312 50.717813)scale(0.1 -0.1)">
      <defs>
       <path d="M 409 0 
L 409 4581 
L 972 4581 
L 972 0 
L 409 0 
z
" id="ArialMT-6c" transform="scale(0.015625)"/>
      </defs>
      <use xlink:href="#ArialMT-6c"/>
      <use x="22.216797" xlink:href="#ArialMT-6f"/>
      <use x="77.832031" xlink:href="#ArialMT-73"/>
      <use x="127.832031" xlink:href="#ArialMT-73"/>
     </g>
    </g>
    <g id="line2d_35">
     <path d="M 216.170312 61.392813 
L 236.170312 61.392813 
" style="fill:none;stroke:#ff7f0e;stroke-linecap:round;stroke-width:1.5;"/>
    </g>
    <g id="line2d_36"/>
    <g id="text_19">
     <!-- 20 epoch moving average loss -->
     <g style="fill:#262626;" transform="translate(244.170312 64.892813)scale(0.1 -0.1)">
      <defs>
       <path id="ArialMT-20" transform="scale(0.015625)"/>
       <path d="M 2694 1069 
L 3275 997 
Q 3138 488 2766 206 
Q 2394 -75 1816 -75 
Q 1088 -75 661 373 
Q 234 822 234 1631 
Q 234 2469 665 2931 
Q 1097 3394 1784 3394 
Q 2450 3394 2872 2941 
Q 3294 2488 3294 1666 
Q 3294 1616 3291 1516 
L 816 1516 
Q 847 969 1125 678 
Q 1403 388 1819 388 
Q 2128 388 2347 550 
Q 2566 713 2694 1069 
z
M 847 1978 
L 2700 1978 
Q 2663 2397 2488 2606 
Q 2219 2931 1791 2931 
Q 1403 2931 1139 2672 
Q 875 2413 847 1978 
z
" id="ArialMT-65" transform="scale(0.015625)"/>
       <path d="M 422 0 
L 422 3319 
L 925 3319 
L 925 2853 
Q 1081 3097 1340 3245 
Q 1600 3394 1931 3394 
Q 2300 3394 2536 3241 
Q 2772 3088 2869 2813 
Q 3263 3394 3894 3394 
Q 4388 3394 4653 3120 
Q 4919 2847 4919 2278 
L 4919 0 
L 4359 0 
L 4359 2091 
Q 4359 2428 4304 2576 
Q 4250 2725 4106 2815 
Q 3963 2906 3769 2906 
Q 3419 2906 3187 2673 
Q 2956 2441 2956 1928 
L 2956 0 
L 2394 0 
L 2394 2156 
Q 2394 2531 2256 2718 
Q 2119 2906 1806 2906 
Q 1569 2906 1367 2781 
Q 1166 2656 1075 2415 
Q 984 2175 984 1722 
L 984 0 
L 422 0 
z
" id="ArialMT-6d" transform="scale(0.015625)"/>
       <path d="M 1344 0 
L 81 3319 
L 675 3319 
L 1388 1331 
Q 1503 1009 1600 663 
Q 1675 925 1809 1294 
L 2547 3319 
L 3125 3319 
L 1869 0 
L 1344 0 
z
" id="ArialMT-76" transform="scale(0.015625)"/>
       <path d="M 425 3934 
L 425 4581 
L 988 4581 
L 988 3934 
L 425 3934 
z
M 425 0 
L 425 3319 
L 988 3319 
L 988 0 
L 425 0 
z
" id="ArialMT-69" transform="scale(0.015625)"/>
       <path d="M 422 0 
L 422 3319 
L 928 3319 
L 928 2847 
Q 1294 3394 1984 3394 
Q 2284 3394 2536 3286 
Q 2788 3178 2913 3003 
Q 3038 2828 3088 2588 
Q 3119 2431 3119 2041 
L 3119 0 
L 2556 0 
L 2556 2019 
Q 2556 2363 2490 2533 
Q 2425 2703 2258 2804 
Q 2091 2906 1866 2906 
Q 1506 2906 1245 2678 
Q 984 2450 984 1813 
L 984 0 
L 422 0 
z
" id="ArialMT-6e" transform="scale(0.015625)"/>
       <path d="M 319 -275 
L 866 -356 
Q 900 -609 1056 -725 
Q 1266 -881 1628 -881 
Q 2019 -881 2231 -725 
Q 2444 -569 2519 -288 
Q 2563 -116 2559 434 
Q 2191 0 1641 0 
Q 956 0 581 494 
Q 206 988 206 1678 
Q 206 2153 378 2554 
Q 550 2956 876 3175 
Q 1203 3394 1644 3394 
Q 2231 3394 2613 2919 
L 2613 3319 
L 3131 3319 
L 3131 450 
Q 3131 -325 2973 -648 
Q 2816 -972 2473 -1159 
Q 2131 -1347 1631 -1347 
Q 1038 -1347 672 -1080 
Q 306 -813 319 -275 
z
M 784 1719 
Q 784 1066 1043 766 
Q 1303 466 1694 466 
Q 2081 466 2343 764 
Q 2606 1063 2606 1700 
Q 2606 2309 2336 2618 
Q 2066 2928 1684 2928 
Q 1309 2928 1046 2623 
Q 784 2319 784 1719 
z
" id="ArialMT-67" transform="scale(0.015625)"/>
       <path d="M 2588 409 
Q 2275 144 1986 34 
Q 1697 -75 1366 -75 
Q 819 -75 525 192 
Q 231 459 231 875 
Q 231 1119 342 1320 
Q 453 1522 633 1644 
Q 813 1766 1038 1828 
Q 1203 1872 1538 1913 
Q 2219 1994 2541 2106 
Q 2544 2222 2544 2253 
Q 2544 2597 2384 2738 
Q 2169 2928 1744 2928 
Q 1347 2928 1158 2789 
Q 969 2650 878 2297 
L 328 2372 
Q 403 2725 575 2942 
Q 747 3159 1072 3276 
Q 1397 3394 1825 3394 
Q 2250 3394 2515 3294 
Q 2781 3194 2906 3042 
Q 3031 2891 3081 2659 
Q 3109 2516 3109 2141 
L 3109 1391 
Q 3109 606 3145 398 
Q 3181 191 3288 0 
L 2700 0 
Q 2613 175 2588 409 
z
M 2541 1666 
Q 2234 1541 1622 1453 
Q 1275 1403 1131 1340 
Q 988 1278 909 1158 
Q 831 1038 831 891 
Q 831 666 1001 516 
Q 1172 366 1500 366 
Q 1825 366 2078 508 
Q 2331 650 2450 897 
Q 2541 1088 2541 1459 
L 2541 1666 
z
" id="ArialMT-61" transform="scale(0.015625)"/>
       <path d="M 416 0 
L 416 3319 
L 922 3319 
L 922 2816 
Q 1116 3169 1280 3281 
Q 1444 3394 1641 3394 
Q 1925 3394 2219 3213 
L 2025 2691 
Q 1819 2813 1613 2813 
Q 1428 2813 1281 2702 
Q 1134 2591 1072 2394 
Q 978 2094 978 1738 
L 978 0 
L 416 0 
z
" id="ArialMT-72" transform="scale(0.015625)"/>
      </defs>
      <use xlink:href="#ArialMT-32"/>
      <use x="55.615234" xlink:href="#ArialMT-30"/>
      <use x="111.230469" xlink:href="#ArialMT-20"/>
      <use x="139.013672" xlink:href="#ArialMT-65"/>
      <use x="194.628906" xlink:href="#ArialMT-70"/>
      <use x="250.244141" xlink:href="#ArialMT-6f"/>
      <use x="305.859375" xlink:href="#ArialMT-63"/>
      <use x="355.859375" xlink:href="#ArialMT-68"/>
      <use x="411.474609" xlink:href="#ArialMT-20"/>
      <use x="439.257812" xlink:href="#ArialMT-6d"/>
      <use x="522.558594" xlink:href="#ArialMT-6f"/>
      <use x="578.173828" xlink:href="#ArialMT-76"/>
      <use x="628.173828" xlink:href="#ArialMT-69"/>
      <use x="650.390625" xlink:href="#ArialMT-6e"/>
      <use x="706.005859" xlink:href="#ArialMT-67"/>
      <use x="761.621094" xlink:href="#ArialMT-20"/>
      <use x="789.404297" xlink:href="#ArialMT-61"/>
      <use x="845.019531" xlink:href="#ArialMT-76"/>
      <use x="895.019531" xlink:href="#ArialMT-65"/>
      <use x="950.634766" xlink:href="#ArialMT-72"/>
      <use x="983.935547" xlink:href="#ArialMT-61"/>
      <use x="1039.550781" xlink:href="#ArialMT-67"/>
      <use x="1095.166016" xlink:href="#ArialMT-65"/>
      <use x="1150.78125" xlink:href="#ArialMT-20"/>
      <use x="1178.564453" xlink:href="#ArialMT-6c"/>
      <use x="1200.78125" xlink:href="#ArialMT-6f"/>
      <use x="1256.396484" xlink:href="#ArialMT-73"/>
      <use x="1306.396484" xlink:href="#ArialMT-73"/>
     </g>
    </g>
   </g>
  </g>
 </g>
 <defs>
  <clipPath id="pae43aedd0e">
   <rect height="217.44" width="334.8" x="54" y="34.56"/>
  </clipPath>
 </defs>
</svg>
