<?xml version="1.0" encoding="utf-8" standalone="no"?>
<!DOCTYPE svg PUBLIC "-//W3C//DTD SVG 1.1//EN"
  "http://www.w3.org/Graphics/SVG/1.1/DTD/svg11.dtd">
<svg height="288pt" version="1.1" viewBox="0 0 432 288" width="432pt" xmlns="http://www.w3.org/2000/svg" xmlns:xlink="http://www.w3.org/1999/xlink">
 <metadata>
  <rdf:RDF xmlns:cc="http://creativecommons.org/ns#" xmlns:dc="http://purl.org/dc/elements/1.1/" xmlns:rdf="http://www.w3.org/1999/02/22-rdf-syntax-ns#">
   <cc:Work>
    <dc:type rdf:resource="http://purl.org/dc/dcmitype/StillImage"/>
    <dc:date>2021-08-21T21:24:10.598587</dc:date>
    <dc:format>image/svg+xml</dc:format>
    <dc:creator>
     <cc:Agent>
      <dc:title>Matplotlib v3.4.3, https://matplotlib.org/</dc:title>
     </cc:Agent>
    </dc:creator>
   </cc:Work>
  </rdf:RDF>
 </metadata>
 <defs>
  <style type="text/css">*{stroke-linecap:butt;stroke-linejoin:round;}</style>
 </defs>
 <g id="figure_1">
  <g id="patch_1">
   <path d="M 0 288 
L 432 288 
L 432 0 
L 0 0 
z
" style="fill:#ffffff;"/>
  </g>
  <g id="axes_1">
   <g id="patch_2">
    <path d="M 54 252 
L 388.8 252 
L 388.8 34.56 
L 54 34.56 
z
" style="fill:#ffffff;"/>
   </g>
   <g id="matplotlib.axis_1">
    <g id="xtick_1">
     <g id="line2d_1">
      <path clip-path="url(#p3945679a94)" d="M 69.218182 252 
L 69.218182 34.56 
" style="fill:none;stroke:#cccccc;stroke-linecap:round;stroke-width:0.8;"/>
     </g>
     <g id="line2d_2"/>
     <g id="text_1">
      <!-- 0 -->
      <g style="fill:#262626;" transform="translate(66.437713 262.657812)scale(0.1 -0.1)">
       <defs>
        <path d="M 266 2259 
Q 266 3072 433 3567 
Q 600 4063 929 4331 
Q 1259 4600 1759 4600 
Q 2128 4600 2406 4451 
Q 2684 4303 2865 4023 
Q 3047 3744 3150 3342 
Q 3253 2941 3253 2259 
Q 3253 1453 3087 958 
Q 2922 463 2592 192 
Q 2263 -78 1759 -78 
Q 1097 -78 719 397 
Q 266 969 266 2259 
z
M 844 2259 
Q 844 1131 1108 757 
Q 1372 384 1759 384 
Q 2147 384 2411 759 
Q 2675 1134 2675 2259 
Q 2675 3391 2411 3762 
Q 2147 4134 1753 4134 
Q 1366 4134 1134 3806 
Q 844 3388 844 2259 
z
" id="ArialMT-30" transform="scale(0.015625)"/>
       </defs>
       <use xlink:href="#ArialMT-30"/>
      </g>
     </g>
    </g>
    <g id="xtick_2">
     <g id="line2d_3">
      <path clip-path="url(#p3945679a94)" d="M 130.030097 252 
L 130.030097 34.56 
" style="fill:none;stroke:#cccccc;stroke-linecap:round;stroke-width:0.8;"/>
     </g>
     <g id="line2d_4"/>
     <g id="text_2">
      <!-- 200 -->
      <g style="fill:#262626;" transform="translate(121.688691 262.657812)scale(0.1 -0.1)">
       <defs>
        <path d="M 3222 541 
L 3222 0 
L 194 0 
Q 188 203 259 391 
Q 375 700 629 1000 
Q 884 1300 1366 1694 
Q 2113 2306 2375 2664 
Q 2638 3022 2638 3341 
Q 2638 3675 2398 3904 
Q 2159 4134 1775 4134 
Q 1369 4134 1125 3890 
Q 881 3647 878 3216 
L 300 3275 
Q 359 3922 746 4261 
Q 1134 4600 1788 4600 
Q 2447 4600 2831 4234 
Q 3216 3869 3216 3328 
Q 3216 3053 3103 2787 
Q 2991 2522 2730 2228 
Q 2469 1934 1863 1422 
Q 1356 997 1212 845 
Q 1069 694 975 541 
L 3222 541 
z
" id="ArialMT-32" transform="scale(0.015625)"/>
       </defs>
       <use xlink:href="#ArialMT-32"/>
       <use x="55.615234" xlink:href="#ArialMT-30"/>
       <use x="111.230469" xlink:href="#ArialMT-30"/>
      </g>
     </g>
    </g>
    <g id="xtick_3">
     <g id="line2d_5">
      <path clip-path="url(#p3945679a94)" d="M 190.842013 252 
L 190.842013 34.56 
" style="fill:none;stroke:#cccccc;stroke-linecap:round;stroke-width:0.8;"/>
     </g>
     <g id="line2d_6"/>
     <g id="text_3">
      <!-- 400 -->
      <g style="fill:#262626;" transform="translate(182.500606 262.657812)scale(0.1 -0.1)">
       <defs>
        <path d="M 2069 0 
L 2069 1097 
L 81 1097 
L 81 1613 
L 2172 4581 
L 2631 4581 
L 2631 1613 
L 3250 1613 
L 3250 1097 
L 2631 1097 
L 2631 0 
L 2069 0 
z
M 2069 1613 
L 2069 3678 
L 634 1613 
L 2069 1613 
z
" id="ArialMT-34" transform="scale(0.015625)"/>
       </defs>
       <use xlink:href="#ArialMT-34"/>
       <use x="55.615234" xlink:href="#ArialMT-30"/>
       <use x="111.230469" xlink:href="#ArialMT-30"/>
      </g>
     </g>
    </g>
    <g id="xtick_4">
     <g id="line2d_7">
      <path clip-path="url(#p3945679a94)" d="M 251.653928 252 
L 251.653928 34.56 
" style="fill:none;stroke:#cccccc;stroke-linecap:round;stroke-width:0.8;"/>
     </g>
     <g id="line2d_8"/>
     <g id="text_4">
      <!-- 600 -->
      <g style="fill:#262626;" transform="translate(243.312522 262.657812)scale(0.1 -0.1)">
       <defs>
        <path d="M 3184 3459 
L 2625 3416 
Q 2550 3747 2413 3897 
Q 2184 4138 1850 4138 
Q 1581 4138 1378 3988 
Q 1113 3794 959 3422 
Q 806 3050 800 2363 
Q 1003 2672 1297 2822 
Q 1591 2972 1913 2972 
Q 2475 2972 2870 2558 
Q 3266 2144 3266 1488 
Q 3266 1056 3080 686 
Q 2894 316 2569 119 
Q 2244 -78 1831 -78 
Q 1128 -78 684 439 
Q 241 956 241 2144 
Q 241 3472 731 4075 
Q 1159 4600 1884 4600 
Q 2425 4600 2770 4297 
Q 3116 3994 3184 3459 
z
M 888 1484 
Q 888 1194 1011 928 
Q 1134 663 1356 523 
Q 1578 384 1822 384 
Q 2178 384 2434 671 
Q 2691 959 2691 1453 
Q 2691 1928 2437 2201 
Q 2184 2475 1800 2475 
Q 1419 2475 1153 2201 
Q 888 1928 888 1484 
z
" id="ArialMT-36" transform="scale(0.015625)"/>
       </defs>
       <use xlink:href="#ArialMT-36"/>
       <use x="55.615234" xlink:href="#ArialMT-30"/>
       <use x="111.230469" xlink:href="#ArialMT-30"/>
      </g>
     </g>
    </g>
    <g id="xtick_5">
     <g id="line2d_9">
      <path clip-path="url(#p3945679a94)" d="M 312.465843 252 
L 312.465843 34.56 
" style="fill:none;stroke:#cccccc;stroke-linecap:round;stroke-width:0.8;"/>
     </g>
     <g id="line2d_10"/>
     <g id="text_5">
      <!-- 800 -->
      <g style="fill:#262626;" transform="translate(304.124437 262.657812)scale(0.1 -0.1)">
       <defs>
        <path d="M 1131 2484 
Q 781 2613 612 2850 
Q 444 3088 444 3419 
Q 444 3919 803 4259 
Q 1163 4600 1759 4600 
Q 2359 4600 2725 4251 
Q 3091 3903 3091 3403 
Q 3091 3084 2923 2848 
Q 2756 2613 2416 2484 
Q 2838 2347 3058 2040 
Q 3278 1734 3278 1309 
Q 3278 722 2862 322 
Q 2447 -78 1769 -78 
Q 1091 -78 675 323 
Q 259 725 259 1325 
Q 259 1772 486 2073 
Q 713 2375 1131 2484 
z
M 1019 3438 
Q 1019 3113 1228 2906 
Q 1438 2700 1772 2700 
Q 2097 2700 2305 2904 
Q 2513 3109 2513 3406 
Q 2513 3716 2298 3927 
Q 2084 4138 1766 4138 
Q 1444 4138 1231 3931 
Q 1019 3725 1019 3438 
z
M 838 1322 
Q 838 1081 952 856 
Q 1066 631 1291 507 
Q 1516 384 1775 384 
Q 2178 384 2440 643 
Q 2703 903 2703 1303 
Q 2703 1709 2433 1975 
Q 2163 2241 1756 2241 
Q 1359 2241 1098 1978 
Q 838 1716 838 1322 
z
" id="ArialMT-38" transform="scale(0.015625)"/>
       </defs>
       <use xlink:href="#ArialMT-38"/>
       <use x="55.615234" xlink:href="#ArialMT-30"/>
       <use x="111.230469" xlink:href="#ArialMT-30"/>
      </g>
     </g>
    </g>
    <g id="xtick_6">
     <g id="line2d_11">
      <path clip-path="url(#p3945679a94)" d="M 373.277759 252 
L 373.277759 34.56 
" style="fill:none;stroke:#cccccc;stroke-linecap:round;stroke-width:0.8;"/>
     </g>
     <g id="line2d_12"/>
     <g id="text_6">
      <!-- 1000 -->
      <g style="fill:#262626;" transform="translate(362.155884 262.657812)scale(0.1 -0.1)">
       <defs>
        <path d="M 2384 0 
L 1822 0 
L 1822 3584 
Q 1619 3391 1289 3197 
Q 959 3003 697 2906 
L 697 3450 
Q 1169 3672 1522 3987 
Q 1875 4303 2022 4600 
L 2384 4600 
L 2384 0 
z
" id="ArialMT-31" transform="scale(0.015625)"/>
       </defs>
       <use xlink:href="#ArialMT-31"/>
       <use x="55.615234" xlink:href="#ArialMT-30"/>
       <use x="111.230469" xlink:href="#ArialMT-30"/>
       <use x="166.845703" xlink:href="#ArialMT-30"/>
      </g>
     </g>
    </g>
    <g id="text_7">
     <!-- Epoch -->
     <g style="fill:#262626;" transform="translate(207.223438 275.803125)scale(0.1 -0.1)">
      <defs>
       <path d="M 506 0 
L 506 4581 
L 3819 4581 
L 3819 4041 
L 1113 4041 
L 1113 2638 
L 3647 2638 
L 3647 2100 
L 1113 2100 
L 1113 541 
L 3925 541 
L 3925 0 
L 506 0 
z
" id="ArialMT-45" transform="scale(0.015625)"/>
       <path d="M 422 -1272 
L 422 3319 
L 934 3319 
L 934 2888 
Q 1116 3141 1344 3267 
Q 1572 3394 1897 3394 
Q 2322 3394 2647 3175 
Q 2972 2956 3137 2557 
Q 3303 2159 3303 1684 
Q 3303 1175 3120 767 
Q 2938 359 2589 142 
Q 2241 -75 1856 -75 
Q 1575 -75 1351 44 
Q 1128 163 984 344 
L 984 -1272 
L 422 -1272 
z
M 931 1641 
Q 931 1000 1190 694 
Q 1450 388 1819 388 
Q 2194 388 2461 705 
Q 2728 1022 2728 1688 
Q 2728 2322 2467 2637 
Q 2206 2953 1844 2953 
Q 1484 2953 1207 2617 
Q 931 2281 931 1641 
z
" id="ArialMT-70" transform="scale(0.015625)"/>
       <path d="M 213 1659 
Q 213 2581 725 3025 
Q 1153 3394 1769 3394 
Q 2453 3394 2887 2945 
Q 3322 2497 3322 1706 
Q 3322 1066 3130 698 
Q 2938 331 2570 128 
Q 2203 -75 1769 -75 
Q 1072 -75 642 372 
Q 213 819 213 1659 
z
M 791 1659 
Q 791 1022 1069 705 
Q 1347 388 1769 388 
Q 2188 388 2466 706 
Q 2744 1025 2744 1678 
Q 2744 2294 2464 2611 
Q 2184 2928 1769 2928 
Q 1347 2928 1069 2612 
Q 791 2297 791 1659 
z
" id="ArialMT-6f" transform="scale(0.015625)"/>
       <path d="M 2588 1216 
L 3141 1144 
Q 3050 572 2676 248 
Q 2303 -75 1759 -75 
Q 1078 -75 664 370 
Q 250 816 250 1647 
Q 250 2184 428 2587 
Q 606 2991 970 3192 
Q 1334 3394 1763 3394 
Q 2303 3394 2647 3120 
Q 2991 2847 3088 2344 
L 2541 2259 
Q 2463 2594 2264 2762 
Q 2066 2931 1784 2931 
Q 1359 2931 1093 2626 
Q 828 2322 828 1663 
Q 828 994 1084 691 
Q 1341 388 1753 388 
Q 2084 388 2306 591 
Q 2528 794 2588 1216 
z
" id="ArialMT-63" transform="scale(0.015625)"/>
       <path d="M 422 0 
L 422 4581 
L 984 4581 
L 984 2938 
Q 1378 3394 1978 3394 
Q 2347 3394 2619 3248 
Q 2891 3103 3008 2847 
Q 3125 2591 3125 2103 
L 3125 0 
L 2563 0 
L 2563 2103 
Q 2563 2525 2380 2717 
Q 2197 2909 1863 2909 
Q 1613 2909 1392 2779 
Q 1172 2650 1078 2428 
Q 984 2206 984 1816 
L 984 0 
L 422 0 
z
" id="ArialMT-68" transform="scale(0.015625)"/>
      </defs>
      <use xlink:href="#ArialMT-45"/>
      <use x="66.699219" xlink:href="#ArialMT-70"/>
      <use x="122.314453" xlink:href="#ArialMT-6f"/>
      <use x="177.929688" xlink:href="#ArialMT-63"/>
      <use x="227.929688" xlink:href="#ArialMT-68"/>
     </g>
    </g>
   </g>
   <g id="matplotlib.axis_2">
    <g id="ytick_1">
     <g id="line2d_13">
      <path clip-path="url(#p3945679a94)" d="M 54 243.939317 
L 388.8 243.939317 
" style="fill:none;stroke:#cccccc;stroke-linecap:round;stroke-width:0.8;"/>
     </g>
     <g id="line2d_14"/>
     <g id="text_8">
      <!-- 16000 -->
      <g style="fill:#262626;" transform="translate(22.695312 247.518224)scale(0.1 -0.1)">
       <use xlink:href="#ArialMT-31"/>
       <use x="55.615234" xlink:href="#ArialMT-36"/>
       <use x="111.230469" xlink:href="#ArialMT-30"/>
       <use x="166.845703" xlink:href="#ArialMT-30"/>
       <use x="222.460938" xlink:href="#ArialMT-30"/>
      </g>
     </g>
    </g>
    <g id="ytick_2">
     <g id="line2d_15">
      <path clip-path="url(#p3945679a94)" d="M 54 216.758192 
L 388.8 216.758192 
" style="fill:none;stroke:#cccccc;stroke-linecap:round;stroke-width:0.8;"/>
     </g>
     <g id="line2d_16"/>
     <g id="text_9">
      <!-- 18000 -->
      <g style="fill:#262626;" transform="translate(22.695312 220.337099)scale(0.1 -0.1)">
       <use xlink:href="#ArialMT-31"/>
       <use x="55.615234" xlink:href="#ArialMT-38"/>
       <use x="111.230469" xlink:href="#ArialMT-30"/>
       <use x="166.845703" xlink:href="#ArialMT-30"/>
       <use x="222.460938" xlink:href="#ArialMT-30"/>
      </g>
     </g>
    </g>
    <g id="ytick_3">
     <g id="line2d_17">
      <path clip-path="url(#p3945679a94)" d="M 54 189.577067 
L 388.8 189.577067 
" style="fill:none;stroke:#cccccc;stroke-linecap:round;stroke-width:0.8;"/>
     </g>
     <g id="line2d_18"/>
     <g id="text_10">
      <!-- 20000 -->
      <g style="fill:#262626;" transform="translate(22.695312 193.155974)scale(0.1 -0.1)">
       <use xlink:href="#ArialMT-32"/>
       <use x="55.615234" xlink:href="#ArialMT-30"/>
       <use x="111.230469" xlink:href="#ArialMT-30"/>
       <use x="166.845703" xlink:href="#ArialMT-30"/>
       <use x="222.460938" xlink:href="#ArialMT-30"/>
      </g>
     </g>
    </g>
    <g id="ytick_4">
     <g id="line2d_19">
      <path clip-path="url(#p3945679a94)" d="M 54 162.395942 
L 388.8 162.395942 
" style="fill:none;stroke:#cccccc;stroke-linecap:round;stroke-width:0.8;"/>
     </g>
     <g id="line2d_20"/>
     <g id="text_11">
      <!-- 22000 -->
      <g style="fill:#262626;" transform="translate(22.695312 165.974849)scale(0.1 -0.1)">
       <use xlink:href="#ArialMT-32"/>
       <use x="55.615234" xlink:href="#ArialMT-32"/>
       <use x="111.230469" xlink:href="#ArialMT-30"/>
       <use x="166.845703" xlink:href="#ArialMT-30"/>
       <use x="222.460938" xlink:href="#ArialMT-30"/>
      </g>
     </g>
    </g>
    <g id="ytick_5">
     <g id="line2d_21">
      <path clip-path="url(#p3945679a94)" d="M 54 135.214817 
L 388.8 135.214817 
" style="fill:none;stroke:#cccccc;stroke-linecap:round;stroke-width:0.8;"/>
     </g>
     <g id="line2d_22"/>
     <g id="text_12">
      <!-- 24000 -->
      <g style="fill:#262626;" transform="translate(22.695312 138.793724)scale(0.1 -0.1)">
       <use xlink:href="#ArialMT-32"/>
       <use x="55.615234" xlink:href="#ArialMT-34"/>
       <use x="111.230469" xlink:href="#ArialMT-30"/>
       <use x="166.845703" xlink:href="#ArialMT-30"/>
       <use x="222.460938" xlink:href="#ArialMT-30"/>
      </g>
     </g>
    </g>
    <g id="ytick_6">
     <g id="line2d_23">
      <path clip-path="url(#p3945679a94)" d="M 54 108.033692 
L 388.8 108.033692 
" style="fill:none;stroke:#cccccc;stroke-linecap:round;stroke-width:0.8;"/>
     </g>
     <g id="line2d_24"/>
     <g id="text_13">
      <!-- 26000 -->
      <g style="fill:#262626;" transform="translate(22.695312 111.612599)scale(0.1 -0.1)">
       <use xlink:href="#ArialMT-32"/>
       <use x="55.615234" xlink:href="#ArialMT-36"/>
       <use x="111.230469" xlink:href="#ArialMT-30"/>
       <use x="166.845703" xlink:href="#ArialMT-30"/>
       <use x="222.460938" xlink:href="#ArialMT-30"/>
      </g>
     </g>
    </g>
    <g id="ytick_7">
     <g id="line2d_25">
      <path clip-path="url(#p3945679a94)" d="M 54 80.852567 
L 388.8 80.852567 
" style="fill:none;stroke:#cccccc;stroke-linecap:round;stroke-width:0.8;"/>
     </g>
     <g id="line2d_26"/>
     <g id="text_14">
      <!-- 28000 -->
      <g style="fill:#262626;" transform="translate(22.695312 84.431474)scale(0.1 -0.1)">
       <use xlink:href="#ArialMT-32"/>
       <use x="55.615234" xlink:href="#ArialMT-38"/>
       <use x="111.230469" xlink:href="#ArialMT-30"/>
       <use x="166.845703" xlink:href="#ArialMT-30"/>
       <use x="222.460938" xlink:href="#ArialMT-30"/>
      </g>
     </g>
    </g>
    <g id="ytick_8">
     <g id="line2d_27">
      <path clip-path="url(#p3945679a94)" d="M 54 53.671442 
L 388.8 53.671442 
" style="fill:none;stroke:#cccccc;stroke-linecap:round;stroke-width:0.8;"/>
     </g>
     <g id="line2d_28"/>
     <g id="text_15">
      <!-- 30000 -->
      <g style="fill:#262626;" transform="translate(22.695312 57.250349)scale(0.1 -0.1)">
       <defs>
        <path d="M 269 1209 
L 831 1284 
Q 928 806 1161 595 
Q 1394 384 1728 384 
Q 2125 384 2398 659 
Q 2672 934 2672 1341 
Q 2672 1728 2419 1979 
Q 2166 2231 1775 2231 
Q 1616 2231 1378 2169 
L 1441 2663 
Q 1497 2656 1531 2656 
Q 1891 2656 2178 2843 
Q 2466 3031 2466 3422 
Q 2466 3731 2256 3934 
Q 2047 4138 1716 4138 
Q 1388 4138 1169 3931 
Q 950 3725 888 3313 
L 325 3413 
Q 428 3978 793 4289 
Q 1159 4600 1703 4600 
Q 2078 4600 2393 4439 
Q 2709 4278 2876 4000 
Q 3044 3722 3044 3409 
Q 3044 3113 2884 2869 
Q 2725 2625 2413 2481 
Q 2819 2388 3044 2092 
Q 3269 1797 3269 1353 
Q 3269 753 2831 336 
Q 2394 -81 1725 -81 
Q 1122 -81 723 278 
Q 325 638 269 1209 
z
" id="ArialMT-33" transform="scale(0.015625)"/>
       </defs>
       <use xlink:href="#ArialMT-33"/>
       <use x="55.615234" xlink:href="#ArialMT-30"/>
       <use x="111.230469" xlink:href="#ArialMT-30"/>
       <use x="166.845703" xlink:href="#ArialMT-30"/>
       <use x="222.460938" xlink:href="#ArialMT-30"/>
      </g>
     </g>
    </g>
    <g id="text_16">
     <!-- Loss -->
     <g style="fill:#262626;" transform="translate(16.707812 153.840937)rotate(-90)scale(0.1 -0.1)">
      <defs>
       <path d="M 469 0 
L 469 4581 
L 1075 4581 
L 1075 541 
L 3331 541 
L 3331 0 
L 469 0 
z
" id="ArialMT-4c" transform="scale(0.015625)"/>
       <path d="M 197 991 
L 753 1078 
Q 800 744 1014 566 
Q 1228 388 1613 388 
Q 2000 388 2187 545 
Q 2375 703 2375 916 
Q 2375 1106 2209 1216 
Q 2094 1291 1634 1406 
Q 1016 1563 777 1677 
Q 538 1791 414 1992 
Q 291 2194 291 2438 
Q 291 2659 392 2848 
Q 494 3038 669 3163 
Q 800 3259 1026 3326 
Q 1253 3394 1513 3394 
Q 1903 3394 2198 3281 
Q 2494 3169 2634 2976 
Q 2775 2784 2828 2463 
L 2278 2388 
Q 2241 2644 2061 2787 
Q 1881 2931 1553 2931 
Q 1166 2931 1000 2803 
Q 834 2675 834 2503 
Q 834 2394 903 2306 
Q 972 2216 1119 2156 
Q 1203 2125 1616 2013 
Q 2213 1853 2448 1751 
Q 2684 1650 2818 1456 
Q 2953 1263 2953 975 
Q 2953 694 2789 445 
Q 2625 197 2315 61 
Q 2006 -75 1616 -75 
Q 969 -75 630 194 
Q 291 463 197 991 
z
" id="ArialMT-73" transform="scale(0.015625)"/>
      </defs>
      <use xlink:href="#ArialMT-4c"/>
      <use x="55.615234" xlink:href="#ArialMT-6f"/>
      <use x="111.230469" xlink:href="#ArialMT-73"/>
      <use x="161.230469" xlink:href="#ArialMT-73"/>
     </g>
    </g>
   </g>
   <g id="line2d_29">
    <path clip-path="url(#p3945679a94)" d="M 69.218182 44.443636 
L 69.522241 74.981922 
L 69.826301 75.345125 
L 70.130361 80.013271 
L 70.43442 87.749964 
L 70.73848 90.323862 
L 71.042539 98.298735 
L 71.346599 74.547582 
L 71.650658 96.994041 
L 71.954718 103.912248 
L 72.258778 140.69845 
L 72.562837 95.292646 
L 72.866897 91.920621 
L 73.170956 121.712594 
L 73.475016 92.538912 
L 73.779075 150.582187 
L 74.083135 146.577563 
L 74.387195 110.76651 
L 74.691254 139.320441 
L 74.995314 113.439923 
L 75.299373 115.587523 
L 75.603433 107.925048 
L 75.907493 112.803476 
L 76.211552 140.337 
L 76.515612 140.921473 
L 76.819671 109.305843 
L 77.123731 157.384449 
L 77.42779 140.907883 
L 77.73185 146.434756 
L 78.03591 125.784799 
L 78.339969 120.112146 
L 78.644029 125.325029 
L 78.948088 120.283302 
L 79.252148 129.23996 
L 79.556207 147.615993 
L 79.860267 122.858527 
L 80.164327 151.43441 
L 80.468386 151.261688 
L 80.772446 153.494947 
L 81.076505 146.820043 
L 81.380565 122.820676 
L 81.684624 161.201539 
L 81.988684 127.432707 
L 82.292744 156.775263 
L 82.596803 126.79281 
L 82.900863 187.391694 
L 83.204922 130.093087 
L 83.508982 157.344978 
L 83.813042 158.459882 
L 84.117101 172.475919 
L 84.421161 143.853 
L 84.72522 126.67368 
L 85.02928 135.714324 
L 85.333339 152.111205 
L 85.637399 148.007863 
L 85.941459 169.03541 
L 86.245518 145.503165 
L 86.549578 170.060621 
L 86.853637 161.300575 
L 87.157697 156.988969 
L 87.461756 171.9259 
L 87.765816 139.652985 
L 88.069876 167.957774 
L 88.373935 138.282728 
L 88.677995 136.593808 
L 88.982054 166.206688 
L 89.286114 135.982711 
L 89.590173 179.559204 
L 89.894233 150.615606 
L 90.198293 146.64103 
L 90.502352 164.498684 
L 90.806412 148.471456 
L 91.110471 156.381428 
L 91.414531 145.401528 
L 91.718591 185.262807 
L 92.32671 143.123596 
L 92.630769 158.65514 
L 92.934829 137.840132 
L 93.238888 134.824354 
L 93.542948 144.501684 
L 93.847008 128.811433 
L 94.151067 154.79473 
L 94.455127 193.179628 
L 94.759186 158.85568 
L 95.063246 138.520775 
L 95.367305 158.379798 
L 95.671365 162.823859 
L 95.975425 148.062677 
L 96.279484 146.181127 
L 96.583544 147.202171 
L 97.191663 171.308272 
L 97.495722 152.738069 
L 97.799782 171.482906 
L 98.103842 136.660381 
L 98.711961 174.107291 
L 99.01602 154.839563 
L 99.32008 158.633162 
L 99.624139 153.456166 
L 99.928199 133.280578 
L 100.232259 132.838301 
L 100.536318 186.558396 
L 100.840378 141.938217 
L 101.448497 156.237506 
L 101.752557 169.010459 
L 102.056616 166.240532 
L 102.360676 194.585667 
L 102.664735 196.642647 
L 102.968795 158.491761 
L 103.272854 159.13657 
L 103.576914 146.681244 
L 103.880974 180.164939 
L 104.185033 143.440505 
L 104.489093 151.059157 
L 104.793152 162.914375 
L 105.097212 160.106437 
L 105.401271 173.60951 
L 105.705331 152.044738 
L 106.009391 144.425662 
L 106.31345 148.190248 
L 106.61751 167.991564 
L 106.921569 176.035664 
L 107.529688 162.977576 
L 107.833748 159.852171 
L 108.137808 145.580753 
L 108.441867 201.413518 
L 108.745927 160.150845 
L 109.049986 175.350031 
L 109.354046 141.794402 
L 109.962165 160.585425 
L 110.266225 148.311342 
L 110.570284 142.918861 
L 110.874344 165.505182 
L 111.178403 159.604462 
L 111.482463 169.413291 
L 111.786523 164.901915 
L 112.090582 171.147468 
L 112.394642 157.203073 
L 112.698701 181.771439 
L 113.30682 136.660912 
L 113.61088 156.037603 
L 113.91494 158.190539 
L 114.218999 174.209937 
L 114.523059 166.485189 
L 114.827118 149.372839 
L 115.739297 180.81203 
L 116.043357 185.579982 
L 116.347416 174.223209 
L 116.651476 154.124784 
L 116.955535 157.771196 
L 117.259595 188.401059 
L 117.563655 162.288173 
L 117.867714 150.605731 
L 118.171774 148.642107 
L 118.475833 145.068134 
L 118.779893 177.354666 
L 119.083952 157.554092 
L 119.388012 172.652597 
L 119.692072 163.038282 
L 119.996131 143.615484 
L 120.300191 177.907393 
L 120.90831 166.310821 
L 121.212369 166.376172 
L 121.820489 133.597965 
L 122.124548 204.856788 
L 122.428608 183.866483 
L 122.732667 171.115668 
L 123.036727 183.419348 
L 123.340786 164.981918 
L 123.644846 189.206061 
L 123.948906 165.99914 
L 124.252965 155.296678 
L 124.557025 177.239969 
L 124.861084 137.20626 
L 125.165144 186.93503 
L 125.469204 164.751463 
L 125.773263 158.178329 
L 126.077323 187.213159 
L 126.381382 163.12816 
L 126.685442 168.379506 
L 126.989501 207.435199 
L 127.293561 173.7632 
L 127.597621 178.734453 
L 127.90168 187.389544 
L 128.20574 162.781867 
L 128.813859 187.283182 
L 129.117918 182.748526 
L 129.421978 152.335051 
L 129.726038 177.923585 
L 130.030097 170.470966 
L 130.334157 142.270337 
L 130.638216 152.960243 
L 130.942276 145.721809 
L 131.246335 182.832591 
L 131.550395 173.662864 
L 131.854455 168.635232 
L 132.158514 143.901363 
L 132.462574 162.60511 
L 132.766633 171.942675 
L 133.070693 185.696962 
L 133.678812 156.918202 
L 133.982872 181.080948 
L 134.286931 185.288157 
L 134.590991 160.896919 
L 134.89505 185.711481 
L 135.19911 182.223246 
L 135.50317 172.498959 
L 135.807229 156.206715 
L 136.111289 161.499204 
L 136.415348 193.777401 
L 136.719408 184.444453 
L 137.023467 130.152572 
L 137.327527 189.065802 
L 137.631587 165.717747 
L 137.935646 162.270761 
L 138.239706 183.57909 
L 138.543765 173.447936 
L 138.847825 205.804571 
L 139.151884 164.218511 
L 139.455944 188.965094 
L 139.760004 182.551357 
L 140.064063 181.494478 
L 140.368123 181.665741 
L 140.672182 174.047009 
L 140.976242 173.563032 
L 141.280302 142.64928 
L 141.584361 182.740643 
L 141.888421 155.97326 
L 142.49654 178.362995 
L 142.800599 164.168927 
L 143.104659 177.788104 
L 143.712778 154.355001 
L 144.016838 167.736715 
L 144.320897 174.749366 
L 145.233076 145.562305 
L 145.537136 188.222099 
L 145.841195 175.768843 
L 146.145255 183.176496 
L 146.449314 180.652368 
L 146.753374 174.457673 
L 147.057433 152.981558 
L 147.361493 158.731507 
L 147.969612 189.227694 
L 148.273672 159.868124 
L 148.577731 208.184167 
L 148.881791 169.572662 
L 149.185851 191.247963 
L 149.48991 190.533264 
L 149.79397 157.004471 
L 150.098029 147.975851 
L 150.402089 194.210626 
L 150.706148 166.095522 
L 151.010208 190.863526 
L 151.314268 154.61216 
L 151.618327 171.753469 
L 151.922387 160.288821 
L 152.226446 192.528635 
L 152.530506 139.579565 
L 152.834565 195.550624 
L 153.138625 183.335893 
L 153.442685 191.826013 
L 153.746744 192.908215 
L 154.050804 188.847902 
L 154.354863 174.746923 
L 154.658923 184.123536 
L 154.962982 182.771062 
L 155.267042 205.688175 
L 155.571102 165.775347 
L 155.875161 152.702421 
L 156.179221 179.400205 
L 156.48328 166.643577 
L 156.78734 191.110279 
L 157.0914 162.817754 
L 157.395459 203.467604 
L 157.699519 162.069344 
L 158.003578 153.461953 
L 158.307638 165.921233 
L 158.611697 184.216281 
L 158.915757 175.075008 
L 159.219817 187.756755 
L 159.523876 167.335475 
L 159.827936 183.209119 
L 160.131995 167.389173 
L 160.436055 189.15146 
L 160.740114 186.499362 
L 161.044174 182.086464 
L 161.348234 198.202509 
L 161.652293 191.017428 
L 161.956353 191.978721 
L 162.260412 151.703249 
L 162.564472 185.630071 
L 162.868531 167.443854 
L 163.172591 178.43562 
L 163.476651 183.553157 
L 164.08477 197.472122 
L 164.388829 163.590293 
L 164.692889 189.991049 
L 164.996949 181.907239 
L 165.301008 178.998062 
L 165.605068 208.649537 
L 166.213187 173.324931 
L 166.517246 172.085748 
L 166.821306 183.735169 
L 167.429425 171.025445 
L 167.733485 192.447251 
L 168.341604 165.416471 
L 168.645663 192.940732 
L 168.949723 160.425736 
L 169.253783 190.439033 
L 169.557842 167.061832 
L 169.861902 182.394986 
L 170.165961 186.007209 
L 170.77408 160.525913 
L 171.07814 190.195119 
L 171.3822 174.070634 
L 171.686259 163.946063 
L 171.990319 199.890765 
L 172.294378 176.198433 
L 172.598438 173.839461 
L 172.902498 167.827894 
L 173.206557 203.284424 
L 173.510617 196.528136 
L 173.814676 178.782869 
L 174.118736 199.608707 
L 174.422795 192.237818 
L 174.726855 169.820106 
L 175.334974 179.620919 
L 175.639034 152.022627 
L 175.943093 181.823545 
L 176.247153 199.780554 
L 176.551212 190.458118 
L 176.855272 191.85131 
L 177.159332 215.056107 
L 177.463391 200.813251 
L 177.767451 157.832433 
L 178.07151 183.124603 
L 178.37557 179.204416 
L 178.679629 168.357766 
L 178.983689 186.573925 
L 179.287749 184.841446 
L 179.591808 197.640199 
L 179.895868 181.522244 
L 180.199927 172.274715 
L 180.503987 149.704773 
L 180.808046 180.359136 
L 181.112106 197.771831 
L 181.416166 167.156541 
L 181.720225 186.778951 
L 182.024285 175.844335 
L 182.328344 188.248776 
L 182.632404 176.788454 
L 182.936464 205.271141 
L 183.240523 193.726011 
L 183.544583 177.205249 
L 183.848642 174.464203 
L 184.152702 153.92573 
L 184.456761 190.398075 
L 184.760821 161.063218 
L 185.064881 182.740032 
L 185.36894 165.283565 
L 185.673 193.218674 
L 185.977059 186.512395 
L 186.281119 184.882537 
L 186.585178 162.764586 
L 186.889238 161.767485 
L 187.193298 185.783947 
L 187.497357 177.133686 
L 187.801417 176.504247 
L 188.105476 183.998699 
L 188.713595 176.757345 
L 189.321715 202.544455 
L 189.625774 151.318068 
L 189.929834 176.560706 
L 190.537953 194.247204 
L 190.842013 186.222269 
L 191.146072 167.774938 
L 191.450132 201.713599 
L 192.36231 157.316071 
L 192.66637 183.920898 
L 192.97043 188.828312 
L 193.274489 198.255863 
L 193.882608 183.228125 
L 194.186668 191.359608 
L 194.490727 204.420881 
L 194.794787 196.093716 
L 195.098847 210.368929 
L 195.402906 180.16539 
L 195.706966 180.9284 
L 196.011025 211.193282 
L 196.315085 190.114956 
L 196.619144 213.683407 
L 196.923204 164.518539 
L 197.531323 187.508701 
L 197.835383 165.32954 
L 198.139442 179.69994 
L 198.443502 183.46795 
L 198.747562 180.766136 
L 199.051621 192.722168 
L 199.355681 193.985533 
L 199.65974 155.582001 
L 199.9638 200.686927 
L 200.267859 160.927153 
L 200.571919 168.096599 
L 200.875979 193.201792 
L 201.180038 183.071913 
L 201.484098 179.459212 
L 201.788157 160.797193 
L 202.092217 163.376852 
L 202.396276 194.500089 
L 202.700336 173.482815 
L 203.004396 185.150446 
L 203.308455 168.961485 
L 203.612515 184.442595 
L 203.916574 177.665842 
L 204.220634 186.755088 
L 204.524693 149.504922 
L 204.828753 157.981558 
L 205.132813 182.36231 
L 205.436872 182.965046 
L 205.740932 144.895704 
L 206.349051 190.066487 
L 206.653111 190.957359 
L 206.95717 181.511785 
L 207.26123 178.513606 
L 207.565289 158.797018 
L 207.869349 172.391429 
L 208.173408 179.605682 
L 208.477468 173.337168 
L 208.781528 206.596752 
L 209.085587 165.768154 
L 209.693706 199.284657 
L 209.997766 163.290902 
L 210.301825 190.358206 
L 210.605885 182.986998 
L 210.909945 162.264682 
L 211.214004 205.679044 
L 211.518064 215.974452 
L 211.822123 143.211005 
L 212.126183 138.096999 
L 212.430242 180.258242 
L 213.038362 204.516307 
L 213.342421 186.542921 
L 213.646481 193.83155 
L 214.2546 161.78888 
L 214.55866 196.069428 
L 214.862719 207.524493 
L 215.166779 162.28966 
L 215.470838 165.694255 
L 215.774898 187.062866 
L 216.078957 175.113364 
L 216.383017 199.891614 
L 216.687077 170.684221 
L 216.991136 200.515267 
L 217.295196 171.074472 
L 217.599255 208.604094 
L 218.207374 173.099492 
L 218.511434 193.347174 
L 218.815494 202.176395 
L 219.423613 178.181912 
L 219.727672 199.351867 
L 220.031732 174.418069 
L 220.335791 159.558302 
L 220.943911 218.341174 
L 221.24797 173.571844 
L 221.55203 171.868936 
L 221.856089 183.645318 
L 222.160149 174.85801 
L 222.464209 174.880175 
L 222.768268 175.983638 
L 223.376387 188.180584 
L 223.680447 175.78039 
L 223.984506 179.624502 
L 224.288566 186.198167 
L 224.592626 201.275648 
L 224.896685 156.816618 
L 225.200745 156.037284 
L 225.504804 196.261341 
L 225.808864 186.898505 
L 226.112923 188.743876 
L 226.416983 192.35939 
L 226.721043 193.7933 
L 227.025102 188.931144 
L 227.329162 204.515484 
L 227.633221 163.774402 
L 228.5454 202.36714 
L 228.84946 167.359444 
L 229.153519 188.477214 
L 229.457579 200.019318 
L 229.761638 204.74456 
L 230.065698 206.995603 
L 230.369758 154.582749 
L 230.977877 187.707383 
L 231.281936 188.49837 
L 231.585996 191.653026 
L 231.890055 213.641494 
L 232.194115 188.811457 
L 232.498175 206.619819 
L 232.802234 181.446991 
L 233.106294 198.524542 
L 233.410353 199.579244 
L 233.714413 182.829884 
L 234.018472 155.626117 
L 234.322532 221.739505 
L 234.626592 168.268021 
L 234.930651 192.785688 
L 235.53877 163.545433 
L 235.84283 170.748697 
L 236.146889 196.746408 
L 236.450949 177.800341 
L 236.755009 203.551351 
L 237.059068 164.506169 
L 237.363128 178.806839 
L 237.667187 184.038435 
L 237.971247 207.068811 
L 238.275307 168.619624 
L 238.579366 191.130426 
L 238.883426 170.171815 
L 239.187485 171.506238 
L 239.491545 166.713016 
L 239.795604 188.801901 
L 240.403724 183.116613 
L 240.707783 203.837947 
L 241.011843 193.610571 
L 241.315902 168.244529 
L 241.619962 183.190644 
L 241.924021 177.435652 
L 242.228081 184.273722 
L 242.532141 221.144998 
L 242.8362 206.382435 
L 243.14026 174.725555 
L 243.444319 207.438146 
L 243.748379 187.491765 
L 244.052438 189.829501 
L 244.356498 165.162684 
L 244.660558 182.675079 
L 244.964617 164.453081 
L 245.268677 175.395076 
L 245.572736 174.645976 
L 245.876796 200.062664 
L 246.180856 201.48309 
L 246.484915 190.083475 
L 246.788975 183.150112 
L 247.093034 191.868617 
L 247.397094 188.474692 
L 247.701153 204.946109 
L 248.005213 171.5202 
L 248.309273 195.675832 
L 248.613332 175.17338 
L 248.917392 193.089591 
L 249.221451 198.479151 
L 249.525511 196.394911 
L 249.82957 171.250327 
L 250.13363 170.873135 
L 250.741749 205.454348 
L 251.045809 201.759998 
L 251.349868 157.234395 
L 251.653928 198.588964 
L 251.957987 164.921743 
L 252.566107 211.477356 
L 252.870166 187.439421 
L 253.174226 185.188192 
L 253.478285 194.224243 
L 253.782345 170.142244 
L 254.086405 166.666007 
L 254.390464 190.64382 
L 254.694524 194.61983 
L 254.998583 205.074556 
L 255.302643 184.803674 
L 255.606702 189.543463 
L 255.910762 200.429291 
L 256.214822 177.02889 
L 256.518881 201.478392 
L 257.127 174.76869 
L 257.735119 196.101281 
L 258.039179 221.390344 
L 258.343239 188.272718 
L 258.647298 193.298094 
L 258.951358 212.70563 
L 259.255417 180.28521 
L 259.559477 167.955916 
L 259.863536 188.037379 
L 260.167596 182.776026 
L 260.471656 206.702609 
L 260.775715 198.439574 
L 261.079775 227.578669 
L 261.383834 191.271163 
L 261.687894 204.992986 
L 262.296013 155.823313 
L 262.600073 190.541121 
L 262.904132 192.004363 
L 263.208192 196.204112 
L 263.512251 185.872285 
L 263.816311 181.632587 
L 264.120371 187.444145 
L 264.42443 170.141873 
L 264.72849 189.72736 
L 265.032549 201.361943 
L 265.336609 184.68489 
L 265.640668 199.521192 
L 265.944728 188.778675 
L 266.248788 203.065329 
L 266.552847 206.971846 
L 266.856907 187.008318 
L 267.160966 179.078358 
L 267.465026 178.812147 
L 267.769085 169.389508 
L 268.073145 180.990539 
L 268.377205 196.898027 
L 268.681264 194.355743 
L 268.985324 211.039963 
L 269.289383 169.201443 
L 269.593443 190.448429 
L 269.897502 192.018166 
L 270.201562 195.639387 
L 270.505622 187.465487 
L 270.809681 192.918116 
L 271.113741 200.653349 
L 271.4178 201.599964 
L 271.72186 177.245729 
L 272.02592 217.279996 
L 272.329979 209.880731 
L 272.634039 190.625293 
L 272.938098 197.706029 
L 273.242158 200.132369 
L 273.546217 197.1623 
L 273.850277 197.244268 
L 274.154337 186.188213 
L 274.458396 169.40846 
L 274.762456 181.224791 
L 275.066515 173.078549 
L 275.370575 168.025382 
L 275.674634 184.781112 
L 275.978694 183.654847 
L 276.282754 195.64682 
L 276.586813 180.776621 
L 276.890873 171.466263 
L 277.194932 176.029559 
L 277.498992 193.726171 
L 277.803051 186.134833 
L 278.107111 174.796083 
L 278.411171 213.291033 
L 278.71523 178.370587 
L 279.01929 167.303356 
L 279.323349 198.458633 
L 279.627409 189.103972 
L 279.931469 198.364959 
L 280.235528 191.674739 
L 280.539588 190.029856 
L 280.843647 170.118673 
L 281.147707 159.801817 
L 282.059886 205.143039 
L 282.363945 181.481923 
L 282.668005 208.040059 
L 282.972064 166.040284 
L 283.276124 200.233342 
L 283.580183 204.550496 
L 283.884243 187.024616 
L 284.188303 198.662942 
L 284.492362 191.33885 
L 284.796422 187.671363 
L 285.100481 213.857032 
L 285.404541 192.112132 
L 285.7086 181.017296 
L 286.01266 212.765381 
L 286.31672 219.366306 
L 286.620779 159.276749 
L 286.924839 193.2522 
L 287.228898 197.845199 
L 287.532958 212.495852 
L 287.837018 213.765959 
L 288.141077 166.514891 
L 288.445137 205.651756 
L 288.749196 182.298498 
L 289.053256 176.854098 
L 289.357315 203.105145 
L 289.661375 192.507692 
L 289.965435 205.986583 
L 290.269494 196.700168 
L 290.573554 194.632544 
L 290.877613 206.007208 
L 291.181673 208.497944 
L 291.485732 179.11175 
L 291.789792 196.725385 
L 292.093852 176.426526 
L 292.397911 196.832941 
L 292.701971 197.296082 
L 293.00603 200.581733 
L 293.31009 177.228688 
L 293.614149 202.929848 
L 293.918209 191.207165 
L 294.222269 201.678136 
L 294.526328 191.127612 
L 294.830388 202.056336 
L 295.134447 178.786028 
L 295.438507 200.404525 
L 295.742567 183.730498 
L 296.046626 196.741709 
L 296.350686 182.29019 
L 296.654745 189.839057 
L 296.958805 194.571493 
L 297.262864 211.953849 
L 297.566924 218.034962 
L 298.175043 172.130023 
L 298.479103 174.952162 
L 298.783162 197.946093 
L 299.087222 192.660426 
L 299.391281 161.307662 
L 299.695341 182.706189 
L 299.999401 155.765553 
L 300.60752 202.299533 
L 300.911579 205.04034 
L 301.215639 174.907542 
L 301.519698 194.599948 
L 301.823758 203.242245 
L 302.127818 203.550024 
L 302.431877 209.415174 
L 302.735937 203.170417 
L 303.039996 193.364481 
L 303.648116 189.990066 
L 303.952175 210.634556 
L 304.256235 199.01489 
L 304.560294 203.441565 
L 304.864354 216.002854 
L 305.168413 205.925266 
L 305.472473 217.708788 
L 305.776533 195.609154 
L 306.080592 183.974384 
L 306.384652 192.941475 
L 306.688711 184.42274 
L 306.992771 197.114388 
L 307.29683 197.085986 
L 307.60089 211.930065 
L 307.90495 209.241231 
L 308.209009 190.813198 
L 308.513069 155.745034 
L 308.817128 172.382458 
L 309.121188 161.933545 
L 309.425247 183.065409 
L 309.729307 190.775001 
L 310.033367 206.200555 
L 310.337426 196.86644 
L 310.641486 205.145322 
L 310.945545 195.464409 
L 311.249605 190.624788 
L 311.553665 177.567655 
L 311.857724 205.463002 
L 312.161784 207.467052 
L 312.465843 177.781043 
L 312.769903 184.159901 
L 313.378022 203.292201 
L 313.682082 193.498821 
L 313.986141 203.494679 
L 314.290201 193.583815 
L 314.59426 193.8294 
L 314.89832 205.649182 
L 315.202379 191.855238 
L 315.506439 196.429896 
L 315.810499 191.250326 
L 316.114558 216.534957 
L 316.418618 179.671405 
L 317.026737 203.46272 
L 317.330796 168.33969 
L 317.634856 199.744295 
L 317.938916 190.790662 
L 318.242975 197.726335 
L 318.547035 178.806759 
L 318.851094 199.155494 
L 319.459214 173.928145 
L 320.371392 214.786499 
L 320.675452 208.159242 
L 320.979511 185.68653 
L 321.283571 196.433347 
L 321.587631 177.229033 
L 321.89169 216.047103 
L 322.19575 188.027425 
L 322.499809 210.136881 
L 322.803869 190.105347 
L 323.107928 224.791489 
L 323.411988 197.708391 
L 323.716048 199.353725 
L 324.020107 188.806652 
L 324.324167 215.743306 
L 324.628226 178.424471 
L 325.236345 167.498084 
L 325.540405 201.703353 
L 325.844465 195.488006 
L 326.148524 202.058964 
L 326.452584 201.649734 
L 326.756643 190.78461 
L 327.060703 198.455155 
L 327.364763 195.300871 
L 327.668822 181.284488 
L 327.972882 222.243365 
L 328.276941 185.545926 
L 328.581001 187.866276 
L 328.88506 198.154199 
L 329.18912 194.877785 
L 329.49318 213.742096 
L 329.797239 219.635277 
L 330.101299 201.849956 
L 330.405358 193.568021 
L 330.709418 194.287047 
L 331.013477 182.924062 
L 331.317537 221.87926 
L 331.621597 175.341112 
L 331.925656 165.365241 
L 332.229716 187.880609 
L 332.533775 178.888992 
L 332.837835 200.626699 
L 333.141894 197.963851 
L 333.445954 183.174001 
L 334.054073 196.421614 
L 334.358133 227.281004 
L 334.662192 186.427534 
L 334.966252 187.422273 
L 335.270312 217.042108 
L 335.574371 191.789648 
L 335.878431 209.941941 
L 336.18249 201.607104 
L 336.48655 205.257126 
L 336.790609 223.480504 
L 337.094669 178.297272 
L 337.398729 181.434568 
L 337.702788 197.667726 
L 338.006848 179.838368 
L 338.614967 215.372167 
L 338.919026 186.209156 
L 339.223086 201.03139 
L 339.527146 179.707452 
L 339.831205 205.942387 
L 340.743384 184.212644 
L 341.047443 208.011152 
L 341.351503 242.116364 
L 341.655563 181.260917 
L 341.959622 183.513765 
L 342.263682 172.714603 
L 342.567741 194.981201 
L 342.871801 187.602932 
L 343.175861 211.494716 
L 343.47992 208.065807 
L 343.78398 215.175263 
L 344.088039 207.902773 
L 344.392099 185.958235 
L 345.000218 209.731553 
L 345.304278 188.265631 
L 345.912397 212.787094 
L 346.216456 180.281255 
L 346.520516 207.165565 
L 346.824575 217.700746 
L 347.128635 187.684688 
L 347.432695 181.169553 
L 347.736754 201.052519 
L 348.040814 187.953553 
L 348.648933 175.134493 
L 349.257052 194.470625 
L 349.561112 200.120185 
L 350.169231 180.24712 
L 350.47329 217.945323 
L 350.77735 206.141202 
L 351.081409 212.486402 
L 351.385469 208.741884 
L 351.689529 215.208842 
L 351.993588 212.527599 
L 352.297648 181.614909 
L 352.601707 207.211061 
L 352.905767 222.303858 
L 353.209827 203.445891 
L 353.513886 227.699073 
L 353.817946 191.144707 
L 354.426065 225.844306 
L 354.730124 207.920584 
L 355.034184 212.500949 
L 355.338244 204.931085 
L 355.642303 186.880562 
L 355.946363 210.756419 
L 356.250422 190.366541 
L 356.554482 195.967286 
L 356.858541 179.244311 
L 357.162601 188.538186 
L 357.466661 209.36912 
L 357.77072 193.205323 
L 358.07478 208.987364 
L 358.378839 186.162757 
L 358.682899 177.911056 
L 358.986958 181.226994 
L 359.291018 209.148274 
L 359.595078 187.381767 
L 359.899137 185.604987 
L 360.203197 197.085641 
L 360.507256 198.736098 
L 360.811316 181.044981 
L 361.115376 223.635654 
L 361.723495 193.836116 
L 362.027554 217.218626 
L 362.331614 193.348979 
L 362.635673 216.890913 
L 362.939733 208.760014 
L 363.243793 179.23311 
L 363.547852 201.01618 
L 363.851912 176.869228 
L 364.155971 171.400619 
L 364.460031 199.147425 
L 364.76409 188.698565 
L 365.06815 188.287079 
L 365.37221 220.591846 
L 365.676269 206.512819 
L 365.980329 197.674893 
L 366.284388 210.040977 
L 366.588448 213.84737 
L 366.892507 183.28185 
L 367.196567 177.037039 
L 367.500627 209.066412 
L 367.804686 205.157267 
L 368.108746 210.75849 
L 368.412805 201.9848 
L 368.716865 216.039591 
L 369.020925 195.320752 
L 369.324984 208.922702 
L 369.629044 194.453372 
L 369.933103 190.065929 
L 370.237163 203.637725 
L 370.541222 181.230073 
L 370.845282 180.866711 
L 371.149342 177.582759 
L 371.453401 213.762323 
L 372.06152 196.253325 
L 372.36558 169.67982 
L 372.669639 193.319091 
L 373.277759 185.038987 
L 373.581818 206.092043 
L 373.581818 206.092043 
" style="fill:none;stroke:#1f77b4;stroke-linecap:round;stroke-width:1.5;"/>
   </g>
   <g id="line2d_30">
    <path clip-path="url(#p3945679a94)" d="M 69.218182 123.921742 
L 69.522241 125.909929 
L 70.130361 128.151148 
L 71.042539 132.372496 
L 71.346599 133.316584 
L 71.954718 136.512976 
L 72.258778 137.57451 
L 72.562837 138.199059 
L 72.866897 139.086266 
L 73.170956 140.607009 
L 73.475016 140.938412 
L 73.779075 141.81951 
L 74.083135 142.132 
L 74.387195 141.920103 
L 74.691254 143.295956 
L 74.995314 143.52186 
L 75.299373 144.185882 
L 76.211552 146.846592 
L 76.515612 146.947883 
L 77.123731 148.871385 
L 77.42779 148.586168 
L 77.73185 148.941113 
L 78.03591 148.76922 
L 78.339969 148.950012 
L 78.644029 149.437802 
L 78.948088 149.50753 
L 79.252148 150.197759 
L 79.556207 151.476552 
L 80.772446 152.384742 
L 81.380565 152.263319 
L 81.684624 152.750948 
L 81.988684 152.677769 
L 82.292744 153.55528 
L 82.596803 153.474537 
L 82.900863 154.368338 
L 83.204922 153.353712 
L 83.813042 154.166374 
L 84.117101 154.093967 
L 84.421161 153.817112 
L 85.02928 154.141313 
L 85.333339 154.083793 
L 85.637399 154.772737 
L 85.941459 154.651344 
L 86.245518 154.24338 
L 86.549578 154.458066 
L 86.853637 154.437063 
L 87.157697 154.535862 
L 87.765816 155.782131 
L 88.069876 156.158907 
L 88.373935 155.982483 
L 88.677995 156.150453 
L 88.982054 157.021876 
L 89.286114 156.566552 
L 89.590173 156.868081 
L 89.894233 156.535184 
L 90.198293 156.725001 
L 90.502352 157.264371 
L 90.806412 157.015292 
L 91.414531 156.770552 
L 91.718591 157.222353 
L 92.02265 157.03781 
L 92.32671 157.203258 
L 92.630769 157.600337 
L 92.934829 157.624278 
L 93.238888 157.77909 
L 93.542948 159.110874 
L 93.847008 159.423857 
L 94.151067 160.354629 
L 94.455127 160.094622 
L 94.759186 159.263577 
L 95.063246 159.298172 
L 95.367305 159.493983 
L 95.671365 159.184764 
L 95.975425 159.238391 
L 96.279484 159.469226 
L 96.887603 160.287865 
L 97.191663 160.559962 
L 97.495722 160.277859 
L 97.799782 160.858526 
L 98.103842 160.640864 
L 98.711961 160.68235 
L 99.01602 160.364015 
L 99.32008 160.751422 
L 99.624139 160.908463 
L 99.928199 160.826796 
L 100.536318 162.117733 
L 100.840378 162.002806 
L 101.144437 162.875641 
L 101.448497 163.387362 
L 101.752557 163.345107 
L 102.056616 163.120322 
L 102.360676 163.563533 
L 102.664735 162.917583 
L 102.968795 161.996844 
L 103.576914 161.518483 
L 103.880974 162.131951 
L 104.185033 161.679734 
L 104.489093 162.263976 
L 104.793152 162.503558 
L 105.097212 162.117581 
L 105.401271 162.4736 
L 105.705331 162.446553 
L 106.009391 162.731875 
L 106.31345 163.170885 
L 106.61751 163.191909 
L 106.921569 162.504037 
L 107.225629 163.080459 
L 108.137808 164.003654 
L 108.441867 164.391678 
L 108.745927 164.147529 
L 109.049986 164.264494 
L 109.354046 163.863427 
L 109.658106 164.572339 
L 109.962165 164.283917 
L 110.570284 165.139711 
L 111.482463 165.949534 
L 111.786523 165.928858 
L 112.090582 166.779524 
L 112.394642 166.831839 
L 112.698701 167.262466 
L 113.30682 167.41847 
L 113.91494 168.852619 
L 114.218999 169.343779 
L 114.523059 168.906281 
L 114.827118 169.135049 
L 115.131178 169.557011 
L 115.739297 168.848308 
L 116.043357 168.146504 
L 116.651476 168.080349 
L 116.955535 168.370558 
L 117.259595 168.093161 
L 117.563655 167.577242 
L 117.867714 167.770332 
L 118.475833 168.937364 
L 118.779893 169.174365 
L 119.083952 169.248891 
L 119.388012 169.803572 
L 119.692072 169.568458 
L 119.996131 170.021922 
L 120.300191 170.794078 
L 120.60425 170.685909 
L 120.90831 170.364899 
L 121.212369 170.268667 
L 121.820489 171.520752 
L 122.124548 171.451844 
L 123.036727 170.596152 
L 123.340786 170.599347 
L 123.644846 170.768667 
L 123.948906 171.100637 
L 124.252965 171.065025 
L 124.557025 171.738393 
L 124.861084 171.844621 
L 125.165144 172.730385 
L 125.469204 172.624999 
L 126.077323 173.118604 
L 126.381382 172.227327 
L 126.685442 172.619576 
L 126.989501 172.371451 
L 127.293561 171.615489 
L 127.597621 171.707484 
L 128.20574 171.224145 
L 128.509799 171.316327 
L 129.117918 170.470041 
L 129.421978 170.310058 
L 129.726038 170.560661 
L 130.334157 169.627602 
L 130.638216 170.546637 
L 130.942276 171.002809 
L 131.246335 171.751903 
L 131.854455 171.724195 
L 132.158514 171.411121 
L 133.070693 172.236349 
L 133.374753 171.719773 
L 133.678812 172.445407 
L 134.286931 172.901837 
L 134.590991 173.006739 
L 134.89505 172.92889 
L 135.19911 172.174177 
L 135.50317 172.413925 
L 135.807229 172.285856 
L 136.111289 172.978992 
L 136.415348 172.841252 
L 137.023467 171.91766 
L 137.327527 173.165182 
L 137.631587 172.175457 
L 138.239706 173.193417 
L 138.543765 173.358356 
L 138.847825 173.747561 
L 139.151884 173.408428 
L 139.455944 173.618996 
L 140.064063 173.526559 
L 140.368123 174.010433 
L 140.976242 173.265733 
L 141.280302 173.382477 
L 141.584361 173.862363 
L 142.19248 174.166645 
L 142.49654 174.843256 
L 143.104659 174.303244 
L 143.408719 174.065906 
L 144.320897 175.217214 
L 144.624957 175.068936 
L 145.233076 175.660012 
L 145.537136 176.531795 
L 145.841195 176.49734 
L 146.145255 176.623693 
L 147.057433 177.481935 
L 147.361493 177.456369 
L 147.665553 177.99434 
L 147.969612 177.90819 
L 148.273672 177.692349 
L 148.577731 178.166049 
L 148.881791 177.842383 
L 149.185851 178.400372 
L 149.48991 177.847218 
L 149.79397 177.836374 
L 151.010208 179.760915 
L 151.314268 179.410143 
L 152.226446 180.356355 
L 152.530506 179.926291 
L 152.834565 180.983645 
L 153.442685 180.2559 
L 153.746744 180.278195 
L 154.050804 179.628545 
L 154.354863 179.660368 
L 154.962982 179.472095 
L 155.267042 179.536818 
L 155.571102 178.834929 
L 155.875161 178.72994 
L 156.179221 179.479794 
L 156.78734 179.319253 
L 157.395459 179.762476 
L 157.699519 179.169913 
L 158.003578 179.285084 
L 158.307638 180.281533 
L 158.611697 180.893672 
L 158.915757 180.785003 
L 159.219817 181.275677 
L 159.827936 181.414991 
L 160.131995 181.251465 
L 160.436055 181.4961 
L 160.740114 180.753523 
L 161.044174 180.660007 
L 161.348234 181.013889 
L 161.652293 180.859001 
L 161.956353 180.875678 
L 162.260412 181.337226 
L 162.564472 182.319426 
L 162.868531 181.763473 
L 163.172591 182.077088 
L 163.476651 182.092464 
L 163.78071 181.788556 
L 164.08477 181.680018 
L 164.388829 181.427405 
L 164.692889 182.108403 
L 165.301008 181.746376 
L 165.909127 180.594703 
L 166.213187 180.710966 
L 166.517246 180.587598 
L 166.821306 180.881462 
L 167.125366 180.723646 
L 168.645663 181.866116 
L 168.949723 181.496585 
L 169.253783 181.366585 
L 169.557842 181.365766 
L 169.861902 181.245793 
L 170.165961 181.252694 
L 170.470021 180.838222 
L 171.07814 181.81045 
L 171.3822 181.704198 
L 171.686259 181.478077 
L 171.990319 181.434506 
L 172.294378 181.152369 
L 172.902498 181.22437 
L 173.206557 181.547786 
L 173.814676 180.703404 
L 174.118736 180.932799 
L 174.422795 180.991514 
L 174.726855 180.173119 
L 175.334974 180.506276 
L 175.639034 180.798802 
L 175.943093 181.482795 
L 176.247153 181.201823 
L 176.551212 181.240484 
L 176.855272 181.140474 
L 177.159332 180.78623 
L 177.463391 179.631429 
L 177.767451 179.293582 
L 178.07151 179.913499 
L 178.983689 180.71608 
L 179.287749 180.811794 
L 179.591808 181.203382 
L 179.895868 181.172453 
L 180.199927 181.749386 
L 180.503987 181.9072 
L 181.112106 183.148355 
L 181.416166 182.995218 
L 181.720225 183.925755 
L 182.024285 183.480547 
L 182.632404 183.468337 
L 182.936464 183.239159 
L 183.240523 182.727735 
L 183.544583 182.522574 
L 183.848642 182.593791 
L 184.152702 182.958951 
L 184.456761 183.760147 
L 184.760821 183.063825 
L 185.064881 183.856299 
L 185.36894 183.420042 
L 185.977059 183.475965 
L 187.193298 183.291528 
L 187.497357 183.465851 
L 187.801417 183.392834 
L 188.105476 183.565758 
L 188.409536 183.265013 
L 189.017655 183.355313 
L 189.321715 183.285363 
L 189.625774 182.224572 
L 190.233893 182.473874 
L 190.537953 182.434173 
L 190.842013 181.447143 
L 191.146072 181.065017 
L 191.450132 181.510848 
L 191.754191 181.295723 
L 192.058251 181.216806 
L 192.66637 181.333916 
L 193.274489 180.918874 
L 193.578549 180.4205 
L 193.882608 180.765798 
L 194.186668 180.416599 
L 194.794787 180.199935 
L 195.402906 179.143665 
L 195.706966 179.200097 
L 196.011025 178.826823 
L 196.315085 178.716538 
L 196.619144 179.233728 
L 196.923204 177.82428 
L 197.227264 177.295849 
L 197.835383 177.484097 
L 198.139442 178.267833 
L 198.747562 178.611964 
L 199.051621 178.512826 
L 199.355681 177.89416 
L 199.65974 177.935838 
L 199.9638 178.974688 
L 200.267859 178.206742 
L 200.571919 178.302085 
L 200.875979 178.68141 
L 201.180038 178.319641 
L 201.484098 178.656035 
L 201.788157 178.480536 
L 202.092217 179.274897 
L 202.396276 179.428849 
L 203.004396 180.082985 
L 203.308455 179.841966 
L 203.916574 180.684356 
L 204.220634 180.88829 
L 204.524693 180.716826 
L 204.828753 181.713765 
L 205.132813 182.042496 
L 205.436872 181.586415 
L 205.740932 181.625088 
L 206.044991 183.093997 
L 206.349051 183.223115 
L 206.653111 182.859164 
L 207.565289 182.507179 
L 208.173408 183.05049 
L 208.781528 183.270853 
L 209.085587 182.731408 
L 209.693706 183.452267 
L 209.997766 182.602907 
L 210.301825 182.457834 
L 210.909945 182.654127 
L 211.214004 183.183711 
L 211.518064 182.917318 
L 211.822123 182.473695 
L 212.126183 183.388098 
L 212.430242 184.716467 
L 213.342421 183.743025 
L 213.646481 184.059509 
L 213.95054 183.530067 
L 214.2546 183.783427 
L 214.55866 184.548036 
L 214.862719 184.721538 
L 215.166779 184.710961 
L 215.470838 184.556822 
L 215.774898 184.733432 
L 216.078957 184.746322 
L 216.383017 185.014022 
L 216.687077 184.84925 
L 216.991136 185.708396 
L 217.295196 185.47432 
L 217.599255 186.185227 
L 217.903315 185.642085 
L 218.207374 185.770863 
L 218.511434 186.300458 
L 218.815494 186.090112 
L 219.119553 185.159107 
L 219.423613 185.836646 
L 220.031732 185.507045 
L 220.639851 185.663875 
L 221.24797 184.94898 
L 221.55203 185.03355 
L 221.856089 185.667198 
L 222.160149 185.284415 
L 222.768268 185.546557 
L 223.072328 186.16826 
L 223.376387 185.893246 
L 223.680447 185.952242 
L 224.288566 185.677706 
L 224.896685 185.038528 
L 225.504804 186.171355 
L 226.112923 186.457128 
L 226.416983 186.047141 
L 226.721043 185.863766 
L 227.025102 185.536613 
L 227.329162 185.443465 
L 227.633221 185.776055 
L 227.937281 186.628216 
L 228.24134 186.577787 
L 228.5454 186.972193 
L 228.84946 186.674686 
L 229.153519 187.124087 
L 229.761638 186.310912 
L 230.369758 184.873072 
L 231.281936 186.060609 
L 231.585996 186.092311 
L 231.890055 185.922253 
L 232.194115 185.486795 
L 232.802234 185.446586 
L 233.106294 185.24805 
L 233.410353 185.191076 
L 233.714413 184.702959 
L 234.018472 184.908153 
L 234.322532 185.765213 
L 234.626592 185.258322 
L 234.930651 185.317968 
L 235.234711 184.879717 
L 235.53877 185.044159 
L 236.146889 186.502563 
L 236.450949 185.712323 
L 236.755009 186.128095 
L 237.059068 185.355503 
L 237.667187 186.547769 
L 237.971247 186.615789 
L 238.275307 186.178176 
L 238.579366 186.690269 
L 238.883426 186.270505 
L 239.187485 186.200389 
L 240.099664 187.46673 
L 240.403724 187.435231 
L 240.707783 187.563768 
L 241.011843 187.495595 
L 241.315902 187.163961 
L 241.619962 187.828638 
L 241.924021 187.958453 
L 242.228081 187.905113 
L 242.532141 187.96697 
L 242.8362 187.466095 
L 243.444319 188.037197 
L 243.748379 187.754396 
L 244.052438 188.258673 
L 244.356498 188.067787 
L 244.964617 188.230898 
L 245.268677 188.597357 
L 246.180856 190.249699 
L 246.484915 190.045461 
L 246.788975 190.343651 
L 247.093034 190.271029 
L 247.397094 189.550122 
L 247.701153 189.591451 
L 248.005213 189.332616 
L 248.309273 189.826294 
L 248.613332 189.630223 
L 248.917392 189.759408 
L 249.221451 189.646499 
L 249.525511 189.079753 
L 249.82957 188.946402 
L 250.13363 189.548634 
L 250.741749 190.085403 
L 251.045809 189.751889 
L 251.349868 189.777996 
L 251.653928 190.772745 
L 251.957987 190.541132 
L 252.262047 190.824264 
L 252.566107 190.571528 
L 252.870166 189.729771 
L 253.174226 189.600793 
L 253.478285 189.83499 
L 253.782345 189.83762 
L 254.086405 190.655575 
L 254.694524 190.702375 
L 254.998583 190.650342 
L 255.302643 190.461639 
L 256.214822 190.586849 
L 256.518881 191.078271 
L 256.822941 190.593618 
L 257.43106 191.847831 
L 258.039179 191.945101 
L 258.343239 191.519942 
L 258.951358 191.776657 
L 259.255417 191.246309 
L 259.559477 191.028774 
L 259.863536 191.294151 
L 261.079775 189.965837 
L 261.383834 189.3272 
L 261.687894 189.117309 
L 261.991954 188.446775 
L 262.296013 188.376986 
L 262.600073 189.135043 
L 262.904132 189.046918 
L 263.208192 188.702752 
L 263.512251 189.04449 
L 263.816311 188.894456 
L 264.120371 188.607872 
L 264.42443 188.828162 
L 264.72849 189.207404 
L 265.032549 189.380155 
L 265.336609 189.186411 
L 265.640668 189.293311 
L 266.552847 187.601042 
L 266.856907 187.375102 
L 267.160966 187.737796 
L 267.465026 187.785867 
L 267.769085 188.370426 
L 268.073145 188.303441 
L 268.377205 188.688297 
L 268.681264 188.841346 
L 269.289383 188.447184 
L 269.593443 188.889932 
L 269.897502 188.83439 
L 270.201562 189.271168 
L 270.809681 189.071659 
L 271.4178 189.842863 
L 271.72186 188.996399 
L 272.02592 189.316528 
L 272.329979 188.927832 
L 272.634039 188.980135 
L 272.938098 189.442948 
L 273.242158 188.819125 
L 273.546217 188.929513 
L 274.154337 188.224434 
L 274.762456 189.024757 
L 276.282754 191.445952 
L 276.586813 191.115251 
L 276.890873 191.434226 
L 277.194932 191.533431 
L 277.498992 191.949499 
L 277.803051 192.020897 
L 278.107111 192.309835 
L 278.411171 192.358487 
L 278.71523 192.151264 
L 279.01929 192.407995 
L 279.323349 193.095491 
L 279.627409 192.94887 
L 279.931469 193.207918 
L 280.235528 192.816339 
L 280.539588 192.990935 
L 280.843647 192.864948 
L 281.451766 193.847176 
L 281.755826 194.107332 
L 282.059886 194.085265 
L 282.363945 194.221481 
L 282.668005 194.952542 
L 282.972064 194.638408 
L 283.276124 194.760203 
L 283.580183 194.254579 
L 283.884243 194.122491 
L 284.188303 194.235207 
L 284.492362 193.488102 
L 284.796422 193.315448 
L 285.404541 191.909328 
L 285.7086 192.113076 
L 286.01266 192.593537 
L 286.620779 191.341053 
L 286.924839 192.220363 
L 287.532958 192.657719 
L 287.837018 192.471211 
L 288.141077 192.063181 
L 288.445137 192.568824 
L 288.749196 192.25559 
L 289.357315 193.265527 
L 289.661375 193.272255 
L 289.965435 193.742159 
L 290.269494 193.740932 
L 290.573554 194.161105 
L 290.877613 194.180637 
L 291.485732 193.428851 
L 292.093852 193.542851 
L 292.701971 194.257982 
L 293.00603 194.496885 
L 293.31009 194.301515 
L 293.918209 193.260894 
L 294.526328 192.303167 
L 295.134447 192.378999 
L 295.438507 192.740607 
L 295.742567 192.835423 
L 296.046626 193.070101 
L 296.654745 192.853312 
L 297.262864 193.423702 
L 297.870984 192.062745 
L 298.175043 192.106182 
L 298.783162 193.100359 
L 299.391281 193.229798 
L 300.30346 195.060886 
L 300.60752 195.480347 
L 300.911579 195.259363 
L 301.519698 195.584533 
L 302.127818 195.562336 
L 302.431877 194.85813 
L 303.039996 194.417117 
L 303.344056 194.504354 
L 303.648116 194.244549 
L 303.952175 194.427857 
L 304.864354 193.130301 
L 305.168413 192.897784 
L 305.472473 193.075008 
L 306.080592 192.685565 
L 306.384652 192.934744 
L 306.688711 192.620495 
L 306.992771 193.252983 
L 307.29683 193.071243 
L 307.60089 193.332261 
L 307.90495 192.895767 
L 308.209009 193.206772 
L 308.513069 193.344676 
L 308.817128 194.21685 
L 309.121188 194.545334 
L 309.425247 195.621529 
L 309.729307 195.52871 
L 310.033367 195.172203 
L 310.337426 194.398153 
L 310.641486 194.494891 
L 310.945545 194.301745 
L 311.553665 194.654135 
L 311.857724 194.918474 
L 312.769903 194.605063 
L 313.073962 195.366732 
L 313.378022 195.187547 
L 313.682082 194.879028 
L 313.986141 194.972136 
L 314.290201 194.799798 
L 314.89832 195.719081 
L 315.506439 195.677352 
L 315.810499 195.634495 
L 316.114558 195.46797 
L 316.418618 195.574856 
L 316.722677 195.48825 
L 317.026737 194.930162 
L 317.330796 194.61852 
L 317.634856 194.829506 
L 317.938916 194.847154 
L 318.242975 194.990618 
L 318.547035 194.699571 
L 318.851094 194.913712 
L 319.155154 194.859034 
L 319.459214 195.674754 
L 319.763273 195.924742 
L 320.067333 195.917386 
L 320.371392 196.170689 
L 320.675452 195.710752 
L 320.979511 195.746405 
L 321.587631 196.241293 
L 321.89169 197.166322 
L 322.19575 196.411325 
L 322.803869 196.030085 
L 323.107928 195.824746 
L 323.411988 195.262871 
L 323.716048 195.616147 
L 324.020107 195.353255 
L 324.324167 195.59775 
L 324.628226 194.877033 
L 325.540405 196.495196 
L 325.844465 196.145382 
L 326.148524 196.395845 
L 326.452584 197.196993 
L 326.756643 196.789217 
L 327.060703 196.6438 
L 327.364763 196.128989 
L 327.668822 196.122595 
L 327.972882 196.248964 
L 328.276941 196.033991 
L 329.18912 197.22554 
L 330.101299 196.578502 
L 330.405358 196.306815 
L 330.709418 196.435378 
L 331.013477 196.805379 
L 331.317537 196.752523 
L 331.621597 196.458249 
L 331.925656 197.305442 
L 332.229716 197.751831 
L 332.533775 197.61761 
L 332.837835 198.06088 
L 333.750014 197.332651 
L 334.358133 197.197799 
L 334.662192 196.654583 
L 334.966252 196.685922 
L 335.270312 196.542419 
L 335.574371 196.560483 
L 335.878431 196.847514 
L 336.48655 197.041099 
L 336.790609 197.240133 
L 337.094669 197.021075 
L 337.398729 197.087428 
L 338.614967 199.187857 
L 338.919026 198.703308 
L 339.527146 199.614322 
L 339.831205 200.178585 
L 340.439324 200.42547 
L 340.743384 200.26923 
L 341.047443 200.800106 
L 341.351503 200.447214 
L 341.655563 199.524232 
L 341.959622 199.4839 
L 342.263682 199.584388 
L 342.567741 200.317479 
L 342.871801 200.281961 
L 343.175861 200.70965 
L 343.78398 199.599916 
L 344.088039 198.92095 
L 344.696158 198.974331 
L 345.304278 198.429243 
L 345.608337 198.638652 
L 345.912397 198.259629 
L 346.216456 198.4766 
L 346.520516 199.07909 
L 346.824575 198.812501 
L 347.128635 198.802858 
L 347.432695 198.916144 
L 347.736754 199.630571 
L 348.040814 199.784721 
L 348.344873 199.610312 
L 348.648933 199.985335 
L 348.952992 200.02003 
L 349.257052 199.753598 
L 349.561112 199.847134 
L 349.865171 199.618702 
L 350.169231 199.624554 
L 350.47329 200.431448 
L 351.081409 200.033472 
L 351.385469 199.984563 
L 351.689529 200.086673 
L 352.297648 198.738322 
L 352.601707 199.287352 
L 352.905767 199.246276 
L 353.209827 199.015369 
L 353.513886 198.986147 
L 353.817946 198.752958 
L 354.426065 198.875993 
L 354.730124 198.248174 
L 355.034184 197.891081 
L 355.338244 197.713817 
L 355.642303 197.239796 
L 355.946363 197.119519 
L 356.250422 196.456046 
L 356.554482 196.923962 
L 356.858541 197.098435 
L 357.162601 197.438615 
L 357.77072 196.740447 
L 358.07478 196.648188 
L 358.378839 196.16922 
L 358.682899 196.567806 
L 358.682899 196.567806 
" style="fill:none;stroke:#ff7f0e;stroke-linecap:round;stroke-width:1.5;"/>
   </g>
   <g id="patch_3">
    <path d="M 54 252 
L 54 34.56 
" style="fill:none;stroke:#cccccc;stroke-linecap:square;stroke-linejoin:miter;"/>
   </g>
   <g id="patch_4">
    <path d="M 388.8 252 
L 388.8 34.56 
" style="fill:none;stroke:#cccccc;stroke-linecap:square;stroke-linejoin:miter;"/>
   </g>
   <g id="patch_5">
    <path d="M 54 252 
L 388.8 252 
" style="fill:none;stroke:#cccccc;stroke-linecap:square;stroke-linejoin:miter;"/>
   </g>
   <g id="patch_6">
    <path d="M 54 34.56 
L 388.8 34.56 
" style="fill:none;stroke:#cccccc;stroke-linecap:square;stroke-linejoin:miter;"/>
   </g>
   <g id="legend_1">
    <g id="line2d_31">
     <path d="M 216.170312 47.217813 
L 236.170312 47.217813 
" style="fill:none;stroke:#1f77b4;stroke-linecap:round;stroke-width:1.5;"/>
    </g>
    <g id="line2d_32"/>
    <g id="text_17">
     <!-- loss -->
     <g style="fill:#262626;" transform="translate(244.170312 50.717813)scale(0.1 -0.1)">
      <defs>
       <path d="M 409 0 
L 409 4581 
L 972 4581 
L 972 0 
L 409 0 
z
" id="ArialMT-6c" transform="scale(0.015625)"/>
      </defs>
      <use xlink:href="#ArialMT-6c"/>
      <use x="22.216797" xlink:href="#ArialMT-6f"/>
      <use x="77.832031" xlink:href="#ArialMT-73"/>
      <use x="127.832031" xlink:href="#ArialMT-73"/>
     </g>
    </g>
    <g id="line2d_33">
     <path d="M 216.170312 61.392813 
L 236.170312 61.392813 
" style="fill:none;stroke:#ff7f0e;stroke-linecap:round;stroke-width:1.5;"/>
    </g>
    <g id="line2d_34"/>
    <g id="text_18">
     <!-- 20 epoch moving average loss -->
     <g style="fill:#262626;" transform="translate(244.170312 64.892813)scale(0.1 -0.1)">
      <defs>
       <path id="ArialMT-20" transform="scale(0.015625)"/>
       <path d="M 2694 1069 
L 3275 997 
Q 3138 488 2766 206 
Q 2394 -75 1816 -75 
Q 1088 -75 661 373 
Q 234 822 234 1631 
Q 234 2469 665 2931 
Q 1097 3394 1784 3394 
Q 2450 3394 2872 2941 
Q 3294 2488 3294 1666 
Q 3294 1616 3291 1516 
L 816 1516 
Q 847 969 1125 678 
Q 1403 388 1819 388 
Q 2128 388 2347 550 
Q 2566 713 2694 1069 
z
M 847 1978 
L 2700 1978 
Q 2663 2397 2488 2606 
Q 2219 2931 1791 2931 
Q 1403 2931 1139 2672 
Q 875 2413 847 1978 
z
" id="ArialMT-65" transform="scale(0.015625)"/>
       <path d="M 422 0 
L 422 3319 
L 925 3319 
L 925 2853 
Q 1081 3097 1340 3245 
Q 1600 3394 1931 3394 
Q 2300 3394 2536 3241 
Q 2772 3088 2869 2813 
Q 3263 3394 3894 3394 
Q 4388 3394 4653 3120 
Q 4919 2847 4919 2278 
L 4919 0 
L 4359 0 
L 4359 2091 
Q 4359 2428 4304 2576 
Q 4250 2725 4106 2815 
Q 3963 2906 3769 2906 
Q 3419 2906 3187 2673 
Q 2956 2441 2956 1928 
L 2956 0 
L 2394 0 
L 2394 2156 
Q 2394 2531 2256 2718 
Q 2119 2906 1806 2906 
Q 1569 2906 1367 2781 
Q 1166 2656 1075 2415 
Q 984 2175 984 1722 
L 984 0 
L 422 0 
z
" id="ArialMT-6d" transform="scale(0.015625)"/>
       <path d="M 1344 0 
L 81 3319 
L 675 3319 
L 1388 1331 
Q 1503 1009 1600 663 
Q 1675 925 1809 1294 
L 2547 3319 
L 3125 3319 
L 1869 0 
L 1344 0 
z
" id="ArialMT-76" transform="scale(0.015625)"/>
       <path d="M 425 3934 
L 425 4581 
L 988 4581 
L 988 3934 
L 425 3934 
z
M 425 0 
L 425 3319 
L 988 3319 
L 988 0 
L 425 0 
z
" id="ArialMT-69" transform="scale(0.015625)"/>
       <path d="M 422 0 
L 422 3319 
L 928 3319 
L 928 2847 
Q 1294 3394 1984 3394 
Q 2284 3394 2536 3286 
Q 2788 3178 2913 3003 
Q 3038 2828 3088 2588 
Q 3119 2431 3119 2041 
L 3119 0 
L 2556 0 
L 2556 2019 
Q 2556 2363 2490 2533 
Q 2425 2703 2258 2804 
Q 2091 2906 1866 2906 
Q 1506 2906 1245 2678 
Q 984 2450 984 1813 
L 984 0 
L 422 0 
z
" id="ArialMT-6e" transform="scale(0.015625)"/>
       <path d="M 319 -275 
L 866 -356 
Q 900 -609 1056 -725 
Q 1266 -881 1628 -881 
Q 2019 -881 2231 -725 
Q 2444 -569 2519 -288 
Q 2563 -116 2559 434 
Q 2191 0 1641 0 
Q 956 0 581 494 
Q 206 988 206 1678 
Q 206 2153 378 2554 
Q 550 2956 876 3175 
Q 1203 3394 1644 3394 
Q 2231 3394 2613 2919 
L 2613 3319 
L 3131 3319 
L 3131 450 
Q 3131 -325 2973 -648 
Q 2816 -972 2473 -1159 
Q 2131 -1347 1631 -1347 
Q 1038 -1347 672 -1080 
Q 306 -813 319 -275 
z
M 784 1719 
Q 784 1066 1043 766 
Q 1303 466 1694 466 
Q 2081 466 2343 764 
Q 2606 1063 2606 1700 
Q 2606 2309 2336 2618 
Q 2066 2928 1684 2928 
Q 1309 2928 1046 2623 
Q 784 2319 784 1719 
z
" id="ArialMT-67" transform="scale(0.015625)"/>
       <path d="M 2588 409 
Q 2275 144 1986 34 
Q 1697 -75 1366 -75 
Q 819 -75 525 192 
Q 231 459 231 875 
Q 231 1119 342 1320 
Q 453 1522 633 1644 
Q 813 1766 1038 1828 
Q 1203 1872 1538 1913 
Q 2219 1994 2541 2106 
Q 2544 2222 2544 2253 
Q 2544 2597 2384 2738 
Q 2169 2928 1744 2928 
Q 1347 2928 1158 2789 
Q 969 2650 878 2297 
L 328 2372 
Q 403 2725 575 2942 
Q 747 3159 1072 3276 
Q 1397 3394 1825 3394 
Q 2250 3394 2515 3294 
Q 2781 3194 2906 3042 
Q 3031 2891 3081 2659 
Q 3109 2516 3109 2141 
L 3109 1391 
Q 3109 606 3145 398 
Q 3181 191 3288 0 
L 2700 0 
Q 2613 175 2588 409 
z
M 2541 1666 
Q 2234 1541 1622 1453 
Q 1275 1403 1131 1340 
Q 988 1278 909 1158 
Q 831 1038 831 891 
Q 831 666 1001 516 
Q 1172 366 1500 366 
Q 1825 366 2078 508 
Q 2331 650 2450 897 
Q 2541 1088 2541 1459 
L 2541 1666 
z
" id="ArialMT-61" transform="scale(0.015625)"/>
       <path d="M 416 0 
L 416 3319 
L 922 3319 
L 922 2816 
Q 1116 3169 1280 3281 
Q 1444 3394 1641 3394 
Q 1925 3394 2219 3213 
L 2025 2691 
Q 1819 2813 1613 2813 
Q 1428 2813 1281 2702 
Q 1134 2591 1072 2394 
Q 978 2094 978 1738 
L 978 0 
L 416 0 
z
" id="ArialMT-72" transform="scale(0.015625)"/>
      </defs>
      <use xlink:href="#ArialMT-32"/>
      <use x="55.615234" xlink:href="#ArialMT-30"/>
      <use x="111.230469" xlink:href="#ArialMT-20"/>
      <use x="139.013672" xlink:href="#ArialMT-65"/>
      <use x="194.628906" xlink:href="#ArialMT-70"/>
      <use x="250.244141" xlink:href="#ArialMT-6f"/>
      <use x="305.859375" xlink:href="#ArialMT-63"/>
      <use x="355.859375" xlink:href="#ArialMT-68"/>
      <use x="411.474609" xlink:href="#ArialMT-20"/>
      <use x="439.257812" xlink:href="#ArialMT-6d"/>
      <use x="522.558594" xlink:href="#ArialMT-6f"/>
      <use x="578.173828" xlink:href="#ArialMT-76"/>
      <use x="628.173828" xlink:href="#ArialMT-69"/>
      <use x="650.390625" xlink:href="#ArialMT-6e"/>
      <use x="706.005859" xlink:href="#ArialMT-67"/>
      <use x="761.621094" xlink:href="#ArialMT-20"/>
      <use x="789.404297" xlink:href="#ArialMT-61"/>
      <use x="845.019531" xlink:href="#ArialMT-76"/>
      <use x="895.019531" xlink:href="#ArialMT-65"/>
      <use x="950.634766" xlink:href="#ArialMT-72"/>
      <use x="983.935547" xlink:href="#ArialMT-61"/>
      <use x="1039.550781" xlink:href="#ArialMT-67"/>
      <use x="1095.166016" xlink:href="#ArialMT-65"/>
      <use x="1150.78125" xlink:href="#ArialMT-20"/>
      <use x="1178.564453" xlink:href="#ArialMT-6c"/>
      <use x="1200.78125" xlink:href="#ArialMT-6f"/>
      <use x="1256.396484" xlink:href="#ArialMT-73"/>
      <use x="1306.396484" xlink:href="#ArialMT-73"/>
     </g>
    </g>
   </g>
  </g>
 </g>
 <defs>
  <clipPath id="p3945679a94">
   <rect height="217.44" width="334.8" x="54" y="34.56"/>
  </clipPath>
 </defs>
</svg>
